<?xml version="1.0" encoding="utf-8" ?>
<svg baseProfile="full" height="100%" version="1.1" viewBox="-198.366101 -77.500000 396.732203 224.511598" width="100%" xmlns="http://www.w3.org/2000/svg" xmlns:ev="http://www.w3.org/2001/xml-events" xmlns:xlink="http://www.w3.org/1999/xlink"><defs /><style type="text/css"><![CDATA[svg {
  stroke: black;  stroke-width: 0.25;  fill: none;}]]></style><path d="M -143.6341734071064 -67.5 A 9.5 9.5 0 0,0 -152.89068902256614 -60.13703501626672" /><line x1="-143.6341734071064" x2="143.6341734071063" y1="-67.5" y2="-67.5" /><path d="M 152.89068902256602 -60.13703501626671 A 9.5 9.5 0 0,0 143.63417340710632 -67.5" /><line x1="188.3661012825067" x2="1.13686837721616e-13" y1="93.52385731795106" y2="137.0115983904176" /><line x1="1.13686837721616e-13" x2="-188.3661012825067" y1="137.0115983904176" y2="93.52385731795093" /><line x1="-188.3661012825067" x2="-152.8906890225661" y1="93.52385731795094" y2="-60.13703501626672" /><line x1="152.890689022566" x2="188.3661012825067" y1="-60.13703501626671" y2="93.52385731795106" /><circle cx="182.6693259666435" cy="89.96411701835456" r="1.6" /><circle cx="1.13686837721616e-13" cy="132.136653878399" r="1.6" /><circle cx="-182.6693259666435" cy="89.96411701835456" r="1.6" /><circle cx="146.5911179311346" cy="-61.71738874504855" r="1.6" /><circle cx="49.13749800375967" cy="-62.75" r="1.6" /><circle cx="-49.13749800375908" cy="-62.75" r="1.6" /><circle cx="-146.5911179311346" cy="-61.71738874504855" r="1.6" /><circle cx="-154.63597825207242" cy="80.78498765256222" r="3.2" /><circle cx="-101.53280972127702" cy="93.04482011430285" r="3.2" /><circle cx="154.63597825207242" cy="80.78498765256222" r="3.2" /><circle cx="101.53280972127702" cy="93.04482011430284" r="3.2" /></svg>