<?xml version="1.0" encoding="utf-8" ?>
<svg baseProfile="full" height="100%" version="1.1" viewBox="-198.722061 -77.500000 397.444122 234.524750" width="100%" xmlns="http://www.w3.org/2000/svg" xmlns:ev="http://www.w3.org/2001/xml-events" xmlns:xlink="http://www.w3.org/1999/xlink"><defs /><style type="text/css"><![CDATA[svg {
  stroke: black;  stroke-width: 0.25;  fill: none;}]]></style><path d="M -143.6341734071064 -67.5 A 9.5 9.5 0 0,0 -152.89068902256614 -60.13703501626672" /><line x1="-143.6341734071064" x2="143.6341734071063" y1="-67.5" y2="-67.5" /><path d="M 152.89068902256602 -60.13703501626671 A 9.5 9.5 0 0,0 143.63417340710632 -67.5" /><line x1="-188.3661012825067" x2="-152.8906890225661" y1="93.52385731795094" y2="-60.13703501626672" /><line x1="152.890689022566" x2="188.3661012825067" y1="-60.13703501626671" y2="93.52385731795106" /><line x1="181.3590962104855" x2="2.13703501626668" y1="105.4045929820701" y2="146.7812660597741" /><path d="M -2.1370350162667036 146.78126605977403 A 9.5 9.5 0 0,0 2.1370350162666836 146.78126605977403" /><line x1="-2.137035016266711" x2="-181.3590962104856" y1="146.7812660597741" y2="105.40459298207" /><path d="M -188.47857680967863 94.01104235034354 A 9.5 9.5 0 0,0 -181.3590962104856 105.40459298206997" /><path d="M 181.35909621048552 105.40459298207013 A 9.5 9.5 0 0,0 188.47857680967854 94.0110423503437" /><line x1="-188.4785768096786" x2="-188.3661012825067" y1="94.01104235034353" y2="93.52385731795094" /><line x1="188.3661012825067" x2="188.4785768096786" y1="93.52385731795106" y2="94.0110423503437" /><circle cx="182.6693259666435" cy="89.96411701835456" r="1.6" /><circle cx="1.13686837721616e-13" cy="132.136653878399" r="1.6" /><circle cx="-182.6693259666435" cy="89.96411701835456" r="1.6" /><circle cx="146.5911179311346" cy="-61.71738874504855" r="1.6" /><circle cx="49.13749800375967" cy="-62.75" r="1.6" /><circle cx="-49.13749800375908" cy="-62.75" r="1.6" /><circle cx="-146.5911179311346" cy="-61.71738874504855" r="1.6" /><circle cx="0.0" cy="68.24922316826054" r="1.5" /><circle cx="0.0" cy="87.24922316826054" r="1.5" /><circle cx="0.0" cy="106.24922316826054" r="1.5" /><line x1="-125.25" x2="-125.25" y1="-41.1" y2="-53.9" /><line x1="-140.75" x2="-125.25" y1="-41.1" y2="-41.1" /><line x1="-140.75" x2="-125.25" y1="-53.9" y2="-53.9" /><line x1="-140.75" x2="-140.75" y1="-41.1" y2="-53.9" /><line x1="140.75" x2="140.75" y1="-41.1" y2="-53.9" /><line x1="125.25" x2="140.75" y1="-41.1" y2="-41.1" /><line x1="125.25" x2="140.75" y1="-53.9" y2="-53.9" /><line x1="125.25" x2="125.25" y1="-41.1" y2="-53.9" /><line x1="-74.7116906759337" x2="-71.83231718033221" y1="62.44396108787142" y2="49.97202425862041" /><line x1="-89.81442668010484" x2="-74.7116906759337" y1="58.95721974554151" y2="62.44396108787142" /><line x1="-86.93505318450336" x2="-71.83231718033221" y1="46.485282916290494" y2="49.97202425862041" /><line x1="-89.81442668010484" x2="-86.93505318450336" y1="58.95721974554151" y2="46.485282916290494" /><line x1="-78.98576070846714" x2="-76.10638721286566" y1="80.95699231879088" y2="68.48505548953987" /><line x1="-94.08849671263829" x2="-78.98576070846714" y1="77.47025097646097" y2="80.95699231879088" /><line x1="-91.2091232170368" x2="-76.10638721286566" y1="64.99831414720997" y2="68.48505548953987" /><line x1="-94.08849671263829" x2="-91.2091232170368" y1="77.47025097646097" y2="64.99831414720997" /><line x1="-95.36175692311988" x2="-92.4823834275184" y1="67.4264066707977" y2="54.9544698415467" /><line x1="-110.46449292729103" x2="-95.36175692311988" y1="63.9396653284678" y2="67.4264066707977" /><line x1="-107.58511943168955" x2="-92.4823834275184" y1="51.46772849921678" y2="54.9544698415467" /><line x1="-110.46449292729103" x2="-107.58511943168955" y1="63.9396653284678" y2="51.46772849921678" /><line x1="-58.33569446128095" x2="-55.456320965679474" y1="75.97454673586459" y2="63.502609906613586" /><line x1="-73.4384304654521" x2="-58.33569446128095" y1="72.48780539353469" y2="75.97454673586459" /><line x1="-70.55905696985062" x2="-55.456320965679474" y1="60.01586856428367" y2="63.502609906613586" /><line x1="-73.4384304654521" x2="-70.55905696985062" y1="72.48780539353469" y2="60.01586856428367" /><line x1="-39.82266323036149" x2="-36.943289734760015" y1="80.24861676839802" y2="67.77667993914702" /><line x1="-54.925399234532634" x2="-39.82266323036149" y1="76.76187542606812" y2="80.24861676839802" /><line x1="-52.04602573893116" x2="-36.943289734760015" y1="64.28993859681711" y2="67.77667993914702" /><line x1="-54.925399234532634" x2="-52.04602573893116" y1="76.76187542606812" y2="64.28993859681711" /><line x1="-23.446667015708748" x2="-20.56729352010727" y1="93.7792024163912" y2="81.3072655871402" /><line x1="-38.54940301987989" x2="-23.446667015708748" y1="90.2924610740613" y2="93.7792024163912" /><line x1="-35.67002952427841" x2="-20.56729352010727" y1="77.82052424481029" y2="81.3072655871402" /><line x1="-38.54940301987989" x2="-35.67002952427841" y1="90.2924610740613" y2="77.82052424481029" /><line x1="-27.720737048242185" x2="-24.841363552640708" y1="112.29223364731067" y2="99.82029681805966" /><line x1="-42.82347305241333" x2="-27.720737048242185" y1="108.80549230498076" y2="112.29223364731067" /><line x1="-39.94409955681185" x2="-24.841363552640708" y1="96.33355547572975" y2="99.82029681805966" /><line x1="-42.82347305241333" x2="-39.94409955681185" y1="108.80549230498076" y2="96.33355547572975" /><line x1="-57.62731891088811" x2="-54.74794541528663" y1="115.13764421397023" y2="102.66570738471923" /><line x1="-72.73005491505926" x2="-57.62731891088811" y1="111.65090287164033" y2="115.13764421397023" /><line x1="-69.85068141945777" x2="-54.74794541528663" y1="99.17896604238932" y2="102.66570738471923" /><line x1="-72.73005491505926" x2="-69.85068141945777" y1="111.65090287164033" y2="99.17896604238932" /><line x1="-20.75" x2="-20.75" y1="-41.1" y2="-53.9" /><line x1="-36.25" x2="-20.75" y1="-41.1" y2="-41.1" /><line x1="-36.25" x2="-20.75" y1="-53.9" y2="-53.9" /><line x1="-36.25" x2="-36.25" y1="-41.1" y2="-53.9" /><line x1="-1.7500000000000009" x2="-1.75" y1="-41.1" y2="-53.9" /><line x1="-17.25" x2="-1.7500000000000009" y1="-41.1" y2="-41.1" /><line x1="-17.25" x2="-1.75" y1="-53.9" y2="-53.9" /><line x1="-17.25" x2="-17.25" y1="-41.1" y2="-53.9" /><line x1="17.25" x2="17.25" y1="-41.1" y2="-53.9" /><line x1="1.75" x2="17.25" y1="-41.1" y2="-41.1" /><line x1="1.7500000000000009" x2="17.25" y1="-53.9" y2="-53.9" /><line x1="1.75" x2="1.7500000000000009" y1="-41.1" y2="-53.9" /><line x1="36.25" x2="36.25" y1="-41.1" y2="-53.9" /><line x1="20.75" x2="36.25" y1="-41.1" y2="-41.1" /><line x1="20.75" x2="36.25" y1="-53.9" y2="-53.9" /><line x1="20.75" x2="20.75" y1="-41.1" y2="-53.9" /><line x1="60.0" x2="60.0" y1="-41.1" y2="-53.9" /><line x1="44.5" x2="60.0" y1="-41.1" y2="-41.1" /><line x1="44.5" x2="60.0" y1="-53.9" y2="-53.9" /><line x1="44.5" x2="44.5" y1="-41.1" y2="-53.9" /><line x1="79.0" x2="79.0" y1="-41.1" y2="-53.9" /><line x1="63.5" x2="79.0" y1="-41.1" y2="-41.1" /><line x1="63.5" x2="79.0" y1="-53.9" y2="-53.9" /><line x1="63.5" x2="63.5" y1="-41.1" y2="-53.9" /><line x1="98.0" x2="98.0" y1="-41.1" y2="-53.9" /><line x1="82.5" x2="98.0" y1="-41.1" y2="-41.1" /><line x1="82.5" x2="98.0" y1="-53.9" y2="-53.9" /><line x1="82.5" x2="82.5" y1="-41.1" y2="-53.9" /><line x1="117.0" x2="117.0" y1="-41.1" y2="-53.9" /><line x1="101.5" x2="117.0" y1="-41.1" y2="-41.1" /><line x1="101.5" x2="117.0" y1="-53.9" y2="-53.9" /><line x1="101.5" x2="101.5" y1="-41.1" y2="-53.9" /><line x1="-101.5" x2="-101.5" y1="-41.1" y2="-53.9" /><line x1="-117.0" x2="-101.5" y1="-41.1" y2="-41.1" /><line x1="-117.0" x2="-101.5" y1="-53.9" y2="-53.9" /><line x1="-117.0" x2="-117.0" y1="-41.1" y2="-53.9" /><line x1="-82.5" x2="-82.5" y1="-41.1" y2="-53.9" /><line x1="-98.0" x2="-82.5" y1="-41.1" y2="-41.1" /><line x1="-98.0" x2="-82.5" y1="-53.9" y2="-53.9" /><line x1="-98.0" x2="-98.0" y1="-41.1" y2="-53.9" /><line x1="-63.5" x2="-63.5" y1="-41.1" y2="-53.9" /><line x1="-79.0" x2="-63.5" y1="-41.1" y2="-41.1" /><line x1="-79.0" x2="-63.5" y1="-53.9" y2="-53.9" /><line x1="-79.0" x2="-79.0" y1="-41.1" y2="-53.9" /><line x1="-44.5" x2="-44.5" y1="-41.1" y2="-53.9" /><line x1="-60.0" x2="-44.5" y1="-41.1" y2="-41.1" /><line x1="-60.0" x2="-44.5" y1="-53.9" y2="-53.9" /><line x1="-60.0" x2="-60.0" y1="-41.1" y2="-53.9" /><line x1="74.7116906759337" x2="71.83231718033221" y1="62.44396108787143" y2="49.972024258620415" /><line x1="89.81442668010484" x2="74.7116906759337" y1="58.957219745541515" y2="62.44396108787143" /><line x1="86.93505318450336" x2="71.83231718033221" y1="46.4852829162905" y2="49.972024258620415" /><line x1="89.81442668010484" x2="86.93505318450336" y1="58.957219745541515" y2="46.4852829162905" /><line x1="78.98576070846714" x2="76.10638721286566" y1="80.9569923187909" y2="68.48505548953989" /><line x1="94.08849671263829" x2="78.98576070846714" y1="77.47025097646099" y2="80.9569923187909" /><line x1="91.2091232170368" x2="76.10638721286566" y1="64.99831414720998" y2="68.48505548953989" /><line x1="94.08849671263829" x2="91.2091232170368" y1="77.47025097646099" y2="64.99831414720998" /><line x1="95.36175692311988" x2="92.48238342751841" y1="67.42640667079772" y2="54.95446984154671" /><line x1="110.46449292729102" x2="95.36175692311988" y1="63.93966532846781" y2="67.42640667079772" /><line x1="107.58511943168955" x2="92.48238342751841" y1="51.467728499216804" y2="54.95446984154671" /><line x1="110.46449292729102" x2="107.58511943168955" y1="63.93966532846781" y2="51.467728499216804" /><line x1="58.33569446128095" x2="55.456320965679474" y1="75.97454673586459" y2="63.502609906613586" /><line x1="73.43843046545209" x2="58.33569446128095" y1="72.48780539353469" y2="75.97454673586459" /><line x1="70.55905696985062" x2="55.456320965679474" y1="60.01586856428368" y2="63.502609906613586" /><line x1="73.43843046545209" x2="70.55905696985062" y1="72.48780539353469" y2="60.01586856428368" /><line x1="39.822663230361485" x2="36.94328973476001" y1="80.24861676839804" y2="67.77667993914703" /><line x1="54.92539923453263" x2="39.822663230361485" y1="76.76187542606813" y2="80.24861676839804" /><line x1="52.04602573893115" x2="36.94328973476001" y1="64.28993859681712" y2="67.77667993914703" /><line x1="54.92539923453263" x2="52.04602573893115" y1="76.76187542606813" y2="64.28993859681712" /><line x1="23.44666701570873" x2="20.567293520107256" y1="93.7792024163912" y2="81.3072655871402" /><line x1="38.549403019879875" x2="23.44666701570873" y1="90.2924610740613" y2="93.7792024163912" /><line x1="35.6700295242784" x2="20.567293520107256" y1="77.82052424481029" y2="81.3072655871402" /><line x1="38.549403019879875" x2="35.6700295242784" y1="90.2924610740613" y2="77.82052424481029" /><line x1="27.720737048242167" x2="24.841363552640694" y1="112.29223364731067" y2="99.82029681805966" /><line x1="42.82347305241331" x2="27.720737048242167" y1="108.80549230498076" y2="112.29223364731067" /><line x1="39.944099556811835" x2="24.841363552640694" y1="96.33355547572975" y2="99.82029681805966" /><line x1="42.82347305241331" x2="39.944099556811835" y1="108.80549230498076" y2="96.33355547572975" /><line x1="57.62731891088809" x2="54.747945415286615" y1="115.13764421397025" y2="102.66570738471924" /><line x1="72.73005491505924" x2="57.62731891088809" y1="111.65090287164034" y2="115.13764421397025" /><line x1="69.85068141945776" x2="54.747945415286615" y1="99.17896604238933" y2="102.66570738471924" /><line x1="72.73005491505924" x2="69.85068141945776" y1="111.65090287164034" y2="99.17896604238933" /><line x1="-57.61541054579994" x2="-54.73603705019846" y1="-11.608163835806451" y2="-24.08010066505746" /><line x1="-72.71814654997108" x2="-57.61541054579994" y1="-15.094905178136361" y2="-11.608163835806451" /><line x1="-69.83877305436961" x2="-54.73603705019846" y1="-27.566842007387372" y2="-24.08010066505746" /><line x1="-72.71814654997108" x2="-69.83877305436961" y1="-15.094905178136361" y2="-27.566842007387372" /><line x1="-61.88948057833338" x2="-59.0101070827319" y1="6.904867395113016" y2="-5.567069434137994" /><line x1="-76.99221658250453" x2="-61.88948057833338" y1="3.418126052783104" y2="6.904867395113016" /><line x1="-74.11284308690304" x2="-59.0101070827319" y1="-9.053810776467905" y2="-5.567069434137994" /><line x1="-76.99221658250453" x2="-74.11284308690304" y1="3.418126052783104" y2="-9.053810776467905" /><line x1="-66.16355061086682" x2="-63.284177115265344" y1="25.417898626032482" y2="12.945961796781472" /><line x1="-81.26628661503797" x2="-66.16355061086682" y1="21.93115728370257" y2="25.417898626032482" /><line x1="-78.38691311943649" x2="-63.284177115265344" y1="9.459220454451561" y2="12.945961796781472" /><line x1="-81.26628661503797" x2="-78.38691311943649" y1="21.93115728370257" y2="9.459220454451561" /><line x1="-70.43762064340027" x2="-67.55824714779878" y1="43.930929856951956" y2="31.45899302770094" /><line x1="-85.54035664757141" x2="-70.43762064340027" y1="40.44418851462204" y2="43.930929856951956" /><line x1="-82.66098315196993" x2="-67.55824714779878" y1="27.97225168537103" y2="31.45899302770094" /><line x1="-85.54035664757141" x2="-82.66098315196993" y1="40.44418851462204" y2="27.97225168537103" /><line x1="-40.170896823013834" x2="-37.29152332741236" y1="-2.7058359955431426" y2="-15.177772824794154" /><line x1="-55.273632827184976" x2="-40.170896823013834" y1="-6.192577337873055" y2="-2.7058359955431426" /><line x1="-52.3942593315835" x2="-37.29152332741236" y1="-18.664514167124064" y2="-15.177772824794154" /><line x1="-55.273632827184976" x2="-52.3942593315835" y1="-6.192577337873055" y2="-18.664514167124064" /><line x1="-44.44496685554728" x2="-41.5655933599458" y1="15.807195235376323" y2="3.3352584061253134" /><line x1="-59.54770285971842" x2="-44.44496685554728" y1="12.320453893046412" y2="15.807195235376323" /><line x1="-56.66832936411694" x2="-41.5655933599458" y1="-0.15148293620459885" y2="3.3352584061253134" /><line x1="-59.54770285971842" x2="-56.66832936411694" y1="12.320453893046412" y2="-0.15148293620459885" /><line x1="-48.719036888080716" x2="-45.83966339247924" y1="34.32022646629579" y2="21.84828963704478" /><line x1="-63.82177289225186" x2="-48.719036888080716" y1="30.83348512396588" y2="34.32022646629579" /><line x1="-60.94239939665038" x2="-45.83966339247924" y1="18.36154829471487" y2="21.84828963704478" /><line x1="-63.82177289225186" x2="-60.94239939665038" y1="30.83348512396588" y2="18.36154829471487" /><line x1="-52.99310692061416" x2="-50.11373342501268" y1="52.83325769721526" y2="40.361320867964245" /><line x1="-68.0958429247853" x2="-52.99310692061416" y1="49.346516354885345" y2="52.83325769721526" /><line x1="-65.21646942918383" x2="-50.11373342501268" y1="36.87457952563433" y2="40.361320867964245" /><line x1="-68.0958429247853" x2="-65.21646942918383" y1="49.346516354885345" y2="36.87457952563433" /><line x1="-77.19695928485277" x2="-74.31758578925128" y1="-11.253976060610025" y2="-23.725912889861036" /><line x1="-92.29969528902392" x2="-77.19695928485277" y1="-14.740717402939936" y2="-11.253976060610025" /><line x1="-89.42032179342243" x2="-74.31758578925128" y1="-27.212654232190946" y2="-23.725912889861036" /><line x1="-92.29969528902392" x2="-89.42032179342243" y1="-14.740717402939936" y2="-27.212654232190946" /><line x1="-81.47102931738621" x2="-78.59165582178473" y1="7.259055170309442" y2="-5.212881658941568" /><line x1="-96.57376532155736" x2="-81.47102931738621" y1="3.77231382797953" y2="7.259055170309442" /><line x1="-93.69439182595588" x2="-78.59165582178473" y1="-8.69962300127148" y2="-5.212881658941568" /><line x1="-96.57376532155736" x2="-93.69439182595588" y1="3.77231382797953" y2="-8.69962300127148" /><line x1="-85.74509934991966" x2="-82.86572585431817" y1="25.772086401228908" y2="13.300149571977897" /><line x1="-100.8478353540908" x2="-85.74509934991966" y1="22.285345058898997" y2="25.772086401228908" /><line x1="-97.96846185848932" x2="-82.86572585431817" y1="9.813408229647987" y2="13.300149571977897" /><line x1="-100.8478353540908" x2="-97.96846185848932" y1="22.285345058898997" y2="9.813408229647987" /><line x1="-90.01916938245309" x2="-87.1397958868516" y1="44.28511763214838" y2="31.813180802897364" /><line x1="-105.12190538662423" x2="-90.01916938245309" y1="40.798376289818464" y2="44.28511763214838" /><line x1="-102.24253189102275" x2="-87.1397958868516" y1="28.326439460567453" y2="31.813180802897364" /><line x1="-105.12190538662423" x2="-102.24253189102275" y1="40.798376289818464" y2="28.326439460567453" /><line x1="-98.91554304017231" x2="-96.03616954457082" y1="-1.6432726699538653" y2="-14.115209499204877" /><line x1="-114.01827904434346" x2="-98.91554304017231" y1="-5.130014012283778" y2="-1.6432726699538653" /><line x1="-111.13890554874197" x2="-96.03616954457082" y1="-17.601950841534787" y2="-14.115209499204877" /><line x1="-114.01827904434346" x2="-111.13890554874197" y1="-5.130014012283778" y2="-17.601950841534787" /><line x1="-103.18961307270575" x2="-100.31023957710427" y1="16.8697585609656" y2="4.397821731714591" /><line x1="-118.2923490768769" x2="-103.18961307270575" y1="13.38301721863569" y2="16.8697585609656" /><line x1="-115.41297558127542" x2="-100.31023957710427" y1="0.9110803893846784" y2="4.397821731714591" /><line x1="-118.2923490768769" x2="-115.41297558127542" y1="13.38301721863569" y2="0.9110803893846784" /><line x1="-107.4636831052392" x2="-104.58430960963771" y1="35.38278979188507" y2="22.910852962634056" /><line x1="-122.56641910941035" x2="-107.4636831052392" y1="31.896048449555156" y2="35.38278979188507" /><line x1="-119.68704561380886" x2="-104.58430960963771" y1="19.424111620304146" y2="22.910852962634056" /><line x1="-122.56641910941035" x2="-119.68704561380886" y1="31.896048449555156" y2="19.424111620304146" /><line x1="-111.73775313777263" x2="-108.85837964217114" y1="53.89582102280453" y2="41.42388419355352" /><line x1="-126.84048914194378" x2="-111.73775313777263" y1="50.40907968047462" y2="53.89582102280453" /><line x1="-123.9611156463423" x2="-108.85837964217114" y1="37.937142851223605" y2="41.42388419355352" /><line x1="-126.84048914194378" x2="-123.9611156463423" y1="50.40907968047462" y2="37.937142851223605" /><line x1="-117.42857427109179" x2="-114.5492007754903" y1="-5.917342702487306" y2="-18.389279531738318" /><line x1="-132.53131027526294" x2="-117.42857427109179" y1="-9.404084044817218" y2="-5.917342702487306" /><line x1="-129.65193677966147" x2="-114.5492007754903" y1="-21.876020874068228" y2="-18.389279531738318" /><line x1="-132.53131027526294" x2="-129.65193677966147" y1="-9.404084044817218" y2="-21.876020874068228" /><line x1="-121.70264430362523" x2="-118.82327080802375" y1="12.59568852843216" y2="0.12375169918114981" /><line x1="-136.80538030779638" x2="-121.70264430362523" y1="9.108947186102249" y2="12.59568852843216" /><line x1="-133.9260068121949" x2="-118.82327080802375" y1="-3.3629896431487625" y2="0.12375169918114981" /><line x1="-136.80538030779638" x2="-133.9260068121949" y1="9.108947186102249" y2="-3.3629896431487625" /><line x1="-125.97671433615866" x2="-123.09734084055718" y1="31.108719759351626" y2="18.636782930100615" /><line x1="-141.0794503403298" x2="-125.97671433615866" y1="27.621978417021715" y2="31.108719759351626" /><line x1="-138.20007684472833" x2="-123.09734084055718" y1="15.150041587770705" y2="18.636782930100615" /><line x1="-141.0794503403298" x2="-138.20007684472833" y1="27.621978417021715" y2="15.150041587770705" /><line x1="-130.2507843686921" x2="-127.37141087309062" y1="49.621750990271096" y2="37.14981416102008" /><line x1="-145.35352037286324" x2="-130.2507843686921" y1="46.13500964794118" y2="49.621750990271096" /><line x1="-142.47414687726177" x2="-127.37141087309062" y1="33.66307281869017" y2="37.14981416102008" /><line x1="-145.35352037286324" x2="-142.47414687726177" y1="46.13500964794118" y2="33.66307281869017" /><line x1="-137.0101230101446" x2="-134.13074951454314" y1="-5.563154927290884" y2="-18.035091756541895" /><line x1="-152.11285901431575" x2="-137.0101230101446" y1="-9.049896269620795" y2="-5.563154927290884" /><line x1="-149.23348551871428" x2="-134.13074951454314" y1="-21.521833098871806" y2="-18.035091756541895" /><line x1="-152.11285901431575" x2="-149.23348551871428" y1="-9.049896269620795" y2="-21.521833098871806" /><line x1="-141.28419304267806" x2="-138.40481954707658" y1="12.949876303628582" y2="0.477939474377572" /><line x1="-156.3869290468492" x2="-141.28419304267806" y1="9.463134961298671" y2="12.949876303628582" /><line x1="-153.50755555124772" x2="-138.40481954707658" y1="-3.0088018679523403" y2="0.477939474377572" /><line x1="-156.3869290468492" x2="-153.50755555124772" y1="9.463134961298671" y2="-3.0088018679523403" /><line x1="-145.5582630752115" x2="-142.67888957961003" y1="31.462907534548048" y2="18.990970705297038" /><line x1="-160.66099907938263" x2="-145.5582630752115" y1="27.976166192218137" y2="31.462907534548048" /><line x1="-157.78162558378116" x2="-142.67888957961003" y1="15.504229362967127" y2="18.990970705297038" /><line x1="-160.66099907938263" x2="-157.78162558378116" y1="27.976166192218137" y2="15.504229362967127" /><line x1="-149.83233310774494" x2="-146.95295961214347" y1="49.97593876546752" y2="37.504001936216504" /><line x1="-164.93506911191608" x2="-149.83233310774494" y1="46.489197423137604" y2="49.97593876546752" /><line x1="-162.0556956163146" x2="-146.95295961214347" y1="34.01726059388659" y2="37.504001936216504" /><line x1="-164.93506911191608" x2="-162.0556956163146" y1="46.489197423137604" y2="34.01726059388659" /><line x1="-22.72638310022773" x2="-19.84700960462625" y1="6.196491844720166" y2="-6.275444984530845" /><line x1="-37.82911910439887" x2="-22.72638310022773" y1="2.7097505023902535" y2="6.196491844720166" /><line x1="-34.94974560879739" x2="-19.84700960462625" y1="-9.762186326860757" y2="-6.275444984530845" /><line x1="-37.82911910439887" x2="-34.94974560879739" y1="2.7097505023902535" y2="-9.762186326860757" /><line x1="-27.000453132761173" x2="-24.121079637159696" y1="24.70952307563963" y2="12.23758624638862" /><line x1="-42.103189136932315" x2="-27.000453132761173" y1="21.22278173330972" y2="24.70952307563963" /><line x1="-39.22381564133084" x2="-24.121079637159696" y1="8.75084490405871" y2="12.23758624638862" /><line x1="-42.103189136932315" x2="-39.22381564133084" y1="21.22278173330972" y2="8.75084490405871" /><line x1="-31.27452316529461" x2="-28.395149669693133" y1="43.222554306559104" y2="30.75061747730809" /><line x1="-46.37725916946575" x2="-31.27452316529461" y1="39.73581296422919" y2="43.222554306559104" /><line x1="-43.497885673864275" x2="-28.395149669693133" y1="27.26387613497818" y2="30.75061747730809" /><line x1="-46.37725916946575" x2="-43.497885673864275" y1="39.73581296422919" y2="27.26387613497818" /><line x1="-35.548593197828055" x2="-32.66921970222658" y1="61.73558553747857" y2="49.26364870822756" /><line x1="-50.6513292019992" x2="-35.548593197828055" y1="58.248844195148656" y2="61.73558553747857" /><line x1="-47.77195570639772" x2="-32.66921970222658" y1="45.77690736589764" y2="49.26364870822756" /><line x1="-50.6513292019992" x2="-47.77195570639772" y1="58.248844195148656" y2="45.77690736589764" /><line x1="-5.28186937744162" x2="-2.4024958818401423" y1="15.098819684983475" y2="2.6268828557324637" /><line x1="-20.384605381612765" x2="-5.28186937744162" y1="11.612078342653561" y2="15.098819684983475" /><line x1="-17.505231886011288" x2="-2.4024958818401423" y1="-0.8598584865974486" y2="2.6268828557324637" /><line x1="-20.384605381612765" x2="-17.505231886011288" y1="11.612078342653561" y2="-0.8598584865974486" /><line x1="-9.555939409975062" x2="-6.676565914373585" y1="33.61185091590294" y2="21.139914086651928" /><line x1="-24.65867541414621" x2="-9.555939409975062" y1="30.125109573573027" y2="33.61185091590294" /><line x1="-21.779301918544732" x2="-6.676565914373585" y1="17.653172744322017" y2="21.139914086651928" /><line x1="-24.65867541414621" x2="-21.779301918544732" y1="30.125109573573027" y2="17.653172744322017" /><line x1="-13.830009442508503" x2="-10.950635946907026" y1="52.12488214682241" y2="39.652945317571394" /><line x1="-28.932745446679647" x2="-13.830009442508503" y1="48.638140804492494" y2="52.12488214682241" /><line x1="-26.05337195107817" x2="-10.950635946907026" y1="36.16620397524148" y2="39.652945317571394" /><line x1="-28.932745446679647" x2="-26.05337195107817" y1="48.638140804492494" y2="36.16620397524148" /><line x1="-18.104079475041942" x2="-15.224705979440467" y1="70.63791337774187" y2="58.16597654849086" /><line x1="-33.20681547921309" x2="-18.104079475041942" y1="67.15117203541196" y2="70.63791337774187" /><line x1="-30.327441983611614" x2="-15.224705979440467" y1="54.679235206160946" y2="58.16597654849086" /><line x1="-33.20681547921309" x2="-30.327441983611614" y1="67.15117203541196" y2="54.679235206160946" /><line x1="57.61541054579994" x2="54.73603705019846" y1="-11.60816383580644" y2="-24.08010066505745" /><line x1="72.71814654997108" x2="57.61541054579994" y1="-15.09490517813635" y2="-11.60816383580644" /><line x1="69.83877305436961" x2="54.73603705019846" y1="-27.56684200738736" y2="-24.08010066505745" /><line x1="72.71814654997108" x2="69.83877305436961" y1="-15.09490517813635" y2="-27.56684200738736" /><line x1="61.88948057833338" x2="59.0101070827319" y1="6.904867395113026" y2="-5.567069434137984" /><line x1="76.99221658250451" x2="61.88948057833338" y1="3.4181260527831157" y2="6.904867395113026" /><line x1="74.11284308690304" x2="59.0101070827319" y1="-9.053810776467895" y2="-5.567069434137984" /><line x1="76.99221658250451" x2="74.11284308690304" y1="3.4181260527831157" y2="-9.053810776467895" /><line x1="66.16355061086682" x2="63.284177115265344" y1="25.417898626032493" y2="12.945961796781482" /><line x1="81.26628661503796" x2="66.16355061086682" y1="21.931157283702582" y2="25.417898626032493" /><line x1="78.38691311943649" x2="63.284177115265344" y1="9.459220454451572" y2="12.945961796781482" /><line x1="81.26628661503796" x2="78.38691311943649" y1="21.931157283702582" y2="9.459220454451572" /><line x1="70.43762064340025" x2="67.55824714779877" y1="43.93092985695196" y2="31.45899302770095" /><line x1="85.5403566475714" x2="70.43762064340025" y1="40.44418851462205" y2="43.93092985695196" /><line x1="82.66098315196992" x2="67.55824714779877" y1="27.972251685371038" y2="31.45899302770095" /><line x1="85.5403566475714" x2="82.66098315196992" y1="40.44418851462205" y2="27.972251685371038" /><line x1="40.170896823013834" x2="37.29152332741236" y1="-2.7058359955431346" y2="-15.177772824794145" /><line x1="55.273632827184976" x2="40.170896823013834" y1="-6.192577337873045" y2="-2.7058359955431346" /><line x1="52.3942593315835" x2="37.29152332741236" y1="-18.664514167124054" y2="-15.177772824794145" /><line x1="55.273632827184976" x2="52.3942593315835" y1="-6.192577337873045" y2="-18.664514167124054" /><line x1="44.44496685554727" x2="41.565593359945794" y1="15.807195235376332" y2="3.3352584061253214" /><line x1="59.54770285971841" x2="44.44496685554727" y1="12.320453893046421" y2="15.807195235376332" /><line x1="56.668329364116936" x2="41.565593359945794" y1="-0.15148293620458908" y2="3.3352584061253214" /><line x1="59.54770285971841" x2="56.668329364116936" y1="12.320453893046421" y2="-0.15148293620458908" /><line x1="48.71903688808071" x2="45.83966339247923" y1="34.32022646629579" y2="21.848289637044786" /><line x1="63.82177289225185" x2="48.71903688808071" y1="30.833485123965886" y2="34.32022646629579" /><line x1="60.94239939665037" x2="45.83966339247923" y1="18.361548294714876" y2="21.848289637044786" /><line x1="63.82177289225185" x2="60.94239939665037" y1="30.833485123965886" y2="18.361548294714876" /><line x1="52.99310692061415" x2="50.113733425012676" y1="52.83325769721526" y2="40.36132086796425" /><line x1="68.0958429247853" x2="52.99310692061415" y1="49.34651635488535" y2="52.83325769721526" /><line x1="65.21646942918382" x2="50.113733425012676" y1="36.874579525634346" y2="40.36132086796425" /><line x1="68.0958429247853" x2="65.21646942918382" y1="49.34651635488535" y2="36.874579525634346" /><line x1="77.19695928485277" x2="74.3175857892513" y1="-11.253976060610011" y2="-23.72591288986102" /><line x1="92.2996952890239" x2="77.19695928485277" y1="-14.740717402939921" y2="-11.253976060610011" /><line x1="89.42032179342243" x2="74.3175857892513" y1="-27.212654232190932" y2="-23.72591288986102" /><line x1="92.2996952890239" x2="89.42032179342243" y1="-14.740717402939921" y2="-27.212654232190932" /><line x1="81.47102931738621" x2="78.59165582178474" y1="7.2590551703094555" y2="-5.212881658941555" /><line x1="96.57376532155735" x2="81.47102931738621" y1="3.772313827979545" y2="7.2590551703094555" /><line x1="93.69439182595588" x2="78.59165582178474" y1="-8.699623001271465" y2="-5.212881658941555" /><line x1="96.57376532155735" x2="93.69439182595588" y1="3.772313827979545" y2="-8.699623001271465" /><line x1="85.74509934991964" x2="82.86572585431816" y1="25.772086401228922" y2="13.300149571977911" /><line x1="100.84783535409079" x2="85.74509934991964" y1="22.28534505889901" y2="25.772086401228922" /><line x1="97.9684618584893" x2="82.86572585431816" y1="9.813408229648001" y2="13.300149571977911" /><line x1="100.84783535409079" x2="97.9684618584893" y1="22.28534505889901" y2="9.813408229648001" /><line x1="90.01916938245309" x2="87.1397958868516" y1="44.285117632148385" y2="31.813180802897378" /><line x1="105.12190538662423" x2="90.01916938245309" y1="40.79837628981848" y2="44.285117632148385" /><line x1="102.24253189102275" x2="87.1397958868516" y1="28.326439460567467" y2="31.813180802897378" /><line x1="105.12190538662423" x2="102.24253189102275" y1="40.79837628981848" y2="28.326439460567467" /><line x1="98.91554304017231" x2="96.03616954457084" y1="-1.6432726699538485" y2="-14.115209499204859" /><line x1="114.01827904434344" x2="98.91554304017231" y1="-5.130014012283759" y2="-1.6432726699538485" /><line x1="111.13890554874197" x2="96.03616954457084" y1="-17.60195084153477" y2="-14.115209499204859" /><line x1="114.01827904434344" x2="111.13890554874197" y1="-5.130014012283759" y2="-17.60195084153477" /><line x1="103.18961307270575" x2="100.31023957710428" y1="16.869758560965618" y2="4.3978217317146076" /><line x1="118.29234907687689" x2="103.18961307270575" y1="13.383017218635707" y2="16.869758560965618" /><line x1="115.41297558127542" x2="100.31023957710428" y1="0.911080389384697" y2="4.3978217317146076" /><line x1="118.29234907687689" x2="115.41297558127542" y1="13.383017218635707" y2="0.911080389384697" /><line x1="107.46368310523918" x2="104.5843096096377" y1="35.38278979188509" y2="22.910852962634074" /><line x1="122.56641910941033" x2="107.46368310523918" y1="31.896048449555174" y2="35.38278979188509" /><line x1="119.68704561380885" x2="104.5843096096377" y1="19.424111620304163" y2="22.910852962634074" /><line x1="122.56641910941033" x2="119.68704561380885" y1="31.896048449555174" y2="19.424111620304163" /><line x1="111.73775313777263" x2="108.85837964217114" y1="53.895821022804554" y2="41.42388419355354" /><line x1="126.84048914194378" x2="111.73775313777263" y1="50.40907968047464" y2="53.895821022804554" /><line x1="123.9611156463423" x2="108.85837964217114" y1="37.937142851223626" y2="41.42388419355354" /><line x1="126.84048914194378" x2="123.9611156463423" y1="50.40907968047464" y2="37.937142851223626" /><line x1="117.42857427109179" x2="114.5492007754903" y1="-5.917342702487289" y2="-18.3892795317383" /><line x1="132.53131027526294" x2="117.42857427109179" y1="-9.4040840448172" y2="-5.917342702487289" /><line x1="129.65193677966147" x2="114.5492007754903" y1="-21.87602087406821" y2="-18.3892795317383" /><line x1="132.53131027526294" x2="129.65193677966147" y1="-9.4040840448172" y2="-21.87602087406821" /><line x1="121.70264430362523" x2="118.82327080802375" y1="12.595688528432177" y2="0.12375169918116669" /><line x1="136.80538030779638" x2="121.70264430362523" y1="9.108947186102267" y2="12.595688528432177" /><line x1="133.9260068121949" x2="118.82327080802375" y1="-3.362989643148744" y2="0.12375169918116669" /><line x1="136.80538030779638" x2="133.9260068121949" y1="9.108947186102267" y2="-3.362989643148744" /><line x1="125.97671433615866" x2="123.0973408405572" y1="31.108719759351644" y2="18.636782930100633" /><line x1="141.0794503403298" x2="125.97671433615866" y1="27.621978417021733" y2="31.108719759351644" /><line x1="138.20007684472833" x2="123.0973408405572" y1="15.150041587770723" y2="18.636782930100633" /><line x1="141.0794503403298" x2="138.20007684472833" y1="27.621978417021733" y2="15.150041587770723" /><line x1="130.2507843686921" x2="127.37141087309064" y1="49.62175099027111" y2="37.1498141610201" /><line x1="145.35352037286324" x2="130.2507843686921" y1="46.1350096479412" y2="49.62175099027111" /><line x1="142.47414687726177" x2="127.37141087309064" y1="33.663072818690196" y2="37.1498141610201" /><line x1="145.35352037286324" x2="142.47414687726177" y1="46.1350096479412" y2="33.663072818690196" /><line x1="137.0101230101446" x2="134.13074951454314" y1="-5.5631549272908565" y2="-18.035091756541867" /><line x1="152.11285901431575" x2="137.0101230101446" y1="-9.049896269620767" y2="-5.5631549272908565" /><line x1="149.23348551871428" x2="134.13074951454314" y1="-21.521833098871777" y2="-18.035091756541867" /><line x1="152.11285901431575" x2="149.23348551871428" y1="-9.049896269620767" y2="-21.521833098871777" /><line x1="141.28419304267806" x2="138.40481954707658" y1="12.94987630362861" y2="0.47793947437759954" /><line x1="156.3869290468492" x2="141.28419304267806" y1="9.4631349612987" y2="12.94987630362861" /><line x1="153.50755555124772" x2="138.40481954707658" y1="-3.008801867952311" y2="0.47793947437759954" /><line x1="156.3869290468492" x2="153.50755555124772" y1="9.4631349612987" y2="-3.008801867952311" /><line x1="145.5582630752115" x2="142.67888957961003" y1="31.462907534548076" y2="18.990970705297066" /><line x1="160.66099907938263" x2="145.5582630752115" y1="27.976166192218166" y2="31.462907534548076" /><line x1="157.78162558378116" x2="142.67888957961003" y1="15.504229362967155" y2="18.990970705297066" /><line x1="160.66099907938263" x2="157.78162558378116" y1="27.976166192218166" y2="15.504229362967155" /><line x1="149.83233310774492" x2="146.95295961214345" y1="49.975938765467546" y2="37.50400193621653" /><line x1="164.93506911191605" x2="149.83233310774492" y1="46.48919742313763" y2="49.975938765467546" /><line x1="162.05569561631458" x2="146.95295961214345" y1="34.01726059388662" y2="37.50400193621653" /><line x1="164.93506911191605" x2="162.05569561631458" y1="46.48919742313763" y2="34.01726059388662" /><line x1="22.726383100227725" x2="19.84700960462625" y1="6.196491844720169" y2="-6.275444984530841" /><line x1="37.82911910439887" x2="22.726383100227725" y1="2.709750502390259" y2="6.196491844720169" /><line x1="34.94974560879739" x2="19.84700960462625" y1="-9.762186326860752" y2="-6.275444984530841" /><line x1="37.82911910439887" x2="34.94974560879739" y1="2.709750502390259" y2="-9.762186326860752" /><line x1="27.000453132761162" x2="24.12107963715969" y1="24.709523075639634" y2="12.237586246388624" /><line x1="42.10318913693231" x2="27.000453132761162" y1="21.222781733309724" y2="24.709523075639634" /><line x1="39.22381564133083" x2="24.12107963715969" y1="8.750844904058713" y2="12.237586246388624" /><line x1="42.10318913693231" x2="39.22381564133083" y1="21.222781733309724" y2="8.750844904058713" /><line x1="31.2745231652946" x2="28.395149669693126" y1="43.222554306559104" y2="30.75061747730809" /><line x1="46.377259169465745" x2="31.2745231652946" y1="39.73581296422919" y2="43.222554306559104" /><line x1="43.49788567386427" x2="28.395149669693126" y1="27.26387613497818" y2="30.75061747730809" /><line x1="46.377259169465745" x2="43.49788567386427" y1="39.73581296422919" y2="27.26387613497818" /><line x1="35.54859319782804" x2="32.66921970222656" y1="61.73558553747857" y2="49.26364870822756" /><line x1="50.65132920199918" x2="35.54859319782804" y1="58.248844195148656" y2="61.73558553747857" /><line x1="47.771955706397705" x2="32.66921970222656" y1="45.77690736589764" y2="49.26364870822756" /><line x1="50.65132920199918" x2="47.771955706397705" y1="58.248844195148656" y2="45.77690736589764" /><line x1="5.281869377441617" x2="2.4024958818401423" y1="15.098819684983475" y2="2.6268828557324646" /><line x1="20.38460538161276" x2="5.281869377441617" y1="11.612078342653565" y2="15.098819684983475" /><line x1="17.505231886011288" x2="2.4024958818401423" y1="-0.8598584865974459" y2="2.6268828557324646" /><line x1="20.38460538161276" x2="17.505231886011288" y1="11.612078342653565" y2="-0.8598584865974459" /><line x1="9.555939409975053" x2="6.67656591437358" y1="33.61185091590294" y2="21.13991408665193" /><line x1="24.6586754141462" x2="9.555939409975053" y1="30.12510957357303" y2="33.61185091590294" /><line x1="21.779301918544725" x2="6.67656591437358" y1="17.65317274432202" y2="21.13991408665193" /><line x1="24.6586754141462" x2="21.779301918544725" y1="30.12510957357303" y2="17.65317274432202" /><line x1="13.830009442508494" x2="10.95063594690702" y1="52.1248821468224" y2="39.652945317571394" /><line x1="28.93274544667964" x2="13.830009442508494" y1="48.638140804492494" y2="52.1248821468224" /><line x1="26.053371951078166" x2="10.95063594690702" y1="36.16620397524149" y2="39.652945317571394" /><line x1="28.93274544667964" x2="26.053371951078166" y1="48.638140804492494" y2="36.16620397524149" /><line x1="18.10407947504193" x2="15.224705979440458" y1="70.63791337774187" y2="58.16597654849086" /><line x1="33.20681547921308" x2="18.10407947504193" y1="67.15117203541196" y2="70.63791337774187" /><line x1="30.327441983611603" x2="15.224705979440458" y1="54.67923520616095" y2="58.16597654849086" /><line x1="33.20681547921308" x2="30.327441983611603" y1="67.15117203541196" y2="54.67923520616095" /></svg>