<?xml version="1.0" encoding="utf-8" ?>
<svg baseProfile="full" height="100%" version="1.1" viewBox="-198.366101 -77.500000 396.732203 224.511598" width="100%" xmlns="http://www.w3.org/2000/svg" xmlns:ev="http://www.w3.org/2001/xml-events" xmlns:xlink="http://www.w3.org/1999/xlink"><defs /><style type="text/css"><![CDATA[svg {
  stroke: black;  stroke-width: 0.25;  fill: none;}]]></style><path d="M -143.6341734071064 -67.5 A 9.5 9.5 0 0,0 -152.89068902256614 -60.13703501626672" /><line x1="-143.6341734071064" x2="143.6341734071063" y1="-67.5" y2="-67.5" /><path d="M 152.89068902256602 -60.13703501626671 A 9.5 9.5 0 0,0 143.63417340710632 -67.5" /><line x1="188.3661012825067" x2="1.13686837721616e-13" y1="93.52385731795106" y2="137.0115983904176" /><line x1="1.13686837721616e-13" x2="-188.3661012825067" y1="137.0115983904176" y2="93.52385731795093" /><line x1="-188.3661012825067" x2="-152.8906890225661" y1="93.52385731795094" y2="-60.13703501626672" /><line x1="152.890689022566" x2="188.3661012825067" y1="-60.13703501626671" y2="93.52385731795106" /><path d="M 80.96012972375837 113.9586872296808 L 49.00079159880266 121.3370818121596 L -49.00079159880266 121.3370818121596 L -80.96012972375837 113.9586872296808 L -74.54902467495816 86.1891403833016 L -171.7424386372854 63.75027271250103 L -143.6341734071064 -58.0 L 143.6341734071063 -58.0 L 171.7424386372853 63.75027271250105 L 74.5490246749581 86.18914038330163 L 80.96012972375837 113.9586872296808" /><circle cx="182.6693259666435" cy="89.96411701835456" r="1.6" /><circle cx="1.13686837721616e-13" cy="132.136653878399" r="1.6" /><circle cx="-182.6693259666435" cy="89.96411701835456" r="1.6" /><circle cx="146.5911179311346" cy="-61.71738874504855" r="1.6" /><circle cx="49.13749800375967" cy="-62.75" r="1.6" /><circle cx="-49.13749800375908" cy="-62.75" r="1.6" /><circle cx="-146.5911179311346" cy="-61.71738874504855" r="1.6" /><line x1="-156.34086716456594" x2="-150.65908369070584" y1="75.20854728890819" y2="76.52029036188537" /><line x1="-150.65908369070584" x2="-148.9541947782123" y1="76.52029036188537" y2="82.09673072553942" /><line x1="-152.93108933957888" x2="-148.9541947782123" y1="86.36142801621625" y2="82.09673072553942" /><line x1="-158.612872813439" x2="-152.93108933957888" y1="85.04968494323906" y2="86.36142801621625" /><line x1="-160.3177617259325" x2="-156.34086716456594" y1="79.47324457958503" y2="75.20854728890819" /><line x1="-160.3177617259325" x2="-158.612872813439" y1="79.47324457958503" y2="85.04968494323906" /><line x1="-97.55591515991046" x2="-95.85102624741693" y1="88.78012282362602" y2="94.35656318728007" /><line x1="-99.82792080878349" x2="-95.85102624741693" y1="98.6212604779569" y2="94.35656318728007" /><line x1="-105.50970428264361" x2="-99.82792080878349" y1="97.3095174049797" y2="98.6212604779569" /><line x1="-107.21459319513711" x2="-105.50970428264361" y1="91.73307704132571" y2="97.3095174049797" /><line x1="-103.23769863377052" x2="-97.55591515991046" y1="87.46837975064884" y2="88.78012282362602" /><line x1="-107.21459319513711" x2="-103.23769863377052" y1="91.73307704132571" y2="87.46837975064884" /><line x1="156.34086716456594" x2="150.65908369070584" y1="75.20854728890819" y2="76.52029036188537" /><line x1="150.65908369070584" x2="148.9541947782123" y1="76.52029036188537" y2="82.09673072553942" /><line x1="152.93108933957888" x2="148.9541947782123" y1="86.36142801621625" y2="82.09673072553942" /><line x1="158.612872813439" x2="152.93108933957888" y1="85.04968494323906" y2="86.36142801621625" /><line x1="160.3177617259325" x2="156.34086716456594" y1="79.47324457958503" y2="75.20854728890819" /><line x1="160.3177617259325" x2="158.612872813439" y1="79.47324457958503" y2="85.04968494323906" /><line x1="97.55591515991046" x2="95.85102624741694" y1="88.78012282362602" y2="94.35656318728006" /><line x1="99.8279208087835" x2="95.85102624741694" y1="98.62126047795688" y2="94.35656318728006" /><line x1="105.50970428264361" x2="99.8279208087835" y1="97.30951740497969" y2="98.62126047795688" /><line x1="107.21459319513711" x2="105.50970428264361" y1="91.73307704132569" y2="97.30951740497969" /><line x1="103.23769863377052" x2="97.55591515991046" y1="87.46837975064884" y2="88.78012282362602" /><line x1="107.21459319513711" x2="103.23769863377052" y1="91.73307704132569" y2="87.46837975064884" /></svg>