999
dxfrw 0.6.3
  0
SECTION
  2
HEADER
  9
$ACADVER
  1
AC1021
  9
$DWGCODEPAGE
  3
ANSI_1252
  9
$INSBASE
 10
0
 20
0
 30
0
  9
$EXTMIN
 10
-196.8011690055172
 20
-147.0247504443143
 30
0
  9
$EXTMAX
 10
191.7207087791733
 20
173.8281873855171
 30
0
  9
$LIMMIN
 10
0
 20
0
  9
$LIMMAX
 10
420
 20
297
  9
$ORTHOMODE
 70
    0
  9
$REGENMODE
 70
    1
  9
$FILLMODE
 70
    1
  9
$QTEXTMODE
 70
    0
  9
$MIRRTEXT
 70
    0
  9
$LTSCALE
 40
1
  9
$ATTMODE
 70
    0
  9
$TEXTSIZE
 40
2.5
  9
$TRACEWID
 40
15.68
  9
$TEXTSTYLE
  7
STANDARD
  9
$CLAYER
  8
0
  9
$CELTYPE
  6
BYLAYER
  9
$CECOLOR
 62
  256
  9
$CELTSCALE
 40
1
  9
$DISPSILH
 70
    0
  9
$DIMSCALE
 40
1
  9
$DIMASZ
 40
2.5
  9
$DIMEXO
 40
0.625
  9
$DIMDLI
 40
3.75
  9
$DIMRND
 40
0
  9
$DIMDLE
 40
0
  9
$DIMEXE
 40
1.25
  9
$DIMTP
 40
0
  9
$DIMTM
 40
0
  9
$DIMTXT
 40
2.5
  9
$DIMCEN
 40
2.5
  9
$DIMTSZ
 40
0
  9
$DIMTOL
 70
    0
  9
$DIMLIM
 70
    0
  9
$DIMTIH
 70
    0
  9
$DIMTOH
 70
    0
  9
$DIMSE1
 70
    0
  9
$DIMSE2
 70
    0
  9
$DIMTAD
 70
    1
  9
$DIMZIN
 70
    8
  9
$DIMBLK
  1

  9
$DIMASO
 70
    1
  9
$DIMSHO
 70
    1
  9
$DIMPOST
  1

  9
$DIMAPOST
  1

  9
$DIMALT
 70
    0
  9
$DIMALTD
 70
    3
  9
$DIMALTF
 40
0.03937
  9
$DIMLFAC
 40
1
  9
$DIMTOFL
 70
    1
  9
$DIMTVP
 40
0
  9
$DIMTIX
 70
    0
  9
$DIMSOXD
 70
    0
  9
$DIMSAH
 70
    0
  9
$DIMBLK1
  1

  9
$DIMBLK2
  1

  9
$DIMSTYLE
  2
STANDARD
  9
$DIMCLRD
 70
    0
  9
$DIMCLRE
 70
    0
  9
$DIMCLRT
 70
    0
  9
$DIMTFAC
 40
1
  9
$DIMGAP
 40
0.625
  9
$DIMJUST
 70
    0
  9
$DIMSD1
 70
    0
  9
$DIMSD2
 70
    0
  9
$DIMTOLJ
 70
    0
  9
$DIMTZIN
 70
    8
  9
$DIMALTZ
 70
    0
  9
$DIMALTTZ
 70
    0
  9
$DIMUPT
 70
    0
  9
$DIMDEC
 70
    2
  9
$DIMTDEC
 70
    2
  9
$DIMALTU
 70
    2
  9
$DIMALTTD
 70
    3
  9
$DIMTXSTY
  7
standard
  9
$DIMAUNIT
 70
    0
  9
$DIMADEC
 70
    2
  9
$DIMALTRND
 40
0
  9
$DIMAZIN
 70
    0
  9
$DIMDSEP
 70
    0
  9
$DIMATFIT
 70
    3
  9
$DIMFRAC
 70
    0
  9
$DIMLDRBLK
  1
STANDARD
  9
$DIMLUNIT
 70
    2
  9
$DIMLWD
 70
   -2
  9
$DIMLWE
 70
   -2
  9
$DIMTMOVE
 70
    0
  9
$DIMFXL
 40
1
  9
$DIMFXLON
 70
    0
  9
$DIMJOGANG
 40
0.7854
  9
$DIMTFILL
 70
    0
  9
$DIMTFILLCLR
 70
    0
  9
$DIMARCSYM
 70
    0
  9
$DIMLTYPE
  6

  9
$DIMLTEX1
  6

  9
$DIMLTEX2
  6

  9
$LUNITS
 70
    2
  9
$LUPREC
 70
    2
  9
$SKETCHINC
 40
1
  9
$FILLETRAD
 40
0
  9
$AUNITS
 70
    0
  9
$AUPREC
 70
    2
  9
$MENU
  1
.
  9
$ELEVATION
 40
0
  9
$PELEVATION
 40
0
  9
$THICKNESS
 40
0
  9
$LIMCHECK
 70
    0
  9
$CHAMFERA
 40
0
  9
$CHAMFERB
 40
0
  9
$CHAMFERC
 40
0
  9
$CHAMFERD
 40
0
  9
$SKPOLY
 70
    0
  9
$USRTIMER
 70
    1
  9
$ANGBASE
 50
0
  9
$ANGDIR
 70
    0
  9
$PDMODE
 70
   34
  9
$PDSIZE
 40
0
  9
$PLINEWID
 40
0
  9
$SPLFRAME
 70
    0
  9
$SPLINETYPE
 70
    2
  9
$SPLINESEGS
 70
    8
  9
$HANDSEED
  5
20000
  9
$SURFTAB1
 70
    6
  9
$SURFTAB2
 70
    6
  9
$SURFTYPE
 70
    6
  9
$SURFU
 70
    6
  9
$SURFV
 70
    6
  9
$UCSBASE
  2

  9
$UCSNAME
  2

  9
$UCSORG
 10
0
 20
0
 30
0
  9
$UCSXDIR
 10
1
 20
0
 30
0
  9
$UCSYDIR
 10
0
 20
1
 30
0
  9
$UCSORTHOREF
  2

  9
$UCSORTHOVIEW
 70
    0
  9
$UCSORGTOP
 10
0
 20
0
 30
0
  9
$UCSORGBOTTOM
 10
0
 20
0
 30
0
  9
$UCSORGLEFT
 10
0
 20
0
 30
0
  9
$UCSORGRIGHT
 10
0
 20
0
 30
0
  9
$UCSORGFRONT
 10
0
 20
0
 30
0
  9
$UCSORGBACK
 10
0
 20
0
 30
0
  9
$PUCSBASE
  2

  9
$PUCSNAME
  2

  9
$PUCSORG
 10
0
 20
0
 30
0
  9
$PUCSXDIR
 10
1
 20
0
 30
0
  9
$PUCSYDIR
 10
0
 20
1
 30
0
  9
$PUCSORTHOREF
  2

  9
$PUCSORTHOVIEW
 70
    0
  9
$PUCSORGTOP
 10
0
 20
0
 30
0
  9
$PUCSORGBOTTOM
 10
0
 20
0
 30
0
  9
$PUCSORGLEFT
 10
0
 20
0
 30
0
  9
$PUCSORGRIGHT
 10
0
 20
0
 30
0
  9
$PUCSORGFRONT
 10
0
 20
0
 30
0
  9
$PUCSORGBACK
 10
0
 20
0
 30
0
  9
$USERI1
 70
    0
  9
$USERI2
 70
    0
  9
$USERI3
 70
    0
  9
$USERI4
 70
    0
  9
$USERI5
 70
    0
  9
$USERR1
 40
0
  9
$USERR2
 40
0
  9
$USERR3
 40
0
  9
$USERR4
 40
0
  9
$USERR5
 40
0
  9
$WORLDVIEW
 70
    1
  9
$SHADEDGE
 70
    3
  9
$SHADEDIF
 70
   70
  9
$TILEMODE
 70
    1
  9
$MAXACTVP
 70
   64
  9
$PINSBASE
 10
0
 20
0
 30
0
  9
$PLIMCHECK
 70
    0
  9
$PEXTMIN
 10
0
 20
0
 30
0
  9
$PEXTMAX
 10
0
 20
0
 30
0
  9
$GRIDMODE
 70
    1
  9
$SNAPSTYLE
 70
    0
  9
$GRIDUNIT
 10
4.75
 20
4.75
  9
$PLIMMIN
 10
0
 20
0
  9
$PLIMMAX
 10
297
 20
210
  9
$UNITMODE
 70
    0
  9
$VISRETAIN
 70
    1
  9
$PLINEGEN
 70
    0
  9
$PSLTSCALE
 70
    1
  9
$TREEDEPTH
 70
 3020
  9
$CMLSTYLE
  2
Standard
  9
$CMLJUST
 70
    0
  9
$CMLSCALE
 40
20
  9
$PROXYGRAPHICS
 70
    1
  9
$MEASUREMENT
 70
    1
  9
$CELWEIGHT
370
   -1
  9
$ENDCAPS
280
    0
  9
$JOINSTYLE
280
    0
  9
$LWDISPLAY
290
    0
  9
$INSUNITS
 70
    4
  9
$HYPERLINKBASE
  1

  9
$STYLESHEET
  1

  9
$XEDIT
290
    1
  9
$CEPSNTYPE
380
    0
  9
$PSTYLEMODE
290
    1
  9
$EXTNAMES
290
    1
  9
$PSVPSCALE
 40
1
  9
$OLESTARTUP
290
    0
  9
$SORTENTS
280
  127
  9
$INDEXCTL
280
    0
  9
$HIDETEXT
280
    1
  9
$XCLIPFRAME
290
    0
  9
$HALOGAP
280
    0
  9
$OBSCOLOR
 70
  257
  9
$OBSLTYPE
280
    0
  9
$INTERSECTIONDISPLAY
280
    0
  9
$INTERSECTIONCOLOR
 70
  257
  9
$DIMASSOC
280
    1
  9
$PROJECTNAME
  1

  9
$CAMERADISPLAY
290
    0
  9
$LENSLENGTH
 40
50
  9
$CAMERAHEIGHT
 40
0
  9
$STEPSPERSEC
 40
2
  9
$STEPSIZE
 40
50
  9
$3DDWFPREC
 40
2
  9
$PSOLWIDTH
 40
5
  9
$PSOLHEIGHT
 40
80
  9
$LOFTANG1
 40
1.570796326794897
  9
$LOFTANG2
 40
1.570796326794897
  9
$LOFTMAG1
 40
0
  9
$LOFTMAG2
 40
0
  9
$LOFTPARAM
 70
    7
  9
$LOFTNORMALS
280
    1
  9
$LATITUDE
 40
1
  9
$LONGITUDE
 40
1
  9
$NORTHDIRECTION
 40
0
  9
$TIMEZONE
 70
-8000
  9
$LIGHTGLYPHDISPLAY
280
    1
  9
$TILEMODELIGHTSYNCH
280
    1
  9
$SOLIDHIST
280
    1
  9
$SHOWHIST
280
    1
  9
$DWFFRAME
280
    2
  9
$DGNFRAME
280
    0
  9
$REALWORLDSCALE
290
    1
  9
$INTERFERECOLOR
 62
    1
  9
$CSHADOW
280
    0
  9
$SHADOWPLANELOCATION
 40
0
  0
ENDSEC
  0
SECTION
  2
CLASSES
  0
ENDSEC
  0
SECTION
  2
TABLES
  0
TABLE
  2
VPORT
  5
8
330
0
100
AcDbSymbolTable
 70
    1
  0
VPORT
  5
31
330
2
100
AcDbSymbolTableRecord
100
AcDbViewportTableRecord
  2
*ACTIVE
 70
    0
 10
0
 20
0
 11
1
 21
1
 12
182.5615200639846
 22
50.48258737660973
 13
0
 23
0
 14
10
 24
10
 15
4.75
 25
4.75
 16
0
 26
0
 36
1
 17
0
 27
0
 37
0
 40
313.1980931120277
 41
2.252631578947368
 42
50
 43
0
 44
0
 50
0
 51
0
 71
    0
 72
  100
 73
    1
 74
    3
 75
    0
 76
    1
 77
    0
 78
    0
281
    0
 65
    1
110
0
120
0
130
0
111
1
121
0
131
0
112
0
122
1
132
0
 79
    0
146
0
348
10020
 60
    3
 61
    5
292
1
282
    1
141
0
142
0
 63
  250
421
3358443
  0
ENDTAB
  0
TABLE
  2
LTYPE
  5
5
330
0
100
AcDbSymbolTable
 70
    4
  0
LTYPE
  5
14
330
5
100
AcDbSymbolTableRecord
100
AcDbLinetypeTableRecord
  2
ByBlock
 70
    0
  3

 72
   65
 73
    0
 40
0
  0
LTYPE
  5
15
330
5
100
AcDbSymbolTableRecord
100
AcDbLinetypeTableRecord
  2
ByLayer
 70
    0
  3

 72
   65
 73
    0
 40
0
  0
LTYPE
  5
16
330
5
100
AcDbSymbolTableRecord
100
AcDbLinetypeTableRecord
  2
Continuous
 70
    0
  3
Solid line
 72
   65
 73
    0
 40
0
  0
LTYPE
  5
32
330
5
100
AcDbSymbolTableRecord
100
AcDbLinetypeTableRecord
  2
DOT
 70
    0
  3
Dot . . . . . . . . . . . . . . . . . . . . . .
 72
   65
 73
    2
 40
6.35
 49
0
 74
    0
 49
-6.35
 74
    0
  0
LTYPE
  5
33
330
5
100
AcDbSymbolTableRecord
100
AcDbLinetypeTableRecord
  2
DOTTINY
 70
    0
  3
Dot (.15x) .....................................
 72
   65
 73
    2
 40
0.9525
 49
0
 74
    0
 49
-0.9525
 74
    0
  0
LTYPE
  5
34
330
5
100
AcDbSymbolTableRecord
100
AcDbLinetypeTableRecord
  2
DOT2
 70
    0
  3
Dot (.5x) .....................................
 72
   65
 73
    2
 40
3.175
 49
0
 74
    0
 49
-3.175
 74
    0
  0
LTYPE
  5
35
330
5
100
AcDbSymbolTableRecord
100
AcDbLinetypeTableRecord
  2
DOTX2
 70
    0
  3
Dot (2x) .  .  .  .  .  .  .  .  .  .  .  .  .
 72
   65
 73
    2
 40
12.7
 49
0
 74
    0
 49
-12.7
 74
    0
  0
LTYPE
  5
36
330
5
100
AcDbSymbolTableRecord
100
AcDbLinetypeTableRecord
  2
DASHED
 70
    0
  3
Dashed _ _ _ _ _ _ _ _ _ _ _ _ _ _ _ _ _
 72
   65
 73
    2
 40
19.05
 49
12.7
 74
    0
 49
-6.35
 74
    0
  0
LTYPE
  5
37
330
5
100
AcDbSymbolTableRecord
100
AcDbLinetypeTableRecord
  2
DASHEDTINY
 70
    0
  3
Dashed (.15x) _ _ _ _ _ _ _ _ _ _ _ _ _ _ _ _ _
 72
   65
 73
    2
 40
2.8575
 49
1.905
 74
    0
 49
-0.9525
 74
    0
  0
LTYPE
  5
38
330
5
100
AcDbSymbolTableRecord
100
AcDbLinetypeTableRecord
  2
DASHED2
 70
    0
  3
Dashed (.5x) _ _ _ _ _ _ _ _ _ _ _ _ _ _ _ _ _
 72
   65
 73
    2
 40
9.524999999999999
 49
6.35
 74
    0
 49
-3.175
 74
    0
  0
LTYPE
  5
39
330
5
100
AcDbSymbolTableRecord
100
AcDbLinetypeTableRecord
  2
DASHEDX2
 70
    0
  3
Dashed (2x) ____  ____  ____  ____  ____  ___
 72
   65
 73
    2
 40
38.09999999999999
 49
25.4
 74
    0
 49
-12.7
 74
    0
  0
LTYPE
  5
3A
330
5
100
AcDbSymbolTableRecord
100
AcDbLinetypeTableRecord
  2
DASHDOT
 70
    0
  3
Dash dot __ . __ . __ . __ . __ . __ . __ . __
 72
   65
 73
    4
 40
25.4
 49
12.7
 74
    0
 49
-6.35
 74
    0
 49
0
 74
    0
 49
-6.35
 74
    0
  0
LTYPE
  5
3B
330
5
100
AcDbSymbolTableRecord
100
AcDbLinetypeTableRecord
  2
DASHDOTTINY
 70
    0
  3
Dash dot (.15x) _._._._._._._._._._._._._._._.
 72
   65
 73
    4
 40
3.81
 49
1.905
 74
    0
 49
-0.9525
 74
    0
 49
0
 74
    0
 49
-0.9525
 74
    0
  0
LTYPE
  5
3C
330
5
100
AcDbSymbolTableRecord
100
AcDbLinetypeTableRecord
  2
DASHDOT2
 70
    0
  3
Dash dot (.5x) _._._._._._._._._._._._._._._.
 72
   65
 73
    4
 40
12.7
 49
6.35
 74
    0
 49
-3.175
 74
    0
 49
0
 74
    0
 49
-3.175
 74
    0
  0
LTYPE
  5
3D
330
5
100
AcDbSymbolTableRecord
100
AcDbLinetypeTableRecord
  2
DASHDOTX2
 70
    0
  3
Dash dot (2x) ____  .  ____  .  ____  .  ___
 72
   65
 73
    4
 40
50.8
 49
25.4
 74
    0
 49
-12.7
 74
    0
 49
0
 74
    0
 49
-12.7
 74
    0
  0
LTYPE
  5
3E
330
5
100
AcDbSymbolTableRecord
100
AcDbLinetypeTableRecord
  2
DIVIDE
 70
    0
  3
Divide ____ . . ____ . . ____ . . ____ . . ____
 72
   65
 73
    6
 40
31.75
 49
12.7
 74
    0
 49
-6.35
 74
    0
 49
0
 74
    0
 49
-6.35
 74
    0
 49
0
 74
    0
 49
-6.35
 74
    0
  0
LTYPE
  5
3F
330
5
100
AcDbSymbolTableRecord
100
AcDbLinetypeTableRecord
  2
DIVIDETINY
 70
    0
  3
Divide (.15x) __..__..__..__..__..__..__..__.._
 72
   65
 73
    6
 40
4.7625
 49
1.905
 74
    0
 49
-0.9525
 74
    0
 49
0
 74
    0
 49
-0.9525
 74
    0
 49
0
 74
    0
 49
-0.9525
 74
    0
  0
LTYPE
  5
40
330
5
100
AcDbSymbolTableRecord
100
AcDbLinetypeTableRecord
  2
DIVIDE2
 70
    0
  3
Divide (.5x) __..__..__..__..__..__..__..__.._
 72
   65
 73
    6
 40
15.875
 49
6.35
 74
    0
 49
-3.175
 74
    0
 49
0
 74
    0
 49
-3.175
 74
    0
 49
0
 74
    0
 49
-3.175
 74
    0
  0
LTYPE
  5
41
330
5
100
AcDbSymbolTableRecord
100
AcDbLinetypeTableRecord
  2
DIVIDEX2
 70
    0
  3
Divide (2x) ________  .  .  ________  .  .  _
 72
   65
 73
    6
 40
63.5
 49
25.4
 74
    0
 49
-12.7
 74
    0
 49
0
 74
    0
 49
-12.7
 74
    0
 49
0
 74
    0
 49
-12.7
 74
    0
  0
LTYPE
  5
42
330
5
100
AcDbSymbolTableRecord
100
AcDbLinetypeTableRecord
  2
BORDER
 70
    0
  3
Border __ __ . __ __ . __ __ . __ __ . __ __ .
 72
   65
 73
    6
 40
44.45
 49
12.7
 74
    0
 49
-6.35
 74
    0
 49
12.7
 74
    0
 49
-6.35
 74
    0
 49
0
 74
    0
 49
-6.35
 74
    0
  0
LTYPE
  5
43
330
5
100
AcDbSymbolTableRecord
100
AcDbLinetypeTableRecord
  2
BORDERTINY
 70
    0
  3
Border (.15x) __.__.__.__.__.__.__.__.__.__.__.
 72
   65
 73
    6
 40
6.6675
 49
1.905
 74
    0
 49
-0.9525
 74
    0
 49
1.905
 74
    0
 49
-0.9525
 74
    0
 49
0
 74
    0
 49
-0.9525
 74
    0
  0
LTYPE
  5
44
330
5
100
AcDbSymbolTableRecord
100
AcDbLinetypeTableRecord
  2
BORDER2
 70
    0
  3
Border (.5x) __.__.__.__.__.__.__.__.__.__.__.
 72
   65
 73
    6
 40
22.225
 49
6.35
 74
    0
 49
-3.175
 74
    0
 49
6.35
 74
    0
 49
-3.175
 74
    0
 49
0
 74
    0
 49
-3.175
 74
    0
  0
LTYPE
  5
45
330
5
100
AcDbSymbolTableRecord
100
AcDbLinetypeTableRecord
  2
BORDERX2
 70
    0
  3
Border (2x) ____  ____  .  ____  ____  .  ___
 72
   65
 73
    6
 40
88.89999999999999
 49
25.4
 74
    0
 49
-12.7
 74
    0
 49
25.4
 74
    0
 49
-12.7
 74
    0
 49
0
 74
    0
 49
-12.7
 74
    0
  0
LTYPE
  5
46
330
5
100
AcDbSymbolTableRecord
100
AcDbLinetypeTableRecord
  2
CENTER
 70
    0
  3
Center ____ _ ____ _ ____ _ ____ _ ____ _ ____
 72
   65
 73
    4
 40
50.8
 49
31.75
 74
    0
 49
-6.35
 74
    0
 49
6.35
 74
    0
 49
-6.35
 74
    0
  0
LTYPE
  5
47
330
5
100
AcDbSymbolTableRecord
100
AcDbLinetypeTableRecord
  2
CENTERTINY
 70
    0
  3
Center (.15x) ___ _ ___ _ ___ _ ___ _ ___ _ ___
 72
   65
 73
    4
 40
7.619999999999999
 49
4.7625
 74
    0
 49
-0.9525
 74
    0
 49
0.9525
 74
    0
 49
-0.9525
 74
    0
  0
LTYPE
  5
48
330
5
100
AcDbSymbolTableRecord
100
AcDbLinetypeTableRecord
  2
CENTER2
 70
    0
  3
Center (.5x) ___ _ ___ _ ___ _ ___ _ ___ _ ___
 72
   65
 73
    4
 40
28.575
 49
19.05
 74
    0
 49
-3.175
 74
    0
 49
3.175
 74
    0
 49
-3.175
 74
    0
  0
LTYPE
  5
49
330
5
100
AcDbSymbolTableRecord
100
AcDbLinetypeTableRecord
  2
CENTERX2
 70
    0
  3
Center (2x) ________  __  ________  __  _____
 72
   65
 73
    4
 40
101.6
 49
63.5
 74
    0
 49
-12.7
 74
    0
 49
12.7
 74
    0
 49
-12.7
 74
    0
  0
ENDTAB
  0
TABLE
  2
LAYER
  5
2
330
0
100
AcDbSymbolTable
 70
    1
  0
LAYER
  5
10
330
2
100
AcDbSymbolTableRecord
100
AcDbLayerTableRecord
  2
0
 70
    0
 62
    7
  6
CONTINUOUS
370
    0
390
F
  0
LAYER
  5
4A
330
2
100
AcDbSymbolTableRecord
100
AcDbLayerTableRecord
  2
Bottom
 70
    0
 62
   20
420
15673641
  6
CONTINUOUS
370
    0
390
F
  0
LAYER
  5
4B
330
2
100
AcDbSymbolTableRecord
100
AcDbLayerTableRecord
  2
Case
 70
    0
 62
  253
420
11370408
  6
CONTINUOUS
370
    0
390
F
  0
LAYER
  5
4C
330
2
100
AcDbSymbolTableRecord
100
AcDbLayerTableRecord
  2
Case lower
 70
    0
 62
  153
420
7512015
  6
CONTINUOUS
370
    0
390
F
  0
LAYER
  5
4D
330
2
100
AcDbSymbolTableRecord
100
AcDbLayerTableRecord
  2
Case upper
 70
    0
 62
   83
420
9101876
  6
CONTINUOUS
370
    0
390
F
  0
LAYER
  5
4E
330
2
100
AcDbSymbolTableRecord
100
AcDbLayerTableRecord
  2
Construction: Case screws: corners
 70
    0
 62
    9
  6
CONTINUOUS
370
    0
390
F
  0
LAYER
  5
4F
330
2
100
AcDbSymbolTableRecord
100
AcDbLayerTableRecord
  2
Construction: Case screws: top
 70
    0
 62
    9
  6
CONTINUOUS
370
    0
390
F
  0
LAYER
  5
50
330
2
100
AcDbSymbolTableRecord
100
AcDbLayerTableRecord
  2
Construction: LED placement
 70
    0
 62
    9
  6
CONTINUOUS
370
    0
390
F
  0
LAYER
  5
51
330
2
100
AcDbSymbolTableRecord
100
AcDbLayerTableRecord
  2
Frame
 70
    0
 62
   41
420
16574799
  6
CONTINUOUS
370
    0
390
F
  0
LAYER
  5
52
330
2
100
AcDbSymbolTableRecord
100
AcDbLayerTableRecord
  2
Keycaps
 70
    0
 62
   43
420
15317358
  6
CONTINUOUS
370
    0
390
F
  0
LAYER
  5
53
330
2
100
AcDbSymbolTableRecord
100
AcDbLayerTableRecord
  2
Labels
 70
    0
 62
    9
  6
CONTINUOUS
370
    0
390
F
  0
LAYER
  5
54
330
2
100
AcDbSymbolTableRecord
100
AcDbLayerTableRecord
  2
Palm supports
 70
    0
 62
   40
420
16559934
  6
CONTINUOUS
370
    0
390
F
  0
LAYER
  5
55
330
2
100
AcDbSymbolTableRecord
100
AcDbLayerTableRecord
  2
Plate
 70
    0
 62
    7
  6
CONTINUOUS
370
    0
390
F
  0
LAYER
  5
56
330
2
100
AcDbSymbolTableRecord
100
AcDbLayerTableRecord
  2
Spacer
 70
    0
 62
  153
420
7512015
  6
CONTINUOUS
370
    0
390
F
  0
ENDTAB
  0
TABLE
  2
STYLE
  5
3
330
0
100
AcDbSymbolTable
 70
    3
  0
STYLE
  5
57
330
2
100
AcDbSymbolTableRecord
100
AcDbTextStyleTableRecord
  2
Standard
 70
    0
 40
0
 41
1
 50
0
 71
    0
 42
1
  3
txt
  4

  0
ENDTAB
  0
TABLE
  2
VIEW
  5
6
330
0
100
AcDbSymbolTable
 70
    0
  0
ENDTAB
  0
TABLE
  2
UCS
  5
7
330
0
100
AcDbSymbolTable
 70
    0
  0
ENDTAB
  0
TABLE
  2
APPID
  5
9
330
0
100
AcDbSymbolTable
 70
    1
  0
APPID
  5
12
330
9
100
AcDbSymbolTableRecord
100
AcDbRegAppTableRecord
  2
ACAD
 70
    0
  0
APPID
  5
58
330
9
100
AcDbSymbolTableRecord
100
AcDbRegAppTableRecord
  2
LibreCad
 70
    0
  0
ENDTAB
  0
TABLE
  2
DIMSTYLE
  5
A
330
0
100
AcDbSymbolTable
 70
    1
100
AcDbDimStyleTable
 71
    1
  0
DIMSTYLE
105
59
330
A
100
AcDbSymbolTableRecord
100
AcDbDimStyleTableRecord
  2
Standard
 70
    0
 40
1
 41
2.5
 42
0.625
 43
0.38
 44
1.25
 45
0
 46
0
 47
0
 48
0
 49
1
140
2.5
141
0.09
142
0
143
25.4
144
1
145
0
146
1
147
0.625
148
0
 71
    0
 72
    0
 73
    0
 74
    1
 75
    0
 76
    0
 77
    0
 78
    8
 79
    0
170
    0
171
    2
172
    0
173
    0
174
    0
175
    0
176
    0
177
    0
178
    0
179
    2
271
    2
272
    4
273
    2
274
    2
275
    0
276
    0
277
    2
278
    0
279
    0
280
    0
281
    0
282
    0
283
    1
284
    0
285
    0
286
    0
288
    0
289
    3
340
standard
341

371
   -2
372
   -2
  0
ENDTAB
  0
TABLE
  2
BLOCK_RECORD
  5
1
330
0
100
AcDbSymbolTable
 70
    2
  0
BLOCK_RECORD
  5
1F
330
1
100
AcDbSymbolTableRecord
100
AcDbBlockTableRecord
  2
*Model_Space
 70
    0
280
    1
281
    0
  0
BLOCK_RECORD
  5
1E
330
1
100
AcDbSymbolTableRecord
100
AcDbBlockTableRecord
  2
*Paper_Space
 70
    0
280
    1
281
    0
  0
BLOCK_RECORD
  5
5A
330
1
100
AcDbSymbolTableRecord
100
AcDbBlockTableRecord
  2
*D2
 70
    0
280
    1
281
    0
  0
BLOCK_RECORD
  5
5D
330
1
100
AcDbSymbolTableRecord
100
AcDbBlockTableRecord
  2
*D4
 70
    0
280
    1
281
    0
  0
BLOCK_RECORD
  5
60
330
1
100
AcDbSymbolTableRecord
100
AcDbBlockTableRecord
  2
*D11
 70
    0
280
    1
281
    0
  0
BLOCK_RECORD
  5
63
330
1
100
AcDbSymbolTableRecord
100
AcDbBlockTableRecord
  2
*D3
 70
    0
280
    1
281
    0
  0
BLOCK_RECORD
  5
66
330
1
100
AcDbSymbolTableRecord
100
AcDbBlockTableRecord
  2
*D8
 70
    0
280
    1
281
    0
  0
BLOCK_RECORD
  5
69
330
1
100
AcDbSymbolTableRecord
100
AcDbBlockTableRecord
  2
*D1
 70
    0
280
    1
281
    0
  0
BLOCK_RECORD
  5
6C
330
1
100
AcDbSymbolTableRecord
100
AcDbBlockTableRecord
  2
*D13
 70
    0
280
    1
281
    0
  0
BLOCK_RECORD
  5
6F
330
1
100
AcDbSymbolTableRecord
100
AcDbBlockTableRecord
  2
*D15
 70
    0
280
    1
281
    0
  0
BLOCK_RECORD
  5
72
330
1
100
AcDbSymbolTableRecord
100
AcDbBlockTableRecord
  2
*D9
 70
    0
280
    1
281
    0
  0
BLOCK_RECORD
  5
75
330
1
100
AcDbSymbolTableRecord
100
AcDbBlockTableRecord
  2
*D6
 70
    0
280
    1
281
    0
  0
BLOCK_RECORD
  5
78
330
1
100
AcDbSymbolTableRecord
100
AcDbBlockTableRecord
  2
*D10
 70
    0
280
    1
281
    0
  0
BLOCK_RECORD
  5
7B
330
1
100
AcDbSymbolTableRecord
100
AcDbBlockTableRecord
  2
*D14
 70
    0
280
    1
281
    0
  0
BLOCK_RECORD
  5
7E
330
1
100
AcDbSymbolTableRecord
100
AcDbBlockTableRecord
  2
*D5
 70
    0
280
    1
281
    0
  0
BLOCK_RECORD
  5
81
330
1
100
AcDbSymbolTableRecord
100
AcDbBlockTableRecord
  2
*D7
 70
    0
280
    1
281
    0
  0
BLOCK_RECORD
  5
84
330
1
100
AcDbSymbolTableRecord
100
AcDbBlockTableRecord
  2
*D12
 70
    0
280
    1
281
    0
  0
BLOCK_RECORD
  5
87
330
1
100
AcDbSymbolTableRecord
100
AcDbBlockTableRecord
  2
Key
 70
    0
280
    1
281
    0
  0
BLOCK_RECORD
  5
8A
330
1
100
AcDbSymbolTableRecord
100
AcDbBlockTableRecord
  2
Key 1.5
 70
    0
280
    1
281
    0
  0
BLOCK_RECORD
  5
8D
330
1
100
AcDbSymbolTableRecord
100
AcDbBlockTableRecord
  2
Column
 70
    0
280
    1
281
    0
  0
BLOCK_RECORD
  5
90
330
1
100
AcDbSymbolTableRecord
100
AcDbBlockTableRecord
  2
Hand
 70
    0
280
    1
281
    0
  0
BLOCK_RECORD
  5
93
330
1
100
AcDbSymbolTableRecord
100
AcDbBlockTableRecord
  2
Diamond
 70
    0
280
    1
281
    0
  0
BLOCK_RECORD
  5
96
330
1
100
AcDbSymbolTableRecord
100
AcDbBlockTableRecord
  2
Thumb cluster
 70
    0
280
    1
281
    0
  0
BLOCK_RECORD
  5
99
330
1
100
AcDbSymbolTableRecord
100
AcDbBlockTableRecord
  2
Columns
 70
    0
280
    1
281
    0
  0
BLOCK_RECORD
  5
9C
330
1
100
AcDbSymbolTableRecord
100
AcDbBlockTableRecord
  2
Fgroup
 70
    0
280
    1
281
    0
  0
BLOCK_RECORD
  5
9F
330
1
100
AcDbSymbolTableRecord
100
AcDbBlockTableRecord
  2
Fkeys
 70
    0
280
    1
281
    0
  0
BLOCK_RECORD
  5
A2
330
1
100
AcDbSymbolTableRecord
100
AcDbBlockTableRecord
  2
LED
 70
    0
280
    1
281
    0
  0
BLOCK_RECORD
  5
A5
330
1
100
AcDbSymbolTableRecord
100
AcDbBlockTableRecord
  2
LEDs
 70
    0
280
    1
281
    0
  0
BLOCK_RECORD
  5
A8
330
1
100
AcDbSymbolTableRecord
100
AcDbBlockTableRecord
  2
Frame 1 key
 70
    0
280
    1
281
    0
  0
BLOCK_RECORD
  5
AB
330
1
100
AcDbSymbolTableRecord
100
AcDbBlockTableRecord
  2
Frame Fgroup
 70
    0
280
    1
281
    0
  0
BLOCK_RECORD
  5
AE
330
1
100
AcDbSymbolTableRecord
100
AcDbBlockTableRecord
  2
Frame Key 1.5
 70
    0
280
    1
281
    0
  0
BLOCK_RECORD
  5
B1
330
1
100
AcDbSymbolTableRecord
100
AcDbBlockTableRecord
  2
Case screw
 70
    0
280
    1
281
    0
  0
BLOCK_RECORD
  5
B4
330
1
100
AcDbSymbolTableRecord
100
AcDbBlockTableRecord
  2
Palm support
 70
    0
280
    1
281
    0
  0
BLOCK_RECORD
  5
B7
330
1
100
AcDbSymbolTableRecord
100
AcDbBlockTableRecord
  2
Keyswitch cutout
 70
    0
280
    1
281
    0
  0
ENDTAB
  0
ENDSEC
  0
SECTION
  2
BLOCKS
  0
BLOCK
  5
20
330
1F
100
AcDbEntity
  8
0
100
AcDbBlockBegin
  2
*Model_Space
 70
    0
 10
0
 20
0
 30
0
  3
*Model_Space
  1

  0
ENDBLK
  5
21
330
1F
100
AcDbEntity
  8
0
100
AcDbBlockEnd
  0
BLOCK
  5
1C
330
1B
100
AcDbEntity
  8
0
100
AcDbBlockBegin
  2
*Paper_Space
 70
    0
 10
0
 20
0
 30
0
  3
*Paper_Space
  1

  0
ENDBLK
  5
1D
330
1F
100
AcDbEntity
  8
0
100
AcDbBlockEnd
  0
BLOCK
  5
5B
330
5A
100
AcDbEntity
  8
0
100
AcDbBlockBegin
  2
*D2
 70
    1
 10
0
 20
0
  3
*D2
  1

  0
SOLID
  5
BA
100
AcDbEntity
  8
Labels
  6
ByBlock
 62
    0
370
   -2
100
AcDbTrace
 10
-187.3770883293892
 20
-101.0210161538963
 30
0
 11
-185.4445579943879
 21
-99.38131513828496
 31
0
 12
-185.017499119564
 22
-100.0960125446203
 32
0
 13
-185.017499119564
 23
-100.0960125446203
 33
0
  0
LINE
  5
BB
100
AcDbEntity
  8
Labels
  6
ByBlock
 62
    0
370
   -2
100
AcDbLine
 10
-179.2220611942189
 20
-96.14807736661024
 11
-187.3770883293892
 21
-101.0210161538963
  0
MTEXT
  5
BC
100
AcDbEntity
  8
Labels
  6
CONTINUOUS
 62
    0
370
   -2
100
AcDbMText
 10
-184.2613389961368
 20
-96.97500193094332
 30
0
 40
2.5
 41
3.888888888889199
 71
    5
 72
    1
  1
9.5
  7
standard
210
0
220
0
230
1
 50
30.85992259739261
 73
    2
 44
1
  0
ENDBLK
  5
5C
330
5A
100
AcDbEntity
  8
0
100
AcDbBlockEnd
  0
BLOCK
  5
5E
330
5D
100
AcDbEntity
  8
0
100
AcDbBlockBegin
  2
*D4
 70
    1
 10
0
 20
0
  3
*D4
  1

  0
LINE
  5
BD
100
AcDbEntity
  8
Labels
  6
ByBlock
 62
    0
370
   -2
100
AcDbLine
 10
-158.8680598657591
 20
-45.93989906853249
 11
-161.3425214635417
 21
-56.65796978117007
  0
SOLID
  5
BE
100
AcDbEntity
  8
Labels
  6
ByBlock
 62
    0
370
   -2
100
AcDbTrace
 10
-159.9928151374784
 20
-50.81174939245866
 30
0
 11
-159.836052810582
 21
-48.28218055782239
 31
0
 12
-159.0248221926555
 22
-48.46946790316876
 32
0
 13
-159.0248221926555
 23
-48.46946790316876
 33
0
  0
SOLID
  5
BF
100
AcDbEntity
  8
Labels
  6
ByBlock
 62
    0
370
   -2
100
AcDbTrace
 10
-160.2177661918223
 20
-51.7861194572439
 30
0
 11
-160.3745285187188
 21
-54.31568829188016
 31
0
 12
-161.1857591366452
 22
-54.1284009465338
 32
0
 13
-161.1857591366452
 23
-54.1284009465338
 33
0
  0
MTEXT
  5
C0
100
AcDbEntity
  8
Labels
  6
CONTINUOUS
 62
    0
370
   -2
100
AcDbMText
 10
-161.9322345361226
 20
-50.87715119795653
 30
0
 40
2.5
 41
0.5555555555555556
 71
    5
 72
    1
  1
1
  7
standard
210
0
220
0
230
1
 50
76.99999999999939
 73
    2
 44
1
  0
LINE
  5
C1
100
AcDbEntity
  8
Labels
  6
ByBlock
 62
    0
370
   -2
100
AcDbLine
 10
-159.640440366283
 20
-50.89310151848284
 11
-161.21077771846
 21
-50.53056057452883
  0
LINE
  5
C2
100
AcDbEntity
  8
Labels
  6
ByBlock
 62
    0
370
   -2
100
AcDbLine
 10
-159.9810102273775
 20
-51.84077887849347
 11
-161.4357287728039
 21
-51.50493063931407
  0
ENDBLK
  5
5F
330
5D
100
AcDbEntity
  8
0
100
AcDbBlockEnd
  0
BLOCK
  5
61
330
60
100
AcDbEntity
  8
0
100
AcDbBlockBegin
  2
*D11
 70
    1
 10
0
 20
0
  3
*D11
  1

  0
LINE
  5
C3
100
AcDbEntity
  8
Construction: Case screws: top
  6
ByBlock
 62
    0
370
   -2
100
AcDbLine
 10
137.936463340752
 20
57.75
 11
137.936463340752
 21
72.5
  0
SOLID
  5
C4
100
AcDbEntity
  8
Construction: Case screws: top
  6
ByBlock
 62
    0
370
   -2
100
AcDbTrace
 10
137.936463340752
 20
62.75
 30
0
 11
138.3527479985248
 21
60.25
 31
0
 12
137.5201786829792
 22
60.25
 32
0
 13
137.5201786829792
 23
60.25
 33
0
  0
SOLID
  5
C5
100
AcDbEntity
  8
Construction: Case screws: top
  6
ByBlock
 62
    0
370
   -2
100
AcDbTrace
 10
137.936463340752
 20
67.5
 30
0
 11
137.5201786829792
 21
70
 31
0
 12
138.3527479985248
 22
70
 32
0
 13
138.3527479985248
 23
70
 33
0
  0
MTEXT
  5
C6
100
AcDbEntity
  8
Construction: Case screws: top
  6
CONTINUOUS
 62
    0
370
   -2
100
AcDbMText
 10
136.061463340752
 20
71.18055555555563
 30
0
 40
2.5
 41
6.111111111111267
 71
    5
 72
    1
  1
4.75
  7
standard
210
0
220
0
230
1
 50
90
 73
    2
 44
1
  0
LINE
  5
C7
100
AcDbEntity
  8
Construction: Case screws: top
  6
ByBlock
 62
    0
370
   -2
100
AcDbLine
 10
138.6381506826432
 20
62.75
 11
136.686463340752
 21
62.75
  0
LINE
  5
C8
100
AcDbEntity
  8
Construction: Case screws: top
  6
ByBlock
 62
    0
370
   -2
100
AcDbLine
 10
137.7016655001317
 20
67.5
 11
136.686463340752
 21
67.5
  0
ENDBLK
  5
62
330
60
100
AcDbEntity
  8
0
100
AcDbBlockEnd
  0
BLOCK
  5
64
330
63
100
AcDbEntity
  8
0
100
AcDbBlockBegin
  2
*D3
 70
    1
 10
0
 20
0
  3
*D3
  1

  0
SOLID
  5
C9
100
AcDbEntity
  8
Labels
  6
ByBlock
 62
    0
370
   -2
100
AcDbTrace
 10
-1.745121688784978e-15
 20
-147.0247504443143
 30
0
 11
-0.4162846577728417
 21
-144.5247504443143
 31
0
 12
0.4162846577728392
 22
-144.5247504443143
 32
0
 13
0.4162846577728392
 23
-144.5247504443143
 33
0
  0
LINE
  5
CA
100
AcDbEntity
  8
Labels
  6
ByBlock
 62
    0
370
   -2
100
AcDbLine
 10
0
 20
-137.5247504443143
 11
-1.745121688784978e-15
 21
-147.0247504443143
  0
MTEXT
  5
CB
100
AcDbEntity
  8
Labels
  6
CONTINUOUS
 62
    0
370
   -2
100
AcDbMText
 10
-1.875000000000001
 20
-142.2747504443143
 30
0
 40
2.5
 41
3.888888888889199
 71
    5
 72
    1
  1
9.5
  7
standard
210
0
220
0
230
1
 50
90
 73
    2
 44
1
  0
ENDBLK
  5
65
330
63
100
AcDbEntity
  8
0
100
AcDbBlockEnd
  0
BLOCK
  5
67
330
66
100
AcDbEntity
  8
0
100
AcDbBlockBegin
  2
*D8
 70
    1
 10
0
 20
0
  3
*D8
  1

  0
LINE
  5
CC
100
AcDbEntity
  8
Construction: Case screws: corners
  6
ByBlock
 62
    0
370
   -2
100
AcDbLine
 10
182.5287315576785
 20
-89.35513572786378
 11
180.4991254150896
 21
-80.56394568694093
  0
LINE
  5
CD
100
AcDbEntity
  8
Construction: Case screws: corners
  6
ByBlock
 62
    0
370
   -2
100
AcDbLine
 10
187.1569893654084
 20
-88.28661821973043
 11
185.1273832228195
 21
-79.49542817880757
  0
LINE
  5
CE
100
AcDbEntity
  8
Construction: Case screws: corners
  6
ByBlock
 62
    0
370
   -2
100
AcDbLine
 10
175.9084639090933
 20
-82.9066635396418
 11
190.2804223646755
 21
-79.5886354880698
  0
SOLID
  5
CF
100
AcDbEntity
  8
Construction: Case screws: corners
  6
ByBlock
 62
    0
370
   -2
100
AcDbTrace
 10
180.7803142330194
 20
-81.78190826792247
 30
0
 11
178.4380327437295
 21
-82.74990121274536
 31
0
 12
178.2507453983832
 22
-81.93867059481892
 32
0
 13
178.2507453983832
 23
-81.93867059481892
 33
0
  0
SOLID
  5
D0
100
AcDbEntity
  8
Construction: Case screws: corners
  6
ByBlock
 62
    0
370
   -2
100
AcDbTrace
 10
185.4085720407493
 20
-80.71339075978912
 30
0
 11
187.7508535300392
 21
-79.74539781496624
 31
0
 12
187.9381408753856
 22
-80.55662843289268
 32
0
 13
187.9381408753856
 23
-80.55662843289268
 33
0
  0
MTEXT
  5
D1
100
AcDbEntity
  8
Construction: Case screws: corners
  6
CONTINUOUS
 62
    0
370
   -2
100
AcDbMText
 10
188.5730119689669
 20
-78.0585020355234
 30
0
 40
2.5
 41
6.111111111111267
 71
    5
 72
    1
  1
4.75
  7
standard
210
0
220
0
230
1
 50
12.99999999999998
 73
    2
 44
1
  0
ENDBLK
  5
68
330
66
100
AcDbEntity
  8
0
100
AcDbBlockEnd
  0
BLOCK
  5
6A
330
69
100
AcDbEntity
  8
0
100
AcDbBlockBegin
  2
*D1
 70
    1
 10
0
 20
0
  3
*D1
  1

  0
LINE
  5
D2
100
AcDbEntity
  8
Labels
  6
ByBlock
 62
    0
370
   -2
100
AcDbLine
 10
-80.75
 20
58
 11
-80.75
 21
67.5
  0
SOLID
  5
D3
100
AcDbEntity
  8
Labels
  6
ByBlock
 62
    0
370
   -2
100
AcDbTrace
 10
-80.75
 20
58
 30
0
 11
-81.16628465777283
 21
60.5
 31
0
 12
-80.33371534222717
 22
60.5
 32
0
 13
-80.33371534222717
 23
60.5
 33
0
  0
SOLID
  5
D4
100
AcDbEntity
  8
Labels
  6
ByBlock
 62
    0
370
   -2
100
AcDbTrace
 10
-80.75
 20
67.5
 30
0
 11
-80.33371534222717
 21
65
 31
0
 12
-81.16628465777283
 22
65
 32
0
 13
-81.16628465777283
 23
65
 33
0
  0
MTEXT
  5
D5
100
AcDbEntity
  8
Labels
  6
CONTINUOUS
 62
    0
370
   -2
100
AcDbMText
 10
-82.625
 20
62.75
 30
0
 40
2.5
 41
3.888888888889199
 71
    5
 72
    1
  1
9.5
  7
standard
210
0
220
0
230
1
 50
90
 73
    2
 44
1
  0
LINE
  5
D6
100
AcDbEntity
  8
Labels
  6
ByBlock
 62
    0
370
   -2
100
AcDbLine
 10
-81.375
 20
58
 11
-82
 21
58
  0
LINE
  5
D7
100
AcDbEntity
  8
Labels
  6
ByBlock
 62
    0
370
   -2
100
AcDbLine
 10
-81.375
 20
67.5
 11
-82
 21
67.5
  0
ENDBLK
  5
6B
330
69
100
AcDbEntity
  8
0
100
AcDbBlockEnd
  0
BLOCK
  5
6D
330
6C
100
AcDbEntity
  8
0
100
AcDbBlockBegin
  2
*D13
 70
    1
 10
0
 20
0
  3
*D13
  1

  0
SOLID
  5
D8
100
AcDbEntity
  8
Labels
  6
ByBlock
 62
    0
370
   -2
100
AcDbTrace
 10
-145.1253619466054
 20
67.38223623341827
 30
0
 11
-144.3218195941507
 21
64.97856974155452
 31
0
 12
-145.1440682256396
 22
64.84788365506186
 32
0
 13
-145.1440682256396
 23
64.84788365506186
 33
0
  0
LINE
  5
D9
100
AcDbEntity
  8
Labels
  6
ByBlock
 62
    0
370
   -2
100
AcDbLine
 10
-143.6341734071064
 20
58
 11
-145.1253619466054
 21
67.38223623341827
  0
MTEXT
  5
DA
100
AcDbEntity
  8
Labels
  6
CONTINUOUS
 62
    0
370
   -2
100
AcDbMText
 10
-142.5280105255234
 20
62.98543164424184
 30
0
 40
2.5
 41
3.888888888889199
 71
    5
 72
    1
  1
9.5
  7
standard
210
0
220
0
230
1
 50
279.0309061171729
 73
    2
 44
1
  0
ENDBLK
  5
6E
330
6C
100
AcDbEntity
  8
0
100
AcDbBlockEnd
  0
BLOCK
  5
70
330
6F
100
AcDbEntity
  8
0
100
AcDbBlockBegin
  2
*D15
 70
    1
 10
0
 20
0
  3
*D15
  1

  0
LINE
  5
DB
100
AcDbEntity
  8
Labels
  6
ByBlock
 62
    0
370
   -2
100
AcDbLine
 10
-25.87916204751374
 20
-116.5403775380813
 11
-25.87093777066462
 21
-116.5047542813259
  0
LINE
  5
DC
100
AcDbEntity
  8
Labels
  6
ByBlock
 62
    0
370
   -2
100
AcDbLine
 10
25.87916204751367
 20
-116.5403775380814
 11
25.87093777066453
 21
-116.5047542813259
  0
ARC
  5
DD
100
AcDbEntity
  8
Labels
  6
ByBlock
 62
    0
370
   -2
100
AcDbCircle
 10
2.464695114667848e-14
 20
-4.445411482585837
 40
113.7569638309747
100
AcDbArc
 50
256.9999999999999
 51
283
  0
SOLID
  5
DE
100
AcDbEntity
  8
Labels
  6
ByBlock
 62
    0
370
   -2
100
AcDbTrace
 10
-25.58974895273479
 20
-115.2867917003443
 30
0
 11
-23.0586103083453
 21
-115.4157493646191
 31
0
 12
-23.23697244986761
 22
-116.228988942886
 32
0
 13
-23.23697244986761
 23
-116.228988942886
 33
0
  0
SOLID
  5
DF
100
AcDbEntity
  8
Labels
  6
ByBlock
 62
    0
370
   -2
100
AcDbTrace
 10
25.5897489527347
 20
-115.2867917003444
 30
0
 11
23.23697244986752
 21
-116.228988942886
 31
0
 12
23.05861030834521
 22
-115.4157493646191
 32
0
 13
23.05861030834521
 23
-115.4157493646191
 33
0
  0
MTEXT
  5
E0
100
AcDbEntity
  8
Labels
  6
CONTINUOUS
 62
    0
370
   -2
100
AcDbMText
 10
3.927183991781309e-15
 20
-117.5773753135606
 30
0
 40
2.5
 41
9.444444444444601
 71
    8
 72
    1
  1
26.00%%D
  7
standard
210
0
220
0
230
1
 50
-1.272221872585407e-14
 73
    2
 44
1
  0
ENDBLK
  5
71
330
6F
100
AcDbEntity
  8
0
100
AcDbBlockEnd
  0
BLOCK
  5
73
330
72
100
AcDbEntity
  8
0
100
AcDbBlockBegin
  2
*D9
 70
    1
 10
0
 20
0
  3
*D9
  1

  0
LINE
  5
E1
100
AcDbEntity
  8
Construction: Case screws: corners
  6
ByBlock
 62
    0
370
   -2
100
AcDbLine
 10
-9.301415802246217
 20
-124.8577322982607
 11
-12.61944385381823
 21
-139.229690753843
  0
SOLID
  5
E2
100
AcDbEntity
  8
Construction: Case screws: corners
  6
ByBlock
 62
    0
370
   -2
100
AcDbTrace
 10
-10.42617107396554
 20
-129.7295826221869
 30
0
 11
-10.2694087470691
 21
-127.2000137875506
 31
0
 12
-9.458178129142654
 22
-127.387301132897
 32
0
 13
-9.458178129142654
 23
-127.387301132897
 33
0
  0
SOLID
  5
E3
100
AcDbEntity
  8
Construction: Case screws: corners
  6
ByBlock
 62
    0
370
   -2
100
AcDbTrace
 10
-11.49468858209891
 20
-134.3578404299168
 30
0
 11
-11.65145090899535
 21
-136.8874092645531
 31
0
 12
-12.46268152692179
 22
-136.7001219192067
 32
0
 13
-12.46268152692179
 23
-136.7001219192067
 33
0
  0
MTEXT
  5
E4
100
AcDbEntity
  8
Construction: Case screws: corners
  6
CONTINUOUS
 62
    0
370
   -2
100
AcDbMText
 10
-11.42517009264445
 20
-125.7215762401798
 30
0
 40
2.5
 41
6.111111111111267
 71
    5
 72
    1
  1
4.75
  7
standard
210
0
220
0
230
1
 50
76.99999999999999
 73
    2
 44
1
  0
LINE
  5
E5
100
AcDbEntity
  8
Construction: Case screws: corners
  6
ByBlock
 62
    0
370
   -2
100
AcDbLine
 10
-9.644183071825465
 20
-129.9101187777229
 11
-11.64413365494708
 21
-129.4483938042571
  0
LINE
  5
E6
100
AcDbEntity
  8
Construction: Case screws: corners
  6
ByBlock
 62
    0
370
   -2
100
AcDbLine
 10
-11.93841409358926
 20
-134.2553983237228
 11
-12.71265116308046
 21
-134.076651611987
  0
ENDBLK
  5
74
330
72
100
AcDbEntity
  8
0
100
AcDbBlockEnd
  0
BLOCK
  5
76
330
75
100
AcDbEntity
  8
0
100
AcDbBlockBegin
  2
*D6
 70
    1
 10
0
 20
0
  3
*D6
  1

  0
SOLID
  5
E7
100
AcDbEntity
  8
Labels
  6
ByBlock
 62
    0
370
   -2
100
AcDbTrace
 10
-148.4074360603385
 20
-54.29901196565606
 30
0
 11
-146.9863466413894
 21
-56.39753472694505
 31
0
 12
-147.7430369667962
 22
-56.74479747562972
 32
0
 13
-147.7430369667962
 23
-56.74479747562972
 33
0
  0
LINE
  5
E8
100
AcDbEntity
  8
Labels
  6
ByBlock
 62
    0
370
   -2
100
AcDbLine
 10
-148.8245337628368
 20
-53.3901503114035
 11
-146.0902266020147
 21
-59.34824337817013
  0
MTEXT
  5
E9
100
AcDbEntity
  8
Labels
  6
CONTINUOUS
 62
    0
370
   -2
100
AcDbMText
 10
-145.5447157294532
 20
-56.04156947972895
 30
0
 40
2.5
 41
0.5555555555555556
 71
    5
 72
    1
  1
1
  7
standard
210
0
220
0
230
1
 50
294.6514884366142
 73
    2
 44
1
  0
ENDBLK
  5
77
330
75
100
AcDbEntity
  8
0
100
AcDbBlockEnd
  0
BLOCK
  5
79
330
78
100
AcDbEntity
  8
0
100
AcDbBlockBegin
  2
*D10
 70
    1
 10
0
 20
0
  3
*D10
  1

  0
LINE
  5
EA
100
AcDbEntity
  8
Construction: Case screws: corners
  6
ByBlock
 62
    0
370
   -2
100
AcDbLine
 10
147.0802480291673
 20
61.32831709715003
 11
152.197637056429
 21
57.25776206530421
  0
LINE
  5
EB
100
AcDbEntity
  8
Construction: Case screws: corners
  6
ByBlock
 62
    0
370
   -2
100
AcDbLine
 10
150.0371925531963
 20
65.04570584219933
 11
155.154581580458
 21
60.9751508103535
  0
LINE
  5
EC
100
AcDbEntity
  8
Construction: Case screws: corners
  6
ByBlock
 62
    0
370
   -2
100
AcDbLine
 10
148.1068036771753
 20
54.12286457683921
 11
157.2888945675806
 21
65.66633489041257
  0
SOLID
  5
ED
100
AcDbEntity
  8
Construction: Case screws: corners
  6
ByBlock
 62
    0
370
   -2
100
AcDbTrace
 10
151.2193768603635
 20
58.03590536110124
 30
0
 11
149.988878037515
 21
55.82024167649895
 31
0
 12
149.3373025000239
 22
56.3385282614415
 32
0
 13
149.3373025000239
 23
56.3385282614415
 33
0
  0
SOLID
  5
EE
100
AcDbEntity
  8
Construction: Case screws: corners
  6
ByBlock
 62
    0
370
   -2
100
AcDbTrace
 10
154.1763213843925
 20
61.75329410615053
 30
0
 11
155.406820207241
 21
63.96895779075283
 31
0
 12
156.0583957447321
 22
63.45067120581027
 32
0
 13
156.0583957447321
 23
63.45067120581027
 33
0
  0
MTEXT
  5
EF
100
AcDbEntity
  8
Construction: Case screws: corners
  6
CONTINUOUS
 62
    0
370
   -2
100
AcDbMText
 10
155.0001307945856
 20
65.80094184937238
 30
0
 40
2.5
 41
6.111111111111267
 71
    5
 72
    1
  1
4.75
  7
standard
210
0
220
0
230
1
 50
51.49999999999936
 73
    2
 44
1
  0
ENDBLK
  5
7A
330
78
100
AcDbEntity
  8
0
100
AcDbBlockEnd
  0
BLOCK
  5
7C
330
7B
100
AcDbEntity
  8
0
100
AcDbBlockBegin
  2
*D14
 70
    1
 10
0
 20
0
  3
*D14
  1

  0
LINE
  5
F0
100
AcDbEntity
  8
Labels
  6
ByBlock
 62
    0
370
   -2
100
AcDbLine
 10
-166.7478804289825
 20
-0.5100552459639875
 11
-166.7478804289825
 21
-1.135055245963992
  0
LINE
  5
F1
100
AcDbEntity
  8
Labels
  6
ByBlock
 62
    0
370
   -2
100
AcDbLine
 10
-157.4913648135228
 20
-2.647090262230704
 11
-157.4913648135228
 21
-3.272090262230709
  0
LINE
  5
F2
100
AcDbEntity
  8
Labels
  6
ByBlock
 62
    0
370
   -2
100
AcDbLine
 10
-166.7478804289825
 20
0.1149447540360076
 11
-157.4913648135228
 21
-2.022090262230709
  0
SOLID
  5
F3
100
AcDbEntity
  8
Labels
  6
ByBlock
 62
    0
370
   -2
100
AcDbTrace
 10
-166.7478804289825
 20
0.1149447540360076
 30
0
 11
-164.2183115943463
 21
-0.04181757286043448
 31
0
 12
-164.4055989396926
 22
-0.8530481907868787
 32
0
 13
-164.4055989396926
 23
-0.8530481907868787
 33
0
  0
SOLID
  5
F4
100
AcDbEntity
  8
Labels
  6
ByBlock
 62
    0
370
   -2
100
AcDbTrace
 10
-157.4913648135228
 20
-2.022090262230709
 30
0
 11
-160.0209336481591
 21
-1.865327935334268
 31
0
 12
-159.8336463028127
 22
-1.054097317407824
 32
0
 13
-159.8336463028127
 23
-1.054097317407824
 33
0
  0
MTEXT
  5
F5
100
AcDbEntity
  8
Labels
  6
CONTINUOUS
 62
    0
370
   -2
100
AcDbMText
 10
-161.6978393943579
 20
0.8733711173749653
 30
0
 40
2.5
 41
3.888888888889199
 71
    5
 72
    1
  1
9.5
  7
standard
210
0
220
0
230
1
 50
347
 73
    2
 44
1
  0
ENDBLK
  5
7D
330
7B
100
AcDbEntity
  8
0
100
AcDbBlockEnd
  0
BLOCK
  5
7F
330
7E
100
AcDbEntity
  8
0
100
AcDbBlockBegin
  2
*D5
 70
    1
 10
0
 20
0
  3
*D5
  1

  0
SOLID
  5
F6
100
AcDbEntity
  8
Labels
  6
ByBlock
 62
    0
370
   -2
100
AcDbTrace
 10
-113.974644335624
 20
-59.34197683274029
 30
0
 11
-115.8678411469048
 21
-61.02693936943158
 31
0
 12
-116.3116890468499
 22
-60.3225455116343
 32
0
 13
-116.3116890468499
 23
-60.3225455116343
 33
0
  0
LINE
  5
F7
100
AcDbEntity
  8
Labels
  6
ByBlock
 62
    0
370
   -2
100
AcDbLine
 10
-113.1285960311227
 20
-58.80887058962326
 11
-118.6749126939649
 21
-62.30367818339063
  0
MTEXT
  5
F8
100
AcDbEntity
  8
Labels
  6
CONTINUOUS
 62
    0
370
   -2
100
AcDbMText
 10
-117.3243527206389
 20
-59.23648693712526
 30
0
 40
2.5
 41
0.5555555555555556
 71
    5
 72
    1
  1
1
  7
standard
210
0
220
0
230
1
 50
32.21557241248296
 73
    2
 44
1
  0
ENDBLK
  5
80
330
7E
100
AcDbEntity
  8
0
100
AcDbBlockEnd
  0
BLOCK
  5
82
330
81
100
AcDbEntity
  8
0
100
AcDbBlockBegin
  2
*D7
 70
    1
 10
0
 20
0
  3
*D7
  1

  0
LINE
  5
F9
100
AcDbEntity
  8
Construction: Case screws: corners
  6
ByBlock
 62
    0
370
   -2
100
AcDbLine
 10
182.0603446761527
 20
-90.10471142731947
 11
173.7783830118493
 21
-92.01675293572839
  0
LINE
  5
FA
100
AcDbEntity
  8
Construction: Case screws: corners
  6
ByBlock
 62
    0
370
   -2
100
AcDbLine
 10
183.128862184286
 20
-94.73296923504932
 11
174.8469005199826
 21
-96.64501074345824
  0
LINE
  5
FB
100
AcDbEntity
  8
Construction: Case screws: corners
  6
ByBlock
 62
    0
370
   -2
100
AcDbLine
 10
173.8715903211115
 20
-86.86371379387239
 11
177.1896183726834
 21
-101.2356722494546
  0
SOLID
  5
FC
100
AcDbEntity
  8
Construction: Case screws: corners
  6
ByBlock
 62
    0
370
   -2
100
AcDbTrace
 10
174.9963455928308
 20
-91.73556411779857
 30
0
 11
174.0283526480079
 21
-89.39328262850866
 31
0
 12
174.8395832659344
 22
-89.20599528316231
 32
0
 13
174.8395832659344
 23
-89.20599528316231
 33
0
  0
SOLID
  5
FD
100
AcDbEntity
  8
Construction: Case screws: corners
  6
ByBlock
 62
    0
370
   -2
100
AcDbTrace
 10
176.0648631009641
 20
-96.36382192552843
 30
0
 11
177.032856045787
 21
-98.70610341481834
 31
0
 12
176.2216254278605
 22
-98.89339076016469
 32
0
 13
176.2216254278605
 23
-98.89339076016469
 33
0
  0
MTEXT
  5
FE
100
AcDbEntity
  8
Construction: Case screws: corners
  6
CONTINUOUS
 62
    0
370
   -2
100
AcDbMText
 10
178.7197518252298
 20
-99.52826185374605
 30
0
 40
2.5
 41
6.111111111111267
 71
    5
 72
    1
  1
4.75
  7
standard
210
0
220
0
230
1
 50
282.9999999999996
 73
    2
 44
1
  0
ENDBLK
  5
83
330
81
100
AcDbEntity
  8
0
100
AcDbBlockEnd
  0
BLOCK
  5
85
330
84
100
AcDbEntity
  8
0
100
AcDbBlockBegin
  2
*D12
 70
    1
 10
0
 20
0
  3
*D12
  1

  0
LINE
  5
FF
100
AcDbEntity
  8
Construction: Case screws: top
  6
ByBlock
 62
    0
370
   -2
100
AcDbLine
 10
150.2689001299514
 20
53.08471823123824
 11
150.8939001299514
 21
53.08471823123824
  0
LINE
  5
100
100
AcDbEntity
  8
Construction: Case screws: top
  6
ByBlock
 62
    0
370
   -2
100
AcDbLine
 10
154.8971579376812
 20
54.15323573937159
 11
155.5221579376812
 21
54.15323573937159
  0
LINE
  5
101
100
AcDbEntity
  8
Construction: Case screws: top
  6
ByBlock
 62
    0
370
   -2
100
AcDbLine
 10
144.7720498060252
 20
51.95996295951891
 11
159.1440082616074
 21
55.27799101109092
  0
SOLID
  5
102
100
AcDbEntity
  8
Construction: Case screws: top
  6
ByBlock
 62
    0
370
   -2
100
AcDbTrace
 10
149.6439001299514
 20
53.08471823123824
 30
0
 11
147.3016186406615
 21
52.11672528641535
 31
0
 12
147.1143312953151
 22
52.9279559043418
 32
0
 13
147.1143312953151
 23
52.9279559043418
 33
0
  0
SOLID
  5
103
100
AcDbEntity
  8
Construction: Case screws: top
  6
ByBlock
 62
    0
370
   -2
100
AcDbTrace
 10
154.2721579376812
 20
54.15323573937159
 30
0
 11
156.6144394269711
 21
55.12122868419448
 31
0
 12
156.8017267723174
 22
54.30999806626803
 32
0
 13
156.8017267723174
 23
54.30999806626803
 33
0
  0
MTEXT
  5
104
100
AcDbEntity
  8
Construction: Case screws: top
  6
CONTINUOUS
 62
    0
370
   -2
100
AcDbMText
 10
157.4365978658989
 20
56.80812446363732
 30
0
 40
2.5
 41
6.111111111111267
 71
    5
 72
    1
  1
4.75
  7
standard
210
0
220
0
230
1
 50
13.00000000000008
 73
    2
 44
1
  0
ENDBLK
  5
86
330
84
100
AcDbEntity
  8
0
100
AcDbBlockEnd
  0
BLOCK
  5
88
330
87
100
AcDbEntity
  8
0
100
AcDbBlockBegin
  2
Key
 70
    0
 10
0
 20
0
  3
Key
  1

  0
LWPOLYLINE
  5
105
100
AcDbEntity
  8
Keycaps
  6
ByLayer
 62
  256
370
   -1
100
AcDbPolyline
 90
    4
 70
    1
 43
0
 10
-9.5
 20
9.5
 10
9.5
 20
9.5
 10
9.5
 20
-9.5
 10
-9.5
 20
-9.5
  0
INSERT
  5
106
100
AcDbEntity
  8
0
  6
ByLayer
 62
  256
370
   -1
100
AcDbBlockReference
  2
Keyswitch cutout
 10
0
 20
0
 30
0
 41
1
 42
1
 43
0
 50
0
 70
    1
 71
    1
 44
0
 45
0
  0
ENDBLK
  5
89
330
87
100
AcDbEntity
  8
0
100
AcDbBlockEnd
  0
BLOCK
  5
8B
330
8A
100
AcDbEntity
  8
0
100
AcDbBlockBegin
  2
Key 1.5
 70
    0
 10
0
 20
0
  3
Key 1.5
  1

  0
LWPOLYLINE
  5
107
100
AcDbEntity
  8
Keycaps
  6
ByLayer
 62
  256
370
   -1
100
AcDbPolyline
 90
    4
 70
    1
 43
0
 10
-14.25
 20
9.5
 10
14.25
 20
9.5
 10
14.25
 20
-9.5
 10
-14.25
 20
-9.5
  0
INSERT
  5
108
100
AcDbEntity
  8
0
  6
ByLayer
 62
  256
370
   -1
100
AcDbBlockReference
  2
Keyswitch cutout
 10
0
 20
0
 30
0
 41
1
 42
1
 43
0
 50
0
 70
    1
 71
    1
 44
1
 45
1
  0
ENDBLK
  5
8C
330
8A
100
AcDbEntity
  8
0
100
AcDbBlockEnd
  0
BLOCK
  5
8E
330
8D
100
AcDbEntity
  8
0
100
AcDbBlockBegin
  2
Column
 70
    0
 10
0
 20
0
  3
Column
  1

  0
INSERT
  5
109
100
AcDbEntity
  8
0
  6
ByLayer
 62
  256
370
   -1
100
AcDbBlockReference
  2
Key
 10
0
 20
0
 30
0
 41
1
 42
1
 43
0
 50
0
 70
    1
 71
    1
 44
1
 45
1
  0
INSERT
  5
10A
100
AcDbEntity
  8
0
  6
ByLayer
 62
  256
370
   -1
100
AcDbBlockReference
  2
Key
 10
0
 20
-19
 30
0
 41
1
 42
1
 43
0
 50
0
 70
    1
 71
    1
 44
1
 45
1
  0
INSERT
  5
10B
100
AcDbEntity
  8
0
  6
ByLayer
 62
  256
370
   -1
100
AcDbBlockReference
  2
Key
 10
0
 20
-38
 30
0
 41
1
 42
1
 43
0
 50
0
 70
    1
 71
    1
 44
1
 45
1
  0
INSERT
  5
10C
100
AcDbEntity
  8
0
  6
ByLayer
 62
  256
370
   -1
100
AcDbBlockReference
  2
Key
 10
0
 20
-57
 30
0
 41
1
 42
1
 43
0
 50
0
 70
    1
 71
    1
 44
1
 45
1
  0
ENDBLK
  5
8F
330
8D
100
AcDbEntity
  8
0
100
AcDbBlockEnd
  0
BLOCK
  5
91
330
90
100
AcDbEntity
  8
0
100
AcDbBlockBegin
  2
Hand
 70
    0
 10
0
 20
0
  3
Hand
  1

  0
INSERT
  5
10D
100
AcDbEntity
  8
0
  6
ByLayer
 62
  256
370
   -1
100
AcDbBlockReference
  2
Columns
 10
0
 20
0
 30
0
 41
1
 42
1
 43
0
 50
0
 70
    1
 71
    1
 44
0
 45
0
  0
INSERT
  5
10E
100
AcDbEntity
  8
0
  6
ByLayer
 62
  256
370
   -1
100
AcDbBlockReference
  2
Diamond
 10
-66.5
 20
-80.75
 30
0
 41
1
 42
1
 43
0
 50
0
 70
    1
 71
    1
 44
1
 45
1
  0
INSERT
  5
10F
100
AcDbEntity
  8
0
  6
ByLayer
 62
  256
370
   -1
100
AcDbBlockReference
  2
Thumb cluster
 10
-38
 20
-118.75
 30
0
 41
1
 42
1
 43
0
 50
0
 70
    1
 71
    1
 44
0
 45
0
  0
INSERT
  5
110
100
AcDbEntity
  8
Bottom
  6
ByLayer
 62
  256
370
   -1
100
AcDbBlockReference
  2
Frame Key 1.5
 10
-38
 20
-118.75
 30
0
 41
1
 42
1
 43
0
 50
0
 70
    1
 71
    1
 44
1
 45
1
  0
ENDBLK
  5
92
330
90
100
AcDbEntity
  8
0
100
AcDbBlockEnd
  0
BLOCK
  5
94
330
93
100
AcDbEntity
  8
0
100
AcDbBlockBegin
  2
Diamond
 70
    0
 10
0
 20
0
  3
Diamond
  1

  0
INSERT
  5
111
100
AcDbEntity
  8
0
  6
ByLayer
 62
  256
370
   -1
100
AcDbBlockReference
  2
Key
 10
0
 20
9.5
 30
0
 41
1
 42
1
 43
0
 50
0
 70
    1
 71
    1
 44
1
 45
1
  0
INSERT
  5
112
100
AcDbEntity
  8
0
  6
ByLayer
 62
  256
370
   -1
100
AcDbBlockReference
  2
Key
 10
0
 20
-9.5
 30
0
 41
1
 42
1
 43
0
 50
0
 70
    1
 71
    1
 44
1
 45
1
  0
INSERT
  5
113
100
AcDbEntity
  8
0
  6
ByLayer
 62
  256
370
   -1
100
AcDbBlockReference
  2
Key
 10
-19
 20
0
 30
0
 41
1
 42
1
 43
0
 50
0
 70
    1
 71
    1
 44
1
 45
1
  0
INSERT
  5
114
100
AcDbEntity
  8
0
  6
ByLayer
 62
  256
370
   -1
100
AcDbBlockReference
  2
Key
 10
19
 20
0
 30
0
 41
1
 42
1
 43
0
 50
0
 70
    1
 71
    1
 44
1
 45
1
  0
ENDBLK
  5
95
330
93
100
AcDbEntity
  8
0
100
AcDbBlockEnd
  0
BLOCK
  5
97
330
96
100
AcDbEntity
  8
0
100
AcDbBlockBegin
  2
Thumb cluster
 70
    0
 10
0
 20
0
  3
Thumb cluster
  1

  0
INSERT
  5
115
100
AcDbEntity
  8
0
  6
ByLayer
 62
  256
370
   -1
100
AcDbBlockReference
  2
Key
 10
9.5
 20
38
 30
0
 41
1
 42
1
 43
0
 50
0
 70
    1
 71
    1
 44
1
 45
1
  0
INSERT
  5
116
100
AcDbEntity
  8
0
  6
ByLayer
 62
  256
370
   -1
100
AcDbBlockReference
  2
Key
 10
28.5
 20
28.5
 30
0
 41
1
 42
1
 43
0
 50
0
 70
    1
 71
    1
 44
1
 45
1
  0
INSERT
  5
117
100
AcDbEntity
  8
0
  6
ByLayer
 62
  256
370
   -1
100
AcDbBlockReference
  2
Key
 10
28.5
 20
9.5
 30
0
 41
1
 42
1
 43
0
 50
0
 70
    1
 71
    1
 44
1
 45
1
  0
INSERT
  5
118
100
AcDbEntity
  8
0
  6
ByLayer
 62
  256
370
   -1
100
AcDbBlockReference
  2
Key 1.5
 10
0
 20
0
 30
0
 41
1
 42
1
 43
0
 50
0
 70
    1
 71
    1
 44
1
 45
1
  0
ENDBLK
  5
98
330
96
100
AcDbEntity
  8
0
100
AcDbBlockEnd
  0
BLOCK
  5
9A
330
99
100
AcDbEntity
  8
0
100
AcDbBlockBegin
  2
Columns
 70
    0
 10
0
 20
0
  3
Columns
  1

  0
INSERT
  5
119
100
AcDbEntity
  8
0
  6
ByLayer
 62
  256
370
   -1
100
AcDbBlockReference
  2
Column
 10
-66.5
 20
4.75
 30
0
 41
1
 42
1
 43
0
 50
0
 70
    1
 71
    1
 44
1
 45
1
  0
INSERT
  5
11A
100
AcDbEntity
  8
0
  6
ByLayer
 62
  256
370
   -1
100
AcDbBlockReference
  2
Column
 10
-47.5
 20
0
 30
0
 41
1
 42
1
 43
0
 50
0
 70
    1
 71
    1
 44
1
 45
1
  0
INSERT
  5
11B
100
AcDbEntity
  8
0
  6
ByLayer
 62
  256
370
   -1
100
AcDbBlockReference
  2
Column
 10
-85.5
 20
0
 30
0
 41
1
 42
1
 43
0
 50
0
 70
    1
 71
    1
 44
1
 45
1
  0
INSERT
  5
11C
100
AcDbEntity
  8
0
  6
ByLayer
 62
  256
370
   -1
100
AcDbBlockReference
  2
Column
 10
-104.5
 20
-14.25
 30
0
 41
1
 42
1
 43
0
 50
0
 70
    1
 71
    1
 44
1
 45
1
  0
INSERT
  5
11D
100
AcDbEntity
  8
0
  6
ByLayer
 62
  256
370
   -1
100
AcDbBlockReference
  2
Column
 10
-123.5
 20
-14.25
 30
0
 41
1
 42
1
 43
0
 50
0
 70
    1
 71
    1
 44
1
 45
1
  0
INSERT
  5
11E
100
AcDbEntity
  8
0
  6
ByLayer
 62
  256
370
   -1
100
AcDbBlockReference
  2
Column
 10
-142.5
 20
-19
 30
0
 41
1
 42
1
 43
0
 50
0
 70
    1
 71
    1
 44
1
 45
1
  0
INSERT
  5
11F
100
AcDbEntity
  8
0
  6
ByLayer
 62
  256
370
   -1
100
AcDbBlockReference
  2
Column
 10
-28.5
 20
-4.75
 30
0
 41
1
 42
1
 43
0
 50
0
 70
    1
 71
    1
 44
1
 45
1
  0
INSERT
  5
120
100
AcDbEntity
  8
0
  6
ByLayer
 62
  256
370
   -1
100
AcDbBlockReference
  2
Column
 10
-9.5
 20
-9.5
 30
0
 41
1
 42
1
 43
0
 50
0
 70
    1
 71
    1
 44
1
 45
1
  0
ENDBLK
  5
9B
330
99
100
AcDbEntity
  8
0
100
AcDbBlockEnd
  0
BLOCK
  5
9D
330
9C
100
AcDbEntity
  8
0
100
AcDbBlockBegin
  2
Fgroup
 70
    0
 10
0
 20
0
  3
Fgroup
  1

  0
INSERT
  5
121
100
AcDbEntity
  8
0
  6
ByLayer
 62
  256
370
   -1
100
AcDbBlockReference
  2
Key
 10
0
 20
0
 30
0
 41
1
 42
1
 43
0
 50
0
 70
    1
 71
    1
 44
1
 45
1
  0
INSERT
  5
122
100
AcDbEntity
  8
0
  6
ByLayer
 62
  256
370
   -1
100
AcDbBlockReference
  2
Key
 10
19
 20
0
 30
0
 41
1
 42
1
 43
0
 50
0
 70
    1
 71
    1
 44
1
 45
1
  0
INSERT
  5
123
100
AcDbEntity
  8
0
  6
ByLayer
 62
  256
370
   -1
100
AcDbBlockReference
  2
Key
 10
38
 20
0
 30
0
 41
1
 42
1
 43
0
 50
0
 70
    1
 71
    1
 44
1
 45
1
  0
INSERT
  5
124
100
AcDbEntity
  8
0
  6
ByLayer
 62
  256
370
   -1
100
AcDbBlockReference
  2
Key
 10
57
 20
0
 30
0
 41
1
 42
1
 43
0
 50
0
 70
    1
 71
    1
 44
1
 45
1
  0
ENDBLK
  5
9E
330
9C
100
AcDbEntity
  8
0
100
AcDbBlockEnd
  0
BLOCK
  5
A0
330
9F
100
AcDbEntity
  8
0
100
AcDbBlockBegin
  2
Fkeys
 70
    0
 10
0
 20
0
  3
Fkeys
  1

  0
INSERT
  5
125
100
AcDbEntity
  8
Frame
  6
ByLayer
 62
  256
370
   -1
100
AcDbBlockReference
  2
Frame Fgroup
 10
-109.25
 20
0
 30
0
 41
1
 42
1
 43
0
 50
0
 70
    1
 71
    1
 44
0
 45
0
  0
INSERT
  5
126
100
AcDbEntity
  8
Frame
  6
ByLayer
 62
  256
370
   -1
100
AcDbBlockReference
  2
Frame Fgroup
 10
-28.5
 20
0
 30
0
 41
1
 42
1
 43
0
 50
0
 70
    1
 71
    1
 44
1
 45
1
  0
INSERT
  5
127
100
AcDbEntity
  8
Frame
  6
ByLayer
 62
  256
370
   -1
100
AcDbBlockReference
  2
Frame Fgroup
 10
52.25
 20
0
 30
0
 41
1
 42
1
 43
0
 50
0
 70
    1
 71
    1
 44
1
 45
1
  0
INSERT
  5
128
100
AcDbEntity
  8
Frame
  6
ByLayer
 62
  256
370
   -1
100
AcDbBlockReference
  2
Frame 1 key
 10
133
 20
0
 30
0
 41
1
 42
1
 43
0
 50
0
 70
    1
 71
    1
 44
1
 45
1
  0
INSERT
  5
129
100
AcDbEntity
  8
Frame
  6
ByLayer
 62
  256
370
   -1
100
AcDbBlockReference
  2
Frame 1 key
 10
-133
 20
0
 30
0
 41
1
 42
1
 43
0
 50
0
 70
    1
 71
    1
 44
1
 45
1
  0
INSERT
  5
12A
100
AcDbEntity
  8
0
  6
ByLayer
 62
  256
370
   -1
100
AcDbBlockReference
  2
Fgroup
 10
-28.5
 20
0
 30
0
 41
1
 42
1
 43
0
 50
0
 70
    1
 71
    1
 44
1
 45
1
  0
INSERT
  5
12B
100
AcDbEntity
  8
0
  6
ByLayer
 62
  256
370
   -1
100
AcDbBlockReference
  2
Fgroup
 10
52.25
 20
0
 30
0
 41
1
 42
1
 43
0
 50
0
 70
    1
 71
    1
 44
1
 45
1
  0
INSERT
  5
12C
100
AcDbEntity
  8
0
  6
ByLayer
 62
  256
370
   -1
100
AcDbBlockReference
  2
Fgroup
 10
-109.25
 20
0
 30
0
 41
1
 42
1
 43
0
 50
0
 70
    1
 71
    1
 44
1
 45
1
  0
INSERT
  5
12D
100
AcDbEntity
  8
0
  6
ByLayer
 62
  256
370
   -1
100
AcDbBlockReference
  2
Key
 10
-133
 20
0
 30
0
 41
1
 42
1
 43
0
 50
0
 70
    1
 71
    1
 44
1
 45
1
  0
INSERT
  5
12E
100
AcDbEntity
  8
0
  6
ByLayer
 62
  256
370
   -1
100
AcDbBlockReference
  2
Key
 10
133
 20
0
 30
0
 41
1
 42
1
 43
0
 50
0
 70
    1
 71
    1
 44
1
 45
1
  0
ENDBLK
  5
A1
330
9F
100
AcDbEntity
  8
0
100
AcDbBlockEnd
  0
BLOCK
  5
A3
330
A2
100
AcDbEntity
  8
0
100
AcDbBlockBegin
  2
LED
 70
    0
 10
0
 20
0
  3
LED
  1

  0
CIRCLE
  5
12F
100
AcDbEntity
  8
Plate
  6
ByLayer
 62
  256
370
   -1
100
AcDbCircle
 10
0
 20
0
 40
1.5
  0
ENDBLK
  5
A4
330
A2
100
AcDbEntity
  8
0
100
AcDbBlockEnd
  0
BLOCK
  5
A6
330
A5
100
AcDbEntity
  8
0
100
AcDbBlockBegin
  2
LEDs
 70
    0
 10
0
 20
0
  3
LEDs
  1

  0
INSERT
  5
130
100
AcDbEntity
  8
Plate
  6
ByLayer
 62
  256
370
   -1
100
AcDbBlockReference
  2
LED
 10
0
 20
0
 30
0
 41
1
 42
1
 43
0
 50
0
 70
    1
 71
    1
 44
0
 45
0
  0
INSERT
  5
131
100
AcDbEntity
  8
Plate
  6
ByLayer
 62
  256
370
   -1
100
AcDbBlockReference
  2
LED
 10
0
 20
-19
 30
0
 41
1
 42
1
 43
0
 50
0
 70
    1
 71
    1
 44
1
 45
1
  0
INSERT
  5
132
100
AcDbEntity
  8
Plate
  6
ByLayer
 62
  256
370
   -1
100
AcDbBlockReference
  2
LED
 10
0
 20
-38
 30
0
 41
1
 42
1
 43
0
 50
0
 70
    1
 71
    1
 44
1
 45
1
  0
ENDBLK
  5
A7
330
A5
100
AcDbEntity
  8
0
100
AcDbBlockEnd
  0
BLOCK
  5
A9
330
A8
100
AcDbEntity
  8
0
100
AcDbBlockBegin
  2
Frame 1 key
 70
    0
 10
0
 20
0
  3
Frame 1 key
  1

  0
LWPOLYLINE
  5
133
100
AcDbEntity
  8
Frame
  6
ByLayer
 62
  256
370
   -1
100
AcDbPolyline
 90
    8
 70
    1
 43
0
 10
-10.5
 20
-9.5
 10
-10.5
 20
9.5
 42
-0.414213562373095
 10
-9.5
 20
10.5
 10
9.5
 20
10.5
 42
-0.414213562373095
 10
10.5
 20
9.5
 10
10.5
 20
-9.5
 42
-0.414213562373095
 10
9.5
 20
-10.5
 10
-9.5
 20
-10.5
 42
-0.414213562373095
  0
ENDBLK
  5
AA
330
A8
100
AcDbEntity
  8
0
100
AcDbBlockEnd
  0
BLOCK
  5
AC
330
AB
100
AcDbEntity
  8
0
100
AcDbBlockBegin
  2
Frame Fgroup
 70
    0
 10
0
 20
0
  3
Frame Fgroup
  1

  0
LWPOLYLINE
  5
134
100
AcDbEntity
  8
Frame
  6
ByLayer
 62
  256
370
   -1
100
AcDbPolyline
 90
    8
 70
    1
 43
0
 10
-9.5
 20
-10.5
 42
-0.414213562373095
 10
-10.5
 20
-9.5
 10
-10.5
 20
9.5
 42
-0.414213562373095
 10
-9.5
 20
10.5
 10
66.5
 20
10.5
 42
-0.414213562373095
 10
67.5
 20
9.5
 10
67.5
 20
-9.5
 42
-0.414213562373095
 10
66.5
 20
-10.5
  0
ENDBLK
  5
AD
330
AB
100
AcDbEntity
  8
0
100
AcDbBlockEnd
  0
BLOCK
  5
AF
330
AE
100
AcDbEntity
  8
0
100
AcDbBlockBegin
  2
Frame Key 1.5
 70
    0
 10
0
 20
0
  3
Frame Key 1.5
  1

  0
LWPOLYLINE
  5
135
100
AcDbEntity
  8
Frame
  6
ByLayer
 62
  256
370
   -1
100
AcDbPolyline
 90
    8
 70
    1
 43
0
 10
14.25000033453024
 20
-10.49999999999994
 42
0.4142134397024082
 10
15.25
 20
-9.499999915706304
 10
15.24999999999989
 20
9.500000476837164
 42
0.4142134227107318
 10
14.25
 20
10.5
 10
-14.25000007300049
 20
10.5
 42
0.4142134756706579
 10
-15.25
 20
9.499999776979839
 10
-15.24999999999989
 20
-9.500000476837164
 42
0.4142134227107318
 10
-14.25
 20
-10.5
  0
ENDBLK
  5
B0
330
AE
100
AcDbEntity
  8
0
100
AcDbBlockEnd
  0
BLOCK
  5
B2
330
B1
100
AcDbEntity
  8
0
100
AcDbBlockBegin
  2
Case screw
 70
    0
 10
0
 20
0
  3
Case screw
  1

  0
CIRCLE
  5
136
100
AcDbEntity
  8
Case
  6
ByLayer
 62
  256
370
   -1
100
AcDbCircle
 10
0
 20
0
 40
1.6
  0
ENDBLK
  5
B3
330
B1
100
AcDbEntity
  8
0
100
AcDbBlockEnd
  0
BLOCK
  5
B5
330
B4
100
AcDbEntity
  8
0
100
AcDbBlockBegin
  2
Palm support
 70
    0
 10
0
 20
0
  3
Palm support
  1

  0
CIRCLE
  5
137
100
AcDbEntity
  8
Palm supports
  6
ByLayer
 62
  256
370
   -1
100
AcDbCircle
 10
142.5000000000001
 20
19.99999999999997
 40
3.5
  0
LINE
  5
138
100
AcDbEntity
  8
Palm supports
  6
ByLayer
 62
  256
370
   -1
100
AcDbLine
 10
-2.849773478719589e-14
 20
8.661995272432386e-18
 11
18.99999999999991
 21
4.999768519422874e-15
  0
LINE
  5
139
100
AcDbEntity
  8
Palm supports
  6
ByLayer
 62
  256
370
   -1
100
AcDbLine
 10
168.0000000000001
 20
3.519783478922713e-14
 11
180
 21
-3.293019987778777e-16
  0
LINE
  5
13A
100
AcDbEntity
  8
Palm supports
  6
ByLayer
 62
  256
370
   -1
100
AcDbLine
 10
-7.068620972295184e-14
 20
-10.00000000000005
 11
-2.849773478719589e-14
 21
8.661995272432386e-18
  0
LINE
  5
13B
100
AcDbEntity
  8
Palm supports
  6
ByLayer
 62
  256
370
   -1
100
AcDbLine
 10
180
 20
-3.293019987778777e-16
 11
180
 21
-9.999999999999936
  0
LINE
  5
13C
100
AcDbEntity
  8
Palm supports
  6
ByLayer
 62
  256
370
   -1
100
AcDbLine
 10
167.9999999999999
 20
37
 11
168.0000000000001
 21
3.519783478922713e-14
  0
LINE
  5
13D
100
AcDbEntity
  8
Palm supports
  6
ByLayer
 62
  256
370
   -1
100
AcDbLine
 10
168.0000000000001
 20
3.519783478922713e-14
 11
18.99999999999991
 21
4.999768519422874e-15
  0
LINE
  5
13E
100
AcDbEntity
  8
Palm supports
  6
ByLayer
 62
  256
370
   -1
100
AcDbLine
 10
18.99999999999991
 20
4.999768519422874e-15
 11
19
 21
37.00000000000002
  0
ARC
  5
13F
100
AcDbEntity
  8
Palm supports
  6
ByLayer
 62
  256
370
   -1
100
AcDbCircle
 10
25.99999999999996
 20
36.99999999999999
 40
6.999999999999967
100
AcDbArc
 50
89.99999999999977
 51
179.9999999999998
  0
LINE
  5
140
100
AcDbEntity
  8
Palm supports
  6
ByLayer
 62
  256
370
   -1
100
AcDbLine
 10
25.99999999999999
 20
43.99999999999996
 11
161
 21
44.00000000000001
  0
ARC
  5
141
100
AcDbEntity
  8
Palm supports
  6
ByLayer
 62
  256
370
   -1
100
AcDbCircle
 10
161.0000000000001
 20
37.00000000000014
 40
6.999999999999872
100
AcDbArc
 50
359.9999999999989
 51
90.00000000000102
  0
LINE
  5
142
100
AcDbEntity
  8
Palm supports
  6
ByLayer
 62
  256
370
   -1
100
AcDbLine
 10
12.8986837026669
 20
-76.33608761371549
 11
-7.068620972295184e-14
 21
-10.00000000000005
  0
LINE
  5
143
100
AcDbEntity
  8
Palm supports
  6
ByLayer
 62
  256
370
   -1
100
AcDbLine
 10
-7.068620972295184e-14
 20
-10.00000000000005
 11
180
 21
-9.999999999999936
  0
LINE
  5
144
100
AcDbEntity
  8
Palm supports
  6
ByLayer
 62
  256
370
   -1
100
AcDbLine
 10
180
 20
-9.999999999999936
 11
180.0000000000001
 21
-75.00000000000004
  0
ARC
  5
145
100
AcDbEntity
  8
Palm supports
  6
ByLayer
 62
  256
370
   -1
100
AcDbCircle
 10
173.0000000000001
 20
-75.00000000000003
 40
7.000000000000048
100
AcDbArc
 50
269.9999999999992
 51
359.9999999999999
  0
LINE
  5
146
100
AcDbEntity
  8
Palm supports
  6
ByLayer
 62
  256
370
   -1
100
AcDbLine
 10
172.9999999999999
 20
-82.00000000000007
 11
19.76999143034686
 21
-82.00000000000001
  0
ARC
  5
147
100
AcDbEntity
  8
Palm supports
  6
ByLayer
 62
  256
370
   -1
100
AcDbCircle
 10
19.76999143034695
 20
-75.00000000000007
 40
6.999999999999948
100
AcDbArc
 50
191.0035408517484
 51
269.9999999999993
  0
LINE
  5
148
100
AcDbEntity
  8
Spacer
  6
ByLayer
 62
  256
370
   -1
100
AcDbLine
 10
27.08438114059232
 20
25.04999999999994
 11
32.91561885940754
 21
25.04999999999995
  0
LINE
  5
149
100
AcDbEntity
  8
Spacer
  6
ByLayer
 62
  256
370
   -1
100
AcDbLine
 10
32.91561885940754
 20
25.04999999999995
 11
35.83123771881516
 21
19.99999999999995
  0
LINE
  5
14A
100
AcDbEntity
  8
Spacer
  6
ByLayer
 62
  256
370
   -1
100
AcDbLine
 10
32.91561885940754
 20
14.94999999999995
 11
35.83123771881516
 21
19.99999999999995
  0
LINE
  5
14B
100
AcDbEntity
  8
Spacer
  6
ByLayer
 62
  256
370
   -1
100
AcDbLine
 10
27.08438114059231
 20
14.94999999999994
 11
32.91561885940754
 21
14.94999999999995
  0
LINE
  5
14C
100
AcDbEntity
  8
Spacer
  6
ByLayer
 62
  256
370
   -1
100
AcDbLine
 10
24.1687622811847
 20
19.99999999999994
 11
27.08438114059232
 21
25.04999999999994
  0
LINE
  5
14D
100
AcDbEntity
  8
Spacer
  6
ByLayer
 62
  256
370
   -1
100
AcDbLine
 10
24.1687622811847
 20
19.99999999999994
 11
27.08438114059231
 21
14.94999999999994
  0
LINE
  5
14E
100
AcDbEntity
  8
Spacer
  6
ByLayer
 62
  256
370
   -1
100
AcDbLine
 10
87.4156188594076
 20
25.04999999999998
 11
90.33123771881522
 21
19.99999999999997
  0
LINE
  5
14F
100
AcDbEntity
  8
Spacer
  6
ByLayer
 62
  256
370
   -1
100
AcDbLine
 10
87.4156188594076
 20
14.94999999999998
 11
90.33123771881522
 21
19.99999999999997
  0
LINE
  5
150
100
AcDbEntity
  8
Spacer
  6
ByLayer
 62
  256
370
   -1
100
AcDbLine
 10
81.58438114059237
 20
14.94999999999998
 11
87.4156188594076
 21
14.94999999999998
  0
LINE
  5
151
100
AcDbEntity
  8
Spacer
  6
ByLayer
 62
  256
370
   -1
100
AcDbLine
 10
78.66876228118478
 20
19.99999999999994
 11
81.58438114059237
 21
14.94999999999998
  0
LINE
  5
152
100
AcDbEntity
  8
Spacer
  6
ByLayer
 62
  256
370
   -1
100
AcDbLine
 10
81.58438114059241
 20
25.04999999999997
 11
87.4156188594076
 21
25.04999999999998
  0
LINE
  5
153
100
AcDbEntity
  8
Spacer
  6
ByLayer
 62
  256
370
   -1
100
AcDbLine
 10
78.66876228118478
 20
19.99999999999994
 11
81.58438114059241
 21
25.04999999999997
  0
CIRCLE
  5
154
100
AcDbEntity
  8
Palm supports
  6
ByLayer
 62
  256
370
   -1
100
AcDbCircle
 10
29.99999999999993
 20
19.99999999999994
 40
3.5
  0
CIRCLE
  5
155
100
AcDbEntity
  8
Palm supports
  6
ByLayer
 62
  256
370
   -1
100
AcDbCircle
 10
84.5
 20
19.99999999999999
 40
3.5
  0
CIRCLE
  5
156
100
AcDbEntity
  8
Bottom
  6
ByLayer
 62
  256
370
   -1
100
AcDbCircle
 10
29.99999999999993
 20
19.99999999999994
 40
3.2
  0
CIRCLE
  5
157
100
AcDbEntity
  8
Bottom
  6
ByLayer
 62
  256
370
   -1
100
AcDbCircle
 10
84.5
 20
19.99999999999999
 40
3.2
  0
ENDBLK
  5
B6
330
B4
100
AcDbEntity
  8
0
100
AcDbBlockEnd
  0
BLOCK
  5
B8
330
B7
100
AcDbEntity
  8
0
100
AcDbBlockBegin
  2
Keyswitch cutout
 70
    0
 10
0
 20
0
  3
Keyswitch cutout
  1

  0
LINE
  5
158
100
AcDbEntity
  8
Plate
  6
ByLayer
 62
  256
370
   -1
100
AcDbLine
 10
7.749999999999999
 20
-6.4
 11
7.75
 21
6.4
  0
LINE
  5
159
100
AcDbEntity
  8
Plate
  6
ByLayer
 62
  256
370
   -1
100
AcDbLine
 10
-7.75
 20
-6.4
 11
7.749999999999999
 21
-6.4
  0
LINE
  5
15A
100
AcDbEntity
  8
Plate
  6
ByLayer
 62
  256
370
   -1
100
AcDbLine
 10
-7.749999999999999
 20
6.4
 11
7.75
 21
6.4
  0
LINE
  5
15B
100
AcDbEntity
  8
Plate
  6
ByLayer
 62
  256
370
   -1
100
AcDbLine
 10
-7.75
 20
-6.4
 11
-7.749999999999999
 21
6.4
  0
ENDBLK
  5
B9
330
B7
100
AcDbEntity
  8
0
100
AcDbBlockEnd
  0
ENDSEC
  0
SECTION
  2
ENTITIES
  0
LWPOLYLINE
  5
15C
100
AcDbEntity
  8
Frame
  6
ByLayer
 62
  256
370
   -1
100
AcDbPolyline
 90
  120
 70
    1
 43
0
 10
-94.1581416188282
 20
18.91578353885167
 10
-91.40249120311583
 20
30.8518168324708
 42
-0.4142135623730906
 10
-90.20317008398675
 20
31.60123584291217
 10
-73.63887898263775
 20
27.77706791906645
 42
0.4142135623730961
 10
-72.43955786350864
 20
28.52648692950784
 10
-71.82094246406305
 20
31.20600460766721
 42
-0.4142135623730989
 10
-70.62162134493396
 20
31.9554236181086
 10
-52.10859011401446
 20
27.68135358557516
 42
-0.4142135623730958
 10
-51.35917110357309
 20
26.48203246644606
 10
-51.97778650301872
 20
23.80251478828666
 42
0.4142135623730939
 10
-51.22836749257736
 20
22.60319366915756
 10
-34.66407639122835
 20
18.77902574531185
 42
-0.4142135623730958
 10
-33.91465738078698
 20
17.57970462618275
 10
-34.53327278023261
 20
14.90018694802335
 42
0.4142135623730974
 10
-33.78385376979124
 20
13.70086582889425
 10
-17.21956266844224
 20
9.876697905048546
 42
-0.4142135623730945
 10
-16.47014365800088
 20
8.677376785919446
 10
-17.0887590574465
 20
5.997859107760045
 42
0.4142135623730954
 10
-16.33934004700513
 20
4.798537988630945
 10
-0.2249510543438654
 20
1.078238150801549
 42
0.1139356083016464
 10
0.2249510543438685
 20
1.078238150801549
 10
16.33934004700513
 20
4.79853798863094
 42
0.4142135623730955
 10
17.0887590574465
 20
5.997859107760041
 10
16.47014365800086
 20
8.677376785919437
 42
-0.4142135623730955
 10
17.21956266844223
 20
9.876697905048539
 10
33.78385376979125
 20
13.70086582889425
 42
0.4142135623730966
 10
34.53327278023261
 20
14.90018694802335
 10
33.91465738078699
 20
17.57970462618274
 42
-0.4142135623730969
 10
34.66407639122836
 20
18.77902574531184
 10
51.22836749257733
 20
22.60319366915754
 42
0.4142135623730969
 10
51.97778650301871
 20
23.80251478828664
 10
51.35917110357308
 20
26.48203246644605
 42
-0.4142135623730948
 10
52.10859011401445
 20
27.68135358557514
 10
70.62162134493396
 20
31.95542361810859
 42
-0.414213562373093
 10
71.82094246406304
 20
31.20600460766721
 10
72.43955786350868
 20
28.52648692950781
 42
0.4142135623730935
 10
73.63887898263778
 20
27.77706791906645
 10
90.20317008398676
 20
31.60123584291216
 42
-0.4142135623730923
 10
91.40249120311584
 20
30.85181683247079
 10
94.1581416188282
 20
18.91578353885165
 42
0.4142135623730955
 10
95.35746273795729
 20
18.16636452841028
 10
130.4347850702257
 20
26.26460248478942
 42
-0.4142135623730929
 10
131.6341061893548
 20
25.51518347434804
 10
132.2527215888005
 20
22.83566579618865
 42
0.4142135623730969
 10
133.4520427079296
 20
22.08624678574727
 10
150.0163338092786
 20
25.91041470959299
 42
-0.4142135623730929
 10
151.2156549284077
 20
25.1609956991516
 10
168.3119350585414
 20
-48.89112922452626
 42
-0.4142135623731
 10
167.5625160481
 20
-50.09045034365537
 10
149.0494848171806
 20
-54.36452037618881
 42
-0.4142135623730921
 10
147.8501636980515
 20
-53.61510136574742
 10
147.231548298606
 20
-50.935583687588
 42
0.414213562373096
 10
146.0322271794769
 20
-50.18616467714663
 10
112.9036449767788
 20
-57.83450052483806
 42
0.4142135623730974
 10
112.1542259663374
 20
-59.03382164396717
 10
113.8413588739164
 20
-66.34159712985644
 42
-0.4142135623730909
 10
113.091939863475
 20
-67.54091824898551
 10
96.52764876212602
 20
-71.36508617283123
 42
0.4142135623730959
 10
95.77822975168466
 20
-72.56440729196032
 10
97.46536265926365
 20
-79.87218277784959
 42
-0.4142135623730867
 10
96.71594364882229
 20
-81.07150389697867
 10
78.20291241790284
 20
-85.3455739295121
 42
-0.4142135623730872
 10
77.00359129877376
 20
-84.59615491907074
 10
75.31645839119474
 20
-77.28837943318149
 42
0.414213562373094
 10
74.11713727206565
 20
-76.5389604227401
 10
40.98855506936763
 20
-84.18729627043153
 42
0.4142135623730954
 10
40.23913605892626
 20
-85.38661738956063
 10
46.20033899903871
 20
-111.2074241063693
 42
-0.4142135623730893
 10
45.45091998859734
 20
-112.4067452254984
 10
26.93788875767786
 20
-116.6808152580319
 42
-0.4142135623730938
 10
25.73856763854876
 20
-115.9313962475906
 10
17.19042757348188
 20
-78.90533378575162
 42
-0.4142135623730993
 10
17.93984658392325
 20
-77.70601266662251
 10
34.50413768527221
 20
-73.88184474277679
 42
0.4142135623730935
 10
35.25355669571361
 20
-72.68252362364768
 10
35.08484340495576
 20
-71.95174607505876
 42
0.4142135623731021
 10
33.88552228582666
 20
-71.20232706461738
 10
17.32123118447761
 20
-75.02649498846311
 42
-0.4142135623730971
 10
16.12191006534851
 20
-74.27707597802174
 10
0.974370064785232
 20
-8.665871910827747
 42
0.7954359166678298
 10
-0.9743700647852387
 20
-8.665871910827743
 10
-16.12191006534852
 20
-74.27707597802174
 42
-0.4142135623731018
 10
-17.32123118447763
 20
-75.02649498846313
 10
-33.8855222858266
 20
-71.20232706461741
 42
0.4142135623730925
 10
-35.08484340495573
 20
-71.95174607505876
 10
-35.25355669571362
 20
-72.6825236236477
 42
0.4142135623730945
 10
-34.50413768527225
 20
-73.88184474277679
 10
-17.93984658392325
 20
-77.70601266662247
 42
-0.4142135623730953
 10
-17.19042757348188
 20
-78.90533378575157
 10
-25.73856763854878
 20
-115.9313962475905
 42
-0.4142135623730961
 10
-26.93788875767788
 20
-116.6808152580319
 10
-45.45091998859733
 20
-112.4067452254985
 42
-0.4142135623730966
 10
-46.20033899903871
 20
-111.2074241063694
 10
-40.23913605892626
 20
-85.38661738956063
 42
0.4142135623730953
 10
-40.98855506936763
 20
-84.18729627043153
 10
-74.11713727206565
 20
-76.5389604227401
 42
0.414213562373091
 10
-75.31645839119473
 20
-77.28837943318148
 10
-77.00359129877371
 20
-84.5961549190707
 42
-0.4142135623730943
 10
-78.20291241790282
 20
-85.34557392951208
 10
-96.71594364882229
 20
-81.07150389697867
 42
-0.4142135623730868
 10
-97.46536265926365
 20
-79.87218277784959
 10
-95.77822975168465
 20
-72.56440729196029
 42
0.4142135623730961
 10
-96.52764876212603
 20
-71.36508617283121
 10
-113.091939863475
 20
-67.54091824898549
 42
-0.4142135623730901
 10
-113.8413588739164
 20
-66.3415971298564
 10
-112.1542259663374
 20
-59.03382164396712
 42
0.414213562373095
 10
-112.9036449767788
 20
-57.83450052483803
 10
-146.0322271794768
 20
-50.18616467714661
 42
0.4142135623731038
 10
-147.2315482986059
 20
-50.93558368758795
 10
-147.8501636980515
 20
-53.61510136574735
 42
-0.4142135623730945
 10
-149.0494848171806
 20
-54.36452037618874
 10
-167.5625160481001
 20
-50.0904503436553
 42
-0.4142135623730924
 10
-168.3119350585415
 20
-48.8911292245262
 10
-151.2156549284078
 20
25.16099569915167
 42
-0.4142135623731011
 10
-150.0163338092787
 20
25.91041470959306
 10
-133.4520427079296
 20
22.08624678574732
 42
0.4142135623731026
 10
-132.2527215888005
 20
22.83566579618869
 10
-131.6341061893549
 20
25.51518347434809
 42
-0.4142135623731055
 10
-130.4347850702258
 20
26.26460248478944
 10
-95.35746273795729
 20
18.1663645284103
 42
0.4142135623730976
  0
ARC
  5
15D
100
AcDbEntity
  8
Case
  6
ByLayer
 62
  256
370
   -1
100
AcDbCircle
 10
-143.6341734071064
 20
58
 40
9.5
100
AcDbArc
 50
90
 51
167
  0
LINE
  5
15E
100
AcDbEntity
  8
Case
  6
ByLayer
 62
  256
370
   -1
100
AcDbLine
 10
-143.6341734071064
 20
67.5
 11
143.6341734071063
 21
67.5
  0
ARC
  5
15F
100
AcDbEntity
  8
Case
  6
ByLayer
 62
  256
370
   -1
100
AcDbCircle
 10
143.6341734071063
 20
58
 40
9.5
100
AcDbArc
 50
12.99999999999996
 51
89.99999999999983
  0
LINE
  5
160
100
AcDbEntity
  8
Case lower
  6
ByLayer
 62
  256
370
   -1
100
AcDbLine
 10
188.3661012825067
 20
-93.52385731795106
 11
1.13686837721616e-13
 21
-137.0115983904176
  0
LINE
  5
161
100
AcDbEntity
  8
Case lower
  6
ByLayer
 62
  256
370
   -1
100
AcDbLine
 10
1.13686837721616e-13
 20
-137.0115983904176
 11
-188.3661012825067
 21
-93.52385731795093
  0
LINE
  5
162
100
AcDbEntity
  8
Case
  6
ByLayer
 62
  256
370
   -1
100
AcDbLine
 10
-188.3661012825067
 20
-93.52385731795094
 11
-152.8906890225661
 21
60.13703501626672
  0
LINE
  5
163
100
AcDbEntity
  8
Case
  6
ByLayer
 62
  256
370
   -1
100
AcDbLine
 10
152.890689022566
 20
60.13703501626671
 11
188.3661012825067
 21
-93.52385731795106
  0
LINE
  5
164
100
AcDbEntity
  8
Case upper
  6
ByLayer
 62
  256
370
   -1
100
AcDbLine
 10
181.3590962104855
 20
-105.4045929820701
 11
2.13703501626668
 21
-146.7812660597741
  0
ARC
  5
165
100
AcDbEntity
  8
Case upper
  6
ByLayer
 62
  256
370
   -1
100
AcDbCircle
 10
0
 20
-137.5247504443143
 40
9.5
100
AcDbArc
 50
257.0000000000001
 51
282.9999999999998
  0
LINE
  5
166
100
AcDbEntity
  8
Case upper
  6
ByLayer
 62
  256
370
   -1
100
AcDbLine
 10
-2.137035016266711
 20
-146.7812660597741
 11
-181.3590962104856
 21
-105.40459298207
  0
ARC
  5
167
100
AcDbEntity
  8
Case upper
  6
ByLayer
 62
  256
370
   -1
100
AcDbCircle
 10
-179.2220611942189
 20
-96.14807736661024
 40
9.5
100
AcDbArc
 50
167.0000000000001
 51
257.0000000000001
  0
ARC
  5
168
100
AcDbEntity
  8
Case upper
  6
ByLayer
 62
  256
370
   -1
100
AcDbCircle
 10
179.2220611942188
 20
-96.14807736661039
 40
9.5
100
AcDbArc
 50
282.9999999999999
 51
12.99999999999985
  0
LINE
  5
169
100
AcDbEntity
  8
Case upper
  6
ByLayer
 62
  256
370
   -1
100
AcDbLine
 10
-188.4785768096786
 20
-94.01104235034353
 11
-188.3661012825067
 21
-93.52385731795094
  0
LINE
  5
16A
100
AcDbEntity
  8
Case upper
  6
ByLayer
 62
  256
370
   -1
100
AcDbLine
 10
188.3661012825067
 20
-93.52385731795106
 11
188.4785768096786
 21
-94.0110423503437
  0
DIMENSION
  5
16B
100
AcDbEntity
  8
Labels
  6
ByLayer
 62
  256
370
   -1
100
AcDbDimension
  2
*D1
 10
-80.75
 20
67.5
 30
0
 11
-82.625
 21
62.75
 31
0
 70
   32
 71
    5
 72
    0
  3
Standard
 53
0
210
0
220
0
230
1
100
AcDbAlignedDimension
 13
-80.75
 23
58
 33
0
 14
-80.75
 24
67.5
 34
0
 50
90
100
AcDbRotatedDimension
  0
DIMENSION
  5
16C
100
AcDbEntity
  8
Labels
  6
ByLayer
 62
  256
370
   -1
100
AcDbDimension
  2
*D2
 10
-179.2220611942189
 20
-96.14807736661024
 30
0
 11
-184.2613389961368
 21
-96.97500193094332
 31
0
 70
   36
 71
    5
 72
    0
  3
Standard
 53
0
210
0
220
0
230
1
100
AcDbRadialDimension
 15
-187.3770883293892
 25
-101.0210161538963
 35
0
 40
0
  0
DIMENSION
  5
16D
100
AcDbEntity
  8
Labels
  6
ByLayer
 62
  256
370
   -1
100
AcDbDimension
  2
*D3
 10
0
 20
-137.5247504443143
 30
0
 11
-1.875000000000001
 21
-142.2747504443143
 31
0
 70
   36
 71
    5
 72
    0
  3
Standard
 53
0
210
0
220
0
230
1
100
AcDbRadialDimension
 15
-1.745121688784978e-15
 25
-147.0247504443143
 35
0
 40
0
  0
DIMENSION
  5
16E
100
AcDbEntity
  8
Labels
  6
ByLayer
 62
  256
370
   -1
100
AcDbDimension
  2
*D4
 10
-160.2177661918223
 20
-51.78611945724391
 30
0
 11
-161.9322345361226
 21
-50.87715119795653
 31
0
 70
   32
 71
    5
 72
    0
  3
Standard
 53
0
210
0
220
0
230
1
100
AcDbAlignedDimension
 13
-159.0314590757922
 23
-51.03369592744775
 33
0
 14
-159.3720289368867
 24
-51.98137328745838
 34
0
 50
77
100
AcDbRotatedDimension
  0
DIMENSION
  5
16F
100
AcDbEntity
  8
Labels
  6
ByLayer
 62
  256
370
   -1
100
AcDbDimension
  2
*D5
 10
-113.1285960311227
 20
-58.80887058962326
 30
0
 11
-117.3243527206389
 21
-59.23648693712526
 31
0
 70
   36
 71
    5
 72
    0
  3
Standard
 53
0
210
0
220
0
230
1
100
AcDbRadialDimension
 15
-113.974644335624
 25
-59.34197683274029
 35
0
 40
0
  0
DIMENSION
  5
170
100
AcDbEntity
  8
Labels
  6
ByLayer
 62
  256
370
   -1
100
AcDbDimension
  2
*D6
 10
-148.8245337628368
 20
-53.3901503114035
 30
0
 11
-145.5447157294532
 21
-56.04156947972895
 31
0
 70
   36
 71
    5
 72
    0
  3
Standard
 53
0
210
0
220
0
230
1
100
AcDbRadialDimension
 15
-148.4074360603385
 25
-54.29901196565606
 35
0
 40
0
  0
LINE
  5
171
100
AcDbEntity
  8
Construction: LED placement
  6
CENTERTINY
 62
  256
370
   -1
100
AcDbLine
 10
5.684341886080801e-14
 20
-68.24922316826053
 11
31.76712873141233
 21
-60.91520362078647
  0
LINE
  5
172
100
AcDbEntity
  8
Construction: LED placement
  6
CENTERTINY
 62
  256
370
   -1
100
AcDbLine
 10
5.684341886080801e-14
 20
-68.24922316826053
 11
-31.76712873141235
 21
-60.91520362078646
  0
LINE
  5
173
100
AcDbEntity
  8
Construction: Case screws: corners
  6
ByLayer
 62
  256
370
   -1
100
AcDbLine
 10
187.2975837743733
 20
-88.89559951022119
 11
168.7845525434538
 21
-93.1696695427546
  0
LINE
  5
174
100
AcDbEntity
  8
Construction: Case screws: corners
  6
ByLayer
 62
  256
370
   -1
100
AcDbLine
 10
179.4637734422434
 20
-76.07934359516508
 11
183.7378434747768
 21
-94.59237482608441
  0
DIMENSION
  5
175
100
AcDbEntity
  8
Construction: Case screws: corners
  6
ByLayer
 62
  256
370
   -1
100
AcDbDimension
  2
*D7
 10
176.0648631009641
 20
-96.36382192552843
 30
0
 11
177.3575482183698
 21
-93.62790979476871
 31
0
 70
   33
 71
    5
 72
    0
  3
Standard
 53
0
210
0
220
0
230
1
100
AcDbAlignedDimension
 13
182.6693259666435
 23
-89.96411701835456
 33
0
 14
183.7378434747768
 24
-94.59237482608441
 34
0
  0
DIMENSION
  5
176
100
AcDbEntity
  8
Construction: Case screws: corners
  6
ByLayer
 62
  256
370
   -1
100
AcDbDimension
  2
*D8
 10
185.4085720407493
 20
-80.71339075978912
 30
0
 11
182.6726599099896
 21
-79.4207056423835
 31
0
 70
   33
 71
    5
 72
    0
  3
Standard
 53
0
210
0
220
0
230
1
100
AcDbAlignedDimension
 13
182.6693259666434
 23
-89.96411701835456
 33
0
 14
187.2975837743733
 24
-88.8955995102212
 34
0
  0
LINE
  5
177
100
AcDbEntity
  8
Construction: Case screws: corners
  6
ByLayer
 62
  256
370
   -1
100
AcDbLine
 10
1.068517508133466
 20
-132.3833405826878
 11
-18.51303123091935
 21
-127.8625838458656
  0
LINE
  5
178
100
AcDbEntity
  8
Construction: Case screws: corners
  6
ByLayer
 62
  256
370
   -1
100
AcDbLine
 10
18.51303123091961
 20
-127.8625838458656
 11
-1.068517508133236
 21
-132.3833405826878
  0
DIMENSION
  5
179
100
AcDbEntity
  8
Construction: Case screws: corners
  6
ByLayer
 62
  256
370
   -1
100
AcDbDimension
  2
*D9
 10
-11.4946885820989
 20
-134.3578404299168
 30
0
 11
-12.78737369950454
 21
-131.6219282991571
 31
0
 70
   32
 71
    5
 72
    0
  3
Standard
 53
0
210
0
220
0
230
1
100
AcDbAlignedDimension
 13
-9.035201781334694
 23
-130.0507131866878
 33
0
 14
-11.32943280309848
 24
-134.3959927326877
 34
0
 50
77
100
AcDbRotatedDimension
  0
ARC
  5
17A
100
AcDbEntity
  8
Construction: Case screws: corners
  6
ByLayer
 62
  256
370
   -1
100
AcDbCircle
 10
143.6341734071063
 20
58
 40
4.75
100
AcDbArc
 50
12.99999999999996
 51
89.99999999999983
  0
LINE
  5
17B
100
AcDbEntity
  8
Construction: Case screws: corners
  6
CENTERTINY
 62
  256
370
   -1
100
AcDbLine
 10
151.1908146154506
 20
67.5
 11
139.3630365193359
 21
52.63044501980414
  0
DIMENSION
  5
17C
100
AcDbEntity
  8
Construction: Case screws: corners
  6
ByLayer
 62
  256
370
   -1
100
AcDbDimension
  2
*D10
 10
154.1763213843925
 20
61.75329410615053
 30
0
 11
151.2304588282798
 21
61.06181467732146
 31
0
 70
   33
 71
    5
 72
    0
  3
Standard
 53
0
210
0
220
0
230
1
100
AcDbAlignedDimension
 13
146.5911179311346
 23
61.71738874504855
 33
0
 14
149.5480624551636
 24
65.43477749009784
 34
0
  0
LINE
  5
17D
100
AcDbEntity
  8
Construction: Case screws: top
  6
ByLayer
 62
  256
370
   -1
100
AcDbLine
 10
-151.686564043812
 20
44.23696876908046
 11
-147.4124940112786
 21
62.75000000000001
  0
LINE
  5
17E
100
AcDbEntity
  8
Construction: Case screws: top
  6
ByLayer
 62
  256
370
   -1
100
AcDbLine
 10
-147.4124940112786
 20
62.75000000000001
 11
147.4124940112785
 21
62.75
  0
LINE
  5
17F
100
AcDbEntity
  8
Construction: Case screws: top
  6
ByLayer
 62
  256
370
   -1
100
AcDbLine
 10
121.7680738160779
 20
173.8281873855171
 11
130.3162138811448
 21
136.8021249236779
  0
LINE
  5
180
100
AcDbEntity
  8
Construction: Case screws: top
  6
ByLayer
 62
  256
370
   -1
100
AcDbLine
 10
130.3162138811448
 20
136.8021249236779
 11
138.8643539462117
 21
99.77606246183896
  0
LINE
  5
181
100
AcDbEntity
  8
Construction: Case screws: top
  6
ByLayer
 62
  256
370
   -1
100
AcDbLine
 10
138.8643539462117
 20
99.77606246183896
 11
151.6865640438119
 21
44.23696876908053
  0
LINE
  5
182
100
AcDbEntity
  8
Construction: Case screws: top
  6
ByLayer
 62
  256
370
   -1
100
AcDbLine
 10
-147.4124940112786
 20
62.75
 11
121.7680738160779
 21
173.8281873855171
  0
INSERT
  5
183
100
AcDbEntity
  8
Case
  6
ByLayer
 62
  256
370
   -1
100
AcDbBlockReference
  2
Case screw
 10
182.6693259666435
 20
-89.96411701835456
 30
0
 41
1
 42
1
 43
0
 50
0
 70
    1
 71
    1
 44
1
 45
1
  0
INSERT
  5
184
100
AcDbEntity
  8
Case
  6
ByLayer
 62
  256
370
   -1
100
AcDbBlockReference
  2
Case screw
 10
1.13686837721616e-13
 20
-132.136653878399
 30
0
 41
1
 42
1
 43
0
 50
0
 70
    1
 71
    1
 44
1
 45
1
  0
INSERT
  5
185
100
AcDbEntity
  8
Case
  6
ByLayer
 62
  256
370
   -1
100
AcDbBlockReference
  2
Case screw
 10
-182.6693259666435
 20
-89.96411701835456
 30
0
 41
-1
 42
1
 43
0
 50
0
 70
    1
 71
    1
 44
1
 45
1
  0
INSERT
  5
186
100
AcDbEntity
  8
Case
  6
ByLayer
 62
  256
370
   -1
100
AcDbBlockReference
  2
Case screw
 10
146.5911179311346
 20
61.71738874504855
 30
0
 41
1
 42
1
 43
0
 50
0
 70
    1
 71
    1
 44
1
 45
1
  0
DIMENSION
  5
187
100
AcDbEntity
  8
Construction: Case screws: top
  6
ByLayer
 62
  256
370
   -1
100
AcDbDimension
  2
*D11
 10
137.936463340752
 20
67.5
 30
0
 11
136.061463340752
 21
65.125
 31
0
 70
   32
 71
    5
 72
    0
  3
Standard
 53
0
210
0
220
0
230
1
100
AcDbAlignedDimension
 13
139.2631506826432
 23
62.75
 33
0
 14
138.3266655001317
 24
67.5
 34
0
 50
90
100
AcDbRotatedDimension
  0
DIMENSION
  5
188
100
AcDbEntity
  8
Construction: Case screws: top
  6
ByLayer
 62
  256
370
   -1
100
AcDbDimension
  2
*D12
 10
154.2721579376812
 20
54.15323573937159
 30
0
 11
151.5362458069216
 21
55.44592085677723
 31
0
 70
   33
 71
    5
 72
    0
  3
Standard
 53
0
210
0
220
0
230
1
100
AcDbAlignedDimension
 13
149.6439001299514
 23
53.08471823123824
 33
0
 14
154.2721579376812
 24
54.15323573937159
 34
0
  0
INSERT
  5
189
100
AcDbEntity
  8
Case
  6
ByLayer
 62
  256
370
   -1
100
AcDbBlockReference
  2
Case screw
 10
49.13749800375967
 20
62.75
 30
0
 41
1
 42
1
 43
0
 50
0
 70
    1
 71
    1
 44
1
 45
1
  0
INSERT
  5
18A
100
AcDbEntity
  8
Case
  6
ByLayer
 62
  256
370
   -1
100
AcDbBlockReference
  2
Case screw
 10
-49.13749800375908
 20
62.75
 30
0
 41
1
 42
1
 43
0
 50
0
 70
    1
 71
    1
 44
1
 45
1
  0
INSERT
  5
18B
100
AcDbEntity
  8
Case
  6
ByLayer
 62
  256
370
   -1
100
AcDbBlockReference
  2
Case screw
 10
-146.5911179311346
 20
61.71738874504855
 30
0
 41
-1
 42
1
 43
0
 50
0
 70
    1
 71
    1
 44
1
 45
1
  0
DIMENSION
  5
18C
100
AcDbEntity
  8
Labels
  6
ByLayer
 62
  256
370
   -1
100
AcDbDimension
  2
*D13
 10
-143.6341734071064
 20
58
 30
0
 11
-142.5280105255234
 21
62.98543164424184
 31
0
 70
   36
 71
    5
 72
    0
  3
Standard
 53
0
210
0
220
0
230
1
100
AcDbRadialDimension
 15
-145.1253619466054
 25
67.38223623341827
 35
0
 40
0
  0
DIMENSION
  5
18D
100
AcDbEntity
  8
Labels
  6
ByLayer
 62
  256
370
   -1
100
AcDbDimension
  2
*D14
 10
-157.4913648135228
 20
-2.022090262230709
 30
0
 11
-161.6978393943579
 21
0.8733711173749653
 31
0
 70
   33
 71
    5
 72
    0
  3
Standard
 53
0
210
0
220
0
230
1
100
AcDbAlignedDimension
 13
-166.7478804289825
 23
0.1149447540360125
 33
0
 14
-157.4913648135228
 24
-2.022090262230704
 34
0
  0
INSERT
  5
18E
100
AcDbEntity
  8
0
  6
ByLayer
 62
  256
370
   -1
100
AcDbBlockReference
  2
Palm support
 10
-188.3661012825067
 20
-93.52385731795093
 30
0
 41
1
 42
1
 43
0
 50
347
 70
    1
 71
    1
 44
1
 45
1
  0
INSERT
  5
18F
100
AcDbEntity
  8
0
  6
ByLayer
 62
  256
370
   -1
100
AcDbBlockReference
  2
Palm support
 10
188.3661012825067
 20
-93.52385731795093
 30
0
 41
-1
 42
1
 43
0
 50
13.00000000000001
 70
    1
 71
    1
 44
1
 45
1
  0
DIMENSION
  5
190
100
AcDbEntity
  8
Labels
  6
ByLayer
 62
  256
370
   -1
100
AcDbDimension
  2
*D15
 10
25.73856763854876
 20
-115.9313962475906
 30
0
 11
0
 21
0
 31
0
 70
   34
 71
    5
 72
    0
  3
Standard
 53
0
210
0
220
0
230
1
100
AcDb2LineAngularDimension
 13
-17.19042757348188
 23
-78.90533378575157
 33
0
 14
-25.73856763854878
 24
-115.9313962475905
 34
0
 15
17.19042757348188
 25
-78.90533378575162
 35
0
 16
7.093792995984421
 26
-117.9809782490041
 36
0
  0
LINE
  5
191
100
AcDbEntity
  8
Construction: Case screws: top
  6
ByLayer
 62
  256
370
   -1
100
AcDbLine
 10
-54.89293805582938
 20
60.375
 11
135.0482370314861
 21
138.7548087984788
  0
LINE
  5
192
100
AcDbEntity
  8
Construction: Case screws: top
  6
ByLayer
 62
  256
370
   -1
100
AcDbLine
 10
43.38205795168939
 20
60.375
 11
143.596377096553
 21
101.7287463366398
  0
LWPOLYLINE
  5
193
100
AcDbEntity
  8
Spacer
  6
ByLayer
 62
  256
370
   -1
100
AcDbPolyline
 90
   10
 70
    1
 43
0
 10
80.96012972375837
 20
-113.9586872296808
 10
49.00079159880266
 20
-121.3370818121596
 10
-49.00079159880266
 20
-121.3370818121596
 10
-80.96012972375837
 20
-113.9586872296808
 10
-74.54902467495816
 20
-86.18914038330161
 10
-171.7424386372854
 20
-63.75027271250103
 10
-143.6341734071064
 20
58
 10
143.6341734071063
 20
58
 10
171.7424386372853
 20
-63.75027271250105
 10
74.5490246749581
 20
-86.18914038330163
  0
INSERT
  5
194
100
AcDbEntity
  8
0
  6
ByLayer
 62
  256
370
   -1
100
AcDbBlockReference
  2
LEDs
 10
0
 20
-68.24922316826054
 30
0
 41
1
 42
1
 43
0
 50
0
 70
    1
 71
    1
 44
1
 45
1
  0
INSERT
  5
195
100
AcDbEntity
  8
0
  6
ByLayer
 62
  256
370
   -1
100
AcDbBlockReference
  2
Hand
 10
0
 20
0
 30
0
 41
1
 42
1
 43
0
 50
347
 70
    1
 71
    1
 44
1
 45
1
  0
INSERT
  5
196
100
AcDbEntity
  8
0
  6
ByLayer
 62
  256
370
   -1
100
AcDbBlockReference
  2
Fkeys
 10
0
 20
47.5
 30
0
 41
1
 42
1
 43
0
 50
0
 70
    1
 71
    1
 44
0
 45
0
  0
INSERT
  5
197
100
AcDbEntity
  8
0
  6
ByLayer
 62
  256
370
   -1
100
AcDbBlockReference
  2
Hand
 10
0
 20
0
 30
0
 41
-1
 42
1
 43
0
 50
13.00000000000001
 70
    1
 71
    1
 44
1
 45
1
  0
ENDSEC
  0
SECTION
  2
OBJECTS
  0
DICTIONARY
  5
C
330
0
100
AcDbDictionary
281
    1
  3
ACAD_GROUP
350
D
  0
DICTIONARY
  5
D
330
C
100
AcDbDictionary
281
    1
  0
ENDSEC
  0
EOF
