999
dxfrw 0.6.3
999
last saved by ezdxf 0.7.9 on 2017-02-19 17:22:35
  0
SECTION
  2
HEADER
  9
$ACADVER
  1
AC1021
  9
$DWGCODEPAGE
  3
ANSI_1252
  9
$INSBASE
 10
0.0
 20
0.0
 30
0.0
  9
$EXTMIN
 10
-196.8011690055172
 20
-147.0247504443143
 30
0.0
  9
$EXTMAX
 10
191.7207087791733
 20
173.8281873855171
 30
0.0
  9
$LIMMIN
 10
0.0
 20
0.0
  9
$LIMMAX
 10
420.0
 20
297.0
  9
$ORTHOMODE
 70
0
  9
$REGENMODE
 70
1
  9
$FILLMODE
 70
1
  9
$QTEXTMODE
 70
0
  9
$MIRRTEXT
 70
0
  9
$LTSCALE
 40
1.0
  9
$ATTMODE
 70
0
  9
$TEXTSIZE
 40
2.5
  9
$TRACEWID
 40
15.68
  9
$TEXTSTYLE
  7
STANDARD
  9
$CLAYER
  8
0
  9
$CELTYPE
  6
BYLAYER
  9
$CECOLOR
 62
256
  9
$CELTSCALE
 40
1.0
  9
$DISPSILH
 70
0
  9
$DIMSCALE
 40
1.0
  9
$DIMASZ
 40
2.5
  9
$DIMEXO
 40
0.625
  9
$DIMDLI
 40
3.75
  9
$DIMRND
 40
0.0
  9
$DIMDLE
 40
0.0
  9
$DIMEXE
 40
1.25
  9
$DIMTP
 40
0.0
  9
$DIMTM
 40
0.0
  9
$DIMTXT
 40
2.5
  9
$DIMCEN
 40
2.5
  9
$DIMTSZ
 40
0.0
  9
$DIMTOL
 70
0
  9
$DIMLIM
 70
0
  9
$DIMTIH
 70
0
  9
$DIMTOH
 70
0
  9
$DIMSE1
 70
0
  9
$DIMSE2
 70
0
  9
$DIMTAD
 70
1
  9
$DIMZIN
 70
8
  9
$DIMBLK
  1

  9
$DIMASO
 70
1
  9
$DIMSHO
 70
1
  9
$DIMPOST
  1

  9
$DIMAPOST
  1

  9
$DIMALT
 70
0
  9
$DIMALTD
 70
3
  9
$DIMALTF
 40
0.03937
  9
$DIMLFAC
 40
1.0
  9
$DIMTOFL
 70
1
  9
$DIMTVP
 40
0.0
  9
$DIMTIX
 70
0
  9
$DIMSOXD
 70
0
  9
$DIMSAH
 70
0
  9
$DIMBLK1
  1

  9
$DIMBLK2
  1

  9
$DIMSTYLE
  2
STANDARD
  9
$DIMCLRD
 70
0
  9
$DIMCLRE
 70
0
  9
$DIMCLRT
 70
0
  9
$DIMTFAC
 40
1.0
  9
$DIMGAP
 40
0.625
  9
$DIMJUST
 70
0
  9
$DIMSD1
 70
0
  9
$DIMSD2
 70
0
  9
$DIMTOLJ
 70
0
  9
$DIMTZIN
 70
8
  9
$DIMALTZ
 70
0
  9
$DIMALTTZ
 70
0
  9
$DIMUPT
 70
0
  9
$DIMDEC
 70
2
  9
$DIMTDEC
 70
2
  9
$DIMALTU
 70
2
  9
$DIMALTTD
 70
3
  9
$DIMTXSTY
  7
standard
  9
$DIMAUNIT
 70
0
  9
$DIMADEC
 70
2
  9
$DIMALTRND
 40
0.0
  9
$DIMAZIN
 70
0
  9
$DIMDSEP
 70
0
  9
$DIMATFIT
 70
3
  9
$DIMFRAC
 70
0
  9
$DIMLDRBLK
  1
STANDARD
  9
$DIMLUNIT
 70
2
  9
$DIMLWD
 70
-2
  9
$DIMLWE
 70
-2
  9
$DIMTMOVE
 70
0
  9
$DIMFXL
 40
1.0
  9
$DIMFXLON
 70
0
  9
$DIMJOGANG
 40
0.7854
  9
$DIMTFILL
 70
0
  9
$DIMTFILLCLR
 70
0
  9
$DIMARCSYM
 70
0
  9
$DIMLTYPE
  6

  9
$DIMLTEX1
  6

  9
$DIMLTEX2
  6

  9
$LUNITS
 70
2
  9
$LUPREC
 70
2
  9
$SKETCHINC
 40
1.0
  9
$FILLETRAD
 40
0.0
  9
$AUNITS
 70
0
  9
$AUPREC
 70
2
  9
$MENU
  1
.
  9
$ELEVATION
 40
0.0
  9
$PELEVATION
 40
0.0
  9
$THICKNESS
 40
0.0
  9
$LIMCHECK
 70
0
  9
$CHAMFERA
 40
0.0
  9
$CHAMFERB
 40
0.0
  9
$CHAMFERC
 40
0.0
  9
$CHAMFERD
 40
0.0
  9
$SKPOLY
 70
0
  9
$USRTIMER
 70
1
  9
$ANGBASE
 50
0.0
  9
$ANGDIR
 70
0
  9
$PDMODE
 70
34
  9
$PDSIZE
 40
0.0
  9
$PLINEWID
 40
0.0
  9
$SPLFRAME
 70
0
  9
$SPLINETYPE
 70
2
  9
$SPLINESEGS
 70
8
  9
$HANDSEED
  5
20316
  9
$SURFTAB1
 70
6
  9
$SURFTAB2
 70
6
  9
$SURFTYPE
 70
6
  9
$SURFU
 70
6
  9
$SURFV
 70
6
  9
$UCSBASE
  2

  9
$UCSNAME
  2

  9
$UCSORG
 10
0.0
 20
0.0
 30
0.0
  9
$UCSXDIR
 10
1.0
 20
0.0
 30
0.0
  9
$UCSYDIR
 10
0.0
 20
1.0
 30
0.0
  9
$UCSORTHOREF
  2

  9
$UCSORTHOVIEW
 70
0
  9
$UCSORGTOP
 10
0.0
 20
0.0
 30
0.0
  9
$UCSORGBOTTOM
 10
0.0
 20
0.0
 30
0.0
  9
$UCSORGLEFT
 10
0.0
 20
0.0
 30
0.0
  9
$UCSORGRIGHT
 10
0.0
 20
0.0
 30
0.0
  9
$UCSORGFRONT
 10
0.0
 20
0.0
 30
0.0
  9
$UCSORGBACK
 10
0.0
 20
0.0
 30
0.0
  9
$PUCSBASE
  2

  9
$PUCSNAME
  2

  9
$PUCSORG
 10
0.0
 20
0.0
 30
0.0
  9
$PUCSXDIR
 10
1.0
 20
0.0
 30
0.0
  9
$PUCSYDIR
 10
0.0
 20
1.0
 30
0.0
  9
$PUCSORTHOREF
  2

  9
$PUCSORTHOVIEW
 70
0
  9
$PUCSORGTOP
 10
0.0
 20
0.0
 30
0.0
  9
$PUCSORGBOTTOM
 10
0.0
 20
0.0
 30
0.0
  9
$PUCSORGLEFT
 10
0.0
 20
0.0
 30
0.0
  9
$PUCSORGRIGHT
 10
0.0
 20
0.0
 30
0.0
  9
$PUCSORGFRONT
 10
0.0
 20
0.0
 30
0.0
  9
$PUCSORGBACK
 10
0.0
 20
0.0
 30
0.0
  9
$USERI1
 70
0
  9
$USERI2
 70
0
  9
$USERI3
 70
0
  9
$USERI4
 70
0
  9
$USERI5
 70
0
  9
$USERR1
 40
0.0
  9
$USERR2
 40
0.0
  9
$USERR3
 40
0.0
  9
$USERR4
 40
0.0
  9
$USERR5
 40
0.0
  9
$WORLDVIEW
 70
1
  9
$SHADEDGE
 70
3
  9
$SHADEDIF
 70
70
  9
$TILEMODE
 70
1
  9
$MAXACTVP
 70
64
  9
$PINSBASE
 10
0.0
 20
0.0
 30
0.0
  9
$PLIMCHECK
 70
0
  9
$PEXTMIN
 10
0.0
 20
0.0
 30
0.0
  9
$PEXTMAX
 10
0.0
 20
0.0
 30
0.0
  9
$GRIDMODE
 70
1
  9
$SNAPSTYLE
 70
0
  9
$GRIDUNIT
 10
4.75
 20
4.75
  9
$PLIMMIN
 10
0.0
 20
0.0
  9
$PLIMMAX
 10
297.0
 20
210.0
  9
$UNITMODE
 70
0
  9
$VISRETAIN
 70
1
  9
$PLINEGEN
 70
0
  9
$PSLTSCALE
 70
1
  9
$TREEDEPTH
 70
3020
  9
$CMLSTYLE
  2
Standard
  9
$CMLJUST
 70
0
  9
$CMLSCALE
 40
20.0
  9
$PROXYGRAPHICS
 70
1
  9
$MEASUREMENT
 70
1
  9
$CELWEIGHT
370
-1
  9
$ENDCAPS
280
0
  9
$JOINSTYLE
280
0
  9
$LWDISPLAY
290
0
  9
$INSUNITS
 70
4
  9
$HYPERLINKBASE
  1

  9
$STYLESHEET
  1

  9
$XEDIT
290
1
  9
$CEPSNTYPE
380
0
  9
$PSTYLEMODE
290
1
  9
$EXTNAMES
290
1
  9
$PSVPSCALE
 40
1.0
  9
$OLESTARTUP
290
0
  9
$SORTENTS
280
127
  9
$INDEXCTL
280
0
  9
$HIDETEXT
280
1
  9
$XCLIPFRAME
290
0
  9
$HALOGAP
280
0
  9
$OBSCOLOR
 70
257
  9
$OBSLTYPE
280
0
  9
$INTERSECTIONDISPLAY
280
0
  9
$INTERSECTIONCOLOR
 70
257
  9
$DIMASSOC
280
1
  9
$PROJECTNAME
  1

  9
$CAMERADISPLAY
290
0
  9
$LENSLENGTH
 40
50.0
  9
$CAMERAHEIGHT
 40
0.0
  9
$STEPSPERSEC
 40
2.0
  9
$STEPSIZE
 40
50.0
  9
$3DDWFPREC
 40
2.0
  9
$PSOLWIDTH
 40
5.0
  9
$PSOLHEIGHT
 40
80.0
  9
$LOFTANG1
 40
1.570796326794897
  9
$LOFTANG2
 40
1.570796326794897
  9
$LOFTMAG1
 40
0.0
  9
$LOFTMAG2
 40
0.0
  9
$LOFTPARAM
 70
7
  9
$LOFTNORMALS
280
1
  9
$LATITUDE
 40
1.0
  9
$LONGITUDE
 40
1.0
  9
$NORTHDIRECTION
 40
0.0
  9
$TIMEZONE
 70
-8000
  9
$LIGHTGLYPHDISPLAY
280
1
  9
$TILEMODELIGHTSYNCH
280
1
  9
$SOLIDHIST
280
1
  9
$SHOWHIST
280
1
  9
$DWFFRAME
280
2
  9
$DGNFRAME
280
0
  9
$REALWORLDSCALE
290
1
  9
$INTERFERECOLOR
 62
1
  9
$CSHADOW
280
0
  9
$SHADOWPLANELOCATION
 40
0.0
  9
$TDUPDATE
 40
2457804.7240162035
  0
ENDSEC
  0
SECTION
  2
CLASSES
  0
ENDSEC
  0
SECTION
  2
TABLES
  0
TABLE
  2
VPORT
  5
8
330
0
100
AcDbSymbolTable
 70
1
  0
VPORT
  5
31
330
8
100
AcDbSymbolTableRecord
100
AcDbViewportTableRecord
  2
*ACTIVE
 70
0
 10
0.0
 20
0.0
 11
1.0
 21
1.0
 12
182.5615200639846
 22
50.48258737660973
 13
0.0
 23
0.0
 14
10.0
 24
10.0
 15
4.75
 25
4.75
 16
0.0
 26
0.0
 36
1.0
 17
0.0
 27
0.0
 37
0.0
 40
313.1980931120277
 41
2.252631578947368
 42
50.0
 43
0.0
 44
0.0
 50
0.0
 51
0.0
 71
0
 72
100
 73
1
 74
3
 75
0
 76
1
 77
0
 78
0
281
0
 65
1
110
0.0
120
0.0
130
0.0
111
1.0
121
0.0
131
0.0
112
0.0
122
1.0
132
0.0
 79
0
146
0.0
348
10020
 60
3
 61
5
292
1
282
1
141
0.0
142
0.0
 63
250
421
3358443
  0
ENDTAB
  0
TABLE
  2
LTYPE
  5
5
330
0
100
AcDbSymbolTable
 70
27
  0
LTYPE
  5
14
330
5
100
AcDbSymbolTableRecord
100
AcDbLinetypeTableRecord
  2
ByBlock
 70
0
  3

 72
65
 73
0
 40
0.0
  0
LTYPE
  5
15
330
5
100
AcDbSymbolTableRecord
100
AcDbLinetypeTableRecord
  2
ByLayer
 70
0
  3

 72
65
 73
0
 40
0.0
  0
LTYPE
  5
16
330
5
100
AcDbSymbolTableRecord
100
AcDbLinetypeTableRecord
  2
Continuous
 70
0
  3
Solid line
 72
65
 73
0
 40
0.0
  0
LTYPE
  5
32
330
5
100
AcDbSymbolTableRecord
100
AcDbLinetypeTableRecord
  2
DOT
 70
0
  3
Dot . . . . . . . . . . . . . . . . . . . . . .
 72
65
 73
2
 40
6.35
 49
0.0
 74
0
 49
-6.35
 74
0
  0
LTYPE
  5
33
330
5
100
AcDbSymbolTableRecord
100
AcDbLinetypeTableRecord
  2
DOTTINY
 70
0
  3
Dot (.15x) .....................................
 72
65
 73
2
 40
0.9525
 49
0.0
 74
0
 49
-0.9525
 74
0
  0
LTYPE
  5
34
330
5
100
AcDbSymbolTableRecord
100
AcDbLinetypeTableRecord
  2
DOT2
 70
0
  3
Dot (.5x) .....................................
 72
65
 73
2
 40
3.175
 49
0.0
 74
0
 49
-3.175
 74
0
  0
LTYPE
  5
35
330
5
100
AcDbSymbolTableRecord
100
AcDbLinetypeTableRecord
  2
DOTX2
 70
0
  3
Dot (2x) .  .  .  .  .  .  .  .  .  .  .  .  .
 72
65
 73
2
 40
12.7
 49
0.0
 74
0
 49
-12.7
 74
0
  0
LTYPE
  5
36
330
5
100
AcDbSymbolTableRecord
100
AcDbLinetypeTableRecord
  2
DASHED
 70
0
  3
Dashed _ _ _ _ _ _ _ _ _ _ _ _ _ _ _ _ _
 72
65
 73
2
 40
19.05
 49
12.7
 74
0
 49
-6.35
 74
0
  0
LTYPE
  5
37
330
5
100
AcDbSymbolTableRecord
100
AcDbLinetypeTableRecord
  2
DASHEDTINY
 70
0
  3
Dashed (.15x) _ _ _ _ _ _ _ _ _ _ _ _ _ _ _ _ _
 72
65
 73
2
 40
2.8575
 49
1.905
 74
0
 49
-0.9525
 74
0
  0
LTYPE
  5
38
330
5
100
AcDbSymbolTableRecord
100
AcDbLinetypeTableRecord
  2
DASHED2
 70
0
  3
Dashed (.5x) _ _ _ _ _ _ _ _ _ _ _ _ _ _ _ _ _
 72
65
 73
2
 40
9.524999999999999
 49
6.35
 74
0
 49
-3.175
 74
0
  0
LTYPE
  5
39
330
5
100
AcDbSymbolTableRecord
100
AcDbLinetypeTableRecord
  2
DASHEDX2
 70
0
  3
Dashed (2x) ____  ____  ____  ____  ____  ___
 72
65
 73
2
 40
38.09999999999999
 49
25.4
 74
0
 49
-12.7
 74
0
  0
LTYPE
  5
3A
330
5
100
AcDbSymbolTableRecord
100
AcDbLinetypeTableRecord
  2
DASHDOT
 70
0
  3
Dash dot __ . __ . __ . __ . __ . __ . __ . __
 72
65
 73
4
 40
25.4
 49
12.7
 74
0
 49
-6.35
 74
0
 49
0.0
 74
0
 49
-6.35
 74
0
  0
LTYPE
  5
3B
330
5
100
AcDbSymbolTableRecord
100
AcDbLinetypeTableRecord
  2
DASHDOTTINY
 70
0
  3
Dash dot (.15x) _._._._._._._._._._._._._._._.
 72
65
 73
4
 40
3.81
 49
1.905
 74
0
 49
-0.9525
 74
0
 49
0.0
 74
0
 49
-0.9525
 74
0
  0
LTYPE
  5
3C
330
5
100
AcDbSymbolTableRecord
100
AcDbLinetypeTableRecord
  2
DASHDOT2
 70
0
  3
Dash dot (.5x) _._._._._._._._._._._._._._._.
 72
65
 73
4
 40
12.7
 49
6.35
 74
0
 49
-3.175
 74
0
 49
0.0
 74
0
 49
-3.175
 74
0
  0
LTYPE
  5
3D
330
5
100
AcDbSymbolTableRecord
100
AcDbLinetypeTableRecord
  2
DASHDOTX2
 70
0
  3
Dash dot (2x) ____  .  ____  .  ____  .  ___
 72
65
 73
4
 40
50.8
 49
25.4
 74
0
 49
-12.7
 74
0
 49
0.0
 74
0
 49
-12.7
 74
0
  0
LTYPE
  5
3E
330
5
100
AcDbSymbolTableRecord
100
AcDbLinetypeTableRecord
  2
DIVIDE
 70
0
  3
Divide ____ . . ____ . . ____ . . ____ . . ____
 72
65
 73
6
 40
31.75
 49
12.7
 74
0
 49
-6.35
 74
0
 49
0.0
 74
0
 49
-6.35
 74
0
 49
0.0
 74
0
 49
-6.35
 74
0
  0
LTYPE
  5
3F
330
5
100
AcDbSymbolTableRecord
100
AcDbLinetypeTableRecord
  2
DIVIDETINY
 70
0
  3
Divide (.15x) __..__..__..__..__..__..__..__.._
 72
65
 73
6
 40
4.7625
 49
1.905
 74
0
 49
-0.9525
 74
0
 49
0.0
 74
0
 49
-0.9525
 74
0
 49
0.0
 74
0
 49
-0.9525
 74
0
  0
LTYPE
  5
40
330
5
100
AcDbSymbolTableRecord
100
AcDbLinetypeTableRecord
  2
DIVIDE2
 70
0
  3
Divide (.5x) __..__..__..__..__..__..__..__.._
 72
65
 73
6
 40
15.875
 49
6.35
 74
0
 49
-3.175
 74
0
 49
0.0
 74
0
 49
-3.175
 74
0
 49
0.0
 74
0
 49
-3.175
 74
0
  0
LTYPE
  5
41
330
5
100
AcDbSymbolTableRecord
100
AcDbLinetypeTableRecord
  2
DIVIDEX2
 70
0
  3
Divide (2x) ________  .  .  ________  .  .  _
 72
65
 73
6
 40
63.5
 49
25.4
 74
0
 49
-12.7
 74
0
 49
0.0
 74
0
 49
-12.7
 74
0
 49
0.0
 74
0
 49
-12.7
 74
0
  0
LTYPE
  5
42
330
5
100
AcDbSymbolTableRecord
100
AcDbLinetypeTableRecord
  2
BORDER
 70
0
  3
Border __ __ . __ __ . __ __ . __ __ . __ __ .
 72
65
 73
6
 40
44.45
 49
12.7
 74
0
 49
-6.35
 74
0
 49
12.7
 74
0
 49
-6.35
 74
0
 49
0.0
 74
0
 49
-6.35
 74
0
  0
LTYPE
  5
43
330
5
100
AcDbSymbolTableRecord
100
AcDbLinetypeTableRecord
  2
BORDERTINY
 70
0
  3
Border (.15x) __.__.__.__.__.__.__.__.__.__.__.
 72
65
 73
6
 40
6.6675
 49
1.905
 74
0
 49
-0.9525
 74
0
 49
1.905
 74
0
 49
-0.9525
 74
0
 49
0.0
 74
0
 49
-0.9525
 74
0
  0
LTYPE
  5
44
330
5
100
AcDbSymbolTableRecord
100
AcDbLinetypeTableRecord
  2
BORDER2
 70
0
  3
Border (.5x) __.__.__.__.__.__.__.__.__.__.__.
 72
65
 73
6
 40
22.225
 49
6.35
 74
0
 49
-3.175
 74
0
 49
6.35
 74
0
 49
-3.175
 74
0
 49
0.0
 74
0
 49
-3.175
 74
0
  0
LTYPE
  5
45
330
5
100
AcDbSymbolTableRecord
100
AcDbLinetypeTableRecord
  2
BORDERX2
 70
0
  3
Border (2x) ____  ____  .  ____  ____  .  ___
 72
65
 73
6
 40
88.89999999999999
 49
25.4
 74
0
 49
-12.7
 74
0
 49
25.4
 74
0
 49
-12.7
 74
0
 49
0.0
 74
0
 49
-12.7
 74
0
  0
LTYPE
  5
46
330
5
100
AcDbSymbolTableRecord
100
AcDbLinetypeTableRecord
  2
CENTER
 70
0
  3
Center ____ _ ____ _ ____ _ ____ _ ____ _ ____
 72
65
 73
4
 40
50.8
 49
31.75
 74
0
 49
-6.35
 74
0
 49
6.35
 74
0
 49
-6.35
 74
0
  0
LTYPE
  5
47
330
5
100
AcDbSymbolTableRecord
100
AcDbLinetypeTableRecord
  2
CENTERTINY
 70
0
  3
Center (.15x) ___ _ ___ _ ___ _ ___ _ ___ _ ___
 72
65
 73
4
 40
7.619999999999999
 49
4.7625
 74
0
 49
-0.9525
 74
0
 49
0.9525
 74
0
 49
-0.9525
 74
0
  0
LTYPE
  5
48
330
5
100
AcDbSymbolTableRecord
100
AcDbLinetypeTableRecord
  2
CENTER2
 70
0
  3
Center (.5x) ___ _ ___ _ ___ _ ___ _ ___ _ ___
 72
65
 73
4
 40
28.575
 49
19.05
 74
0
 49
-3.175
 74
0
 49
3.175
 74
0
 49
-3.175
 74
0
  0
LTYPE
  5
49
330
5
100
AcDbSymbolTableRecord
100
AcDbLinetypeTableRecord
  2
CENTERX2
 70
0
  3
Center (2x) ________  __  ________  __  _____
 72
65
 73
4
 40
101.6
 49
63.5
 74
0
 49
-12.7
 74
0
 49
12.7
 74
0
 49
-12.7
 74
0
  0
ENDTAB
  0
TABLE
  2
LAYER
  5
2
330
0
100
AcDbSymbolTable
 70
1
  0
LAYER
  5
10
330
2
100
AcDbSymbolTableRecord
100
AcDbLayerTableRecord
  2
0
 70
0
 62
7
  6
CONTINUOUS
370
0
390
F
  0
ENDTAB
  0
TABLE
  2
STYLE
  5
3
330
0
100
AcDbSymbolTable
 70
1
  0
STYLE
  5
57
330
3
100
AcDbSymbolTableRecord
100
AcDbTextStyleTableRecord
  2
Standard
 70
0
 40
0.0
 41
1.0
 50
0.0
 71
0
 42
1.0
  3
txt
  4

  0
ENDTAB
  0
TABLE
  2
VIEW
  5
6
330
0
100
AcDbSymbolTable
 70
0
  0
ENDTAB
  0
TABLE
  2
UCS
  5
7
330
0
100
AcDbSymbolTable
 70
0
  0
ENDTAB
  0
TABLE
  2
APPID
  5
9
330
0
100
AcDbSymbolTable
 70
3
  0
APPID
  5
12
330
9
100
AcDbSymbolTableRecord
100
AcDbRegAppTableRecord
  2
ACAD
 70
0
  0
APPID
  5
58
330
9
100
AcDbSymbolTableRecord
100
AcDbRegAppTableRecord
  2
LibreCad
 70
0
  0
APPID
  5
20315
330
9
100
AcDbSymbolTableRecord
100
AcDbRegAppTableRecord
  2
HATCHBACKGROUNDCOLOR
 70
0
  0
ENDTAB
  0
TABLE
  2
DIMSTYLE
  5
A
330
0
100
AcDbSymbolTable
 70
1
100
AcDbDimStyleTable
 71
1
  0
DIMSTYLE
105
59
330
A
100
AcDbSymbolTableRecord
100
AcDbDimStyleTableRecord
  2
Standard
 70
0
 40
1.0
 41
2.5
 42
0.625
 43
0.38
 44
1.25
 45
0.0
 46
0.0
 47
0.0
 48
0.0
 49
1.0
140
2.5
141
0.09
142
0.0
143
25.4
144
1.0
145
0.0
146
1.0
147
0.625
148
0.0
 71
0
 72
0
 73
0
 74
1
 75
0
 76
0
 77
0
 78
8
 79
0
170
0
171
2
172
0
173
0
174
0
175
0
176
0
177
0
178
0
179
2
271
2
272
4
273
2
274
2
275
0
276
0
277
2
278
0
279
0
280
0
281
0
282
0
283
1
284
0
285
0
286
0
288
0
289
3
340
standard
341

371
-2
372
-2
  0
ENDTAB
  0
TABLE
  2
BLOCK_RECORD
  5
1
330
0
100
AcDbSymbolTable
 70
2
  0
BLOCK_RECORD
  5
1F
330
1
100
AcDbSymbolTableRecord
100
AcDbBlockTableRecord
  2
*Model_Space
 70
0
280
1
281
0
340
2000B
  0
BLOCK_RECORD
  5
1E
330
1
100
AcDbSymbolTableRecord
100
AcDbBlockTableRecord
  2
*Paper_Space
 70
0
280
1
281
0
340
2000C
  0
ENDTAB
  0
ENDSEC
  0
SECTION
  2
BLOCKS
  0
BLOCK
  5
1C
330
1E
100
AcDbEntity
  8
0
100
AcDbBlockBegin
  2
*Paper_Space
 70
0
 10
0.0
 20
0.0
 30
0.0
  3
*Paper_Space
  1

  0
ENDBLK
  5
1D
330
1E
100
AcDbEntity
  8
0
100
AcDbBlockEnd
  0
BLOCK
  5
20
330
1F
100
AcDbEntity
  8
0
100
AcDbBlockBegin
  2
*Model_Space
 70
0
 10
0.0
 20
0.0
 30
0.0
  3
*Model_Space
  1

  0
ENDBLK
  5
21
330
1F
100
AcDbEntity
  8
0
100
AcDbBlockEnd
  0
ENDSEC
  0
SECTION
  2
ENTITIES
  0
ARC
  5
15D
330
1F
100
AcDbEntity
  8
0
  6
ByLayer
 62
256
370
-1
100
AcDbCircle
 10
-143.6341734071064
 20
58.0
 40
9.5
100
AcDbArc
 50
90.0
 51
167.0
  0
LINE
  5
15E
330
1F
100
AcDbEntity
  8
0
  6
ByLayer
 62
256
370
-1
100
AcDbLine
 10
-143.6341734071064
 20
67.5
 11
143.6341734071063
 21
67.5
  0
ARC
  5
15F
330
1F
100
AcDbEntity
  8
0
  6
ByLayer
 62
256
370
-1
100
AcDbCircle
 10
143.6341734071063
 20
58.0
 40
9.5
100
AcDbArc
 50
12.99999999999996
 51
89.99999999999983
  0
LINE
  5
162
330
1F
100
AcDbEntity
  8
0
  6
ByLayer
 62
256
370
-1
100
AcDbLine
 10
-188.3661012825067
 20
-93.52385731795094
 11
-152.8906890225661
 21
60.13703501626672
  0
LINE
  5
163
330
1F
100
AcDbEntity
  8
0
  6
ByLayer
 62
256
370
-1
100
AcDbLine
 10
152.890689022566
 20
60.13703501626671
 11
188.3661012825067
 21
-93.52385731795106
  0
LINE
  5
164
330
1F
100
AcDbEntity
  8
0
  6
ByLayer
 62
256
370
-1
100
AcDbLine
 10
181.3590962104855
 20
-105.4045929820701
 11
2.13703501626668
 21
-146.7812660597741
  0
ARC
  5
165
330
1F
100
AcDbEntity
  8
0
  6
ByLayer
 62
256
370
-1
100
AcDbCircle
 10
0.0
 20
-137.5247504443143
 40
9.5
100
AcDbArc
 50
257.0000000000001
 51
282.9999999999998
  0
LINE
  5
166
330
1F
100
AcDbEntity
  8
0
  6
ByLayer
 62
256
370
-1
100
AcDbLine
 10
-2.137035016266711
 20
-146.7812660597741
 11
-181.3590962104856
 21
-105.40459298207
  0
ARC
  5
167
330
1F
100
AcDbEntity
  8
0
  6
ByLayer
 62
256
370
-1
100
AcDbCircle
 10
-179.2220611942189
 20
-96.14807736661024
 40
9.5
100
AcDbArc
 50
167.0000000000001
 51
257.0000000000001
  0
ARC
  5
168
330
1F
100
AcDbEntity
  8
0
  6
ByLayer
 62
256
370
-1
100
AcDbCircle
 10
179.2220611942188
 20
-96.1480773666104
 40
9.5
100
AcDbArc
 50
282.9999999999999
 51
12.99999999999985
  0
LINE
  5
169
330
1F
100
AcDbEntity
  8
0
  6
ByLayer
 62
256
370
-1
100
AcDbLine
 10
-188.4785768096786
 20
-94.01104235034353
 11
-188.3661012825067
 21
-93.52385731795094
  0
LINE
  5
16A
330
1F
100
AcDbEntity
  8
0
  6
ByLayer
 62
256
370
-1
100
AcDbLine
 10
188.3661012825067
 20
-93.52385731795106
 11
188.4785768096786
 21
-94.0110423503437
  0
CIRCLE
  5
2000D
330
1F
100
AcDbEntity
  8
0
370
-1
 62
256
  6
ByLayer
 67
0
100
AcDbCircle
 10
182.6693259666435
 20
-89.96411701835456
 30
0.0
 40
1.6
  0
CIRCLE
  5
2000E
330
1F
100
AcDbEntity
  8
0
370
-1
 62
256
  6
ByLayer
 67
0
100
AcDbCircle
 10
1.13686837721616e-13
 20
-132.136653878399
 30
0.0
 40
1.6
  0
CIRCLE
  5
2000F
330
1F
100
AcDbEntity
  8
0
370
-1
 62
256
  6
ByLayer
 67
0
100
AcDbCircle
 10
-182.6693259666435
 20
-89.96411701835456
 30
0.0
 40
1.6
  0
CIRCLE
  5
20010
330
1F
100
AcDbEntity
  8
0
370
-1
 62
256
  6
ByLayer
 67
0
100
AcDbCircle
 10
146.5911179311346
 20
61.71738874504855
 30
0.0
 40
1.6
  0
CIRCLE
  5
20011
330
1F
100
AcDbEntity
  8
0
370
-1
 62
256
  6
ByLayer
 67
0
100
AcDbCircle
 10
49.13749800375967
 20
62.75
 30
0.0
 40
1.6
  0
CIRCLE
  5
20012
330
1F
100
AcDbEntity
  8
0
370
-1
 62
256
  6
ByLayer
 67
0
100
AcDbCircle
 10
-49.13749800375908
 20
62.75
 30
0.0
 40
1.6
  0
CIRCLE
  5
20013
330
1F
100
AcDbEntity
  8
0
370
-1
 62
256
  6
ByLayer
 67
0
100
AcDbCircle
 10
-146.5911179311346
 20
61.71738874504855
 30
0.0
 40
1.6
  0
CIRCLE
  5
2006B
330
1F
100
AcDbEntity
  8
0
370
-1
 62
256
  6
ByLayer
 67
0
100
AcDbCircle
 10
0.0
 20
-68.24922316826054
 30
0.0
 40
1.5
  0
CIRCLE
  5
2006C
330
1F
100
AcDbEntity
  8
0
370
-1
 62
256
  6
ByLayer
 67
0
100
AcDbCircle
 10
0.0
 20
-87.24922316826054
 30
0.0
 40
1.5
  0
CIRCLE
  5
2006D
330
1F
100
AcDbEntity
  8
0
370
-1
 62
256
  6
ByLayer
 67
0
100
AcDbCircle
 10
0.0
 20
-106.24922316826054
 30
0.0
 40
1.5
  0
LINE
  5
200ED
330
1F
100
AcDbEntity
  8
0
 62
256
  6
ByLayer
370
-1
 67
0
100
AcDbLine
 10
-125.25
 20
41.1
 30
0.0
 11
-125.25
 21
53.9
 31
0.0
  0
LINE
  5
200EE
330
1F
100
AcDbEntity
  8
0
 62
256
  6
ByLayer
370
-1
 67
0
100
AcDbLine
 10
-140.75
 20
41.1
 30
0.0
 11
-125.25
 21
41.1
 31
0.0
  0
LINE
  5
200EF
330
1F
100
AcDbEntity
  8
0
 62
256
  6
ByLayer
370
-1
 67
0
100
AcDbLine
 10
-140.75
 20
53.9
 30
0.0
 11
-125.25
 21
53.9
 31
0.0
  0
LINE
  5
200F0
330
1F
100
AcDbEntity
  8
0
 62
256
  6
ByLayer
370
-1
 67
0
100
AcDbLine
 10
-140.75
 20
41.1
 30
0.0
 11
-140.75
 21
53.9
 31
0.0
  0
LINE
  5
200F1
330
1F
100
AcDbEntity
  8
0
 62
256
  6
ByLayer
370
-1
 67
0
100
AcDbLine
 10
140.75
 20
41.1
 30
0.0
 11
140.75
 21
53.9
 31
0.0
  0
LINE
  5
200F2
330
1F
100
AcDbEntity
  8
0
 62
256
  6
ByLayer
370
-1
 67
0
100
AcDbLine
 10
125.25
 20
41.1
 30
0.0
 11
140.75
 21
41.1
 31
0.0
  0
LINE
  5
200F3
330
1F
100
AcDbEntity
  8
0
 62
256
  6
ByLayer
370
-1
 67
0
100
AcDbLine
 10
125.25
 20
53.9
 30
0.0
 11
140.75
 21
53.9
 31
0.0
  0
LINE
  5
200F4
330
1F
100
AcDbEntity
  8
0
 62
256
  6
ByLayer
370
-1
 67
0
100
AcDbLine
 10
125.25
 20
41.1
 30
0.0
 11
125.25
 21
53.9
 31
0.0
  0
LINE
  5
20165
330
1F
100
AcDbEntity
  8
0
 62
256
  6
ByLayer
370
-1
 67
0
100
AcDbLine
 10
-74.7116906759337
 20
-62.44396108787142
 30
0.0
 11
-71.83231718033221
 21
-49.97202425862041
 31
0.0
  0
LINE
  5
20166
330
1F
100
AcDbEntity
  8
0
 62
256
  6
ByLayer
370
-1
 67
0
100
AcDbLine
 10
-89.81442668010484
 20
-58.95721974554151
 30
0.0
 11
-74.7116906759337
 21
-62.44396108787142
 31
0.0
  0
LINE
  5
20167
330
1F
100
AcDbEntity
  8
0
 62
256
  6
ByLayer
370
-1
 67
0
100
AcDbLine
 10
-86.93505318450336
 20
-46.485282916290494
 30
0.0
 11
-71.83231718033221
 21
-49.97202425862041
 31
0.0
  0
LINE
  5
20168
330
1F
100
AcDbEntity
  8
0
 62
256
  6
ByLayer
370
-1
 67
0
100
AcDbLine
 10
-89.81442668010484
 20
-58.95721974554151
 30
0.0
 11
-86.93505318450336
 21
-46.485282916290494
 31
0.0
  0
LINE
  5
20169
330
1F
100
AcDbEntity
  8
0
 62
256
  6
ByLayer
370
-1
 67
0
100
AcDbLine
 10
-78.98576070846714
 20
-80.95699231879088
 30
0.0
 11
-76.10638721286566
 21
-68.48505548953987
 31
0.0
  0
LINE
  5
2016A
330
1F
100
AcDbEntity
  8
0
 62
256
  6
ByLayer
370
-1
 67
0
100
AcDbLine
 10
-94.08849671263829
 20
-77.47025097646097
 30
0.0
 11
-78.98576070846714
 21
-80.95699231879088
 31
0.0
  0
LINE
  5
2016B
330
1F
100
AcDbEntity
  8
0
 62
256
  6
ByLayer
370
-1
 67
0
100
AcDbLine
 10
-91.2091232170368
 20
-64.99831414720997
 30
0.0
 11
-76.10638721286566
 21
-68.48505548953987
 31
0.0
  0
LINE
  5
2016C
330
1F
100
AcDbEntity
  8
0
 62
256
  6
ByLayer
370
-1
 67
0
100
AcDbLine
 10
-94.08849671263829
 20
-77.47025097646097
 30
0.0
 11
-91.2091232170368
 21
-64.99831414720997
 31
0.0
  0
LINE
  5
2016D
330
1F
100
AcDbEntity
  8
0
 62
256
  6
ByLayer
370
-1
 67
0
100
AcDbLine
 10
-95.36175692311988
 20
-67.4264066707977
 30
0.0
 11
-92.4823834275184
 21
-54.9544698415467
 31
0.0
  0
LINE
  5
2016E
330
1F
100
AcDbEntity
  8
0
 62
256
  6
ByLayer
370
-1
 67
0
100
AcDbLine
 10
-110.46449292729103
 20
-63.9396653284678
 30
0.0
 11
-95.36175692311988
 21
-67.4264066707977
 31
0.0
  0
LINE
  5
2016F
330
1F
100
AcDbEntity
  8
0
 62
256
  6
ByLayer
370
-1
 67
0
100
AcDbLine
 10
-107.58511943168955
 20
-51.46772849921678
 30
0.0
 11
-92.4823834275184
 21
-54.9544698415467
 31
0.0
  0
LINE
  5
20170
330
1F
100
AcDbEntity
  8
0
 62
256
  6
ByLayer
370
-1
 67
0
100
AcDbLine
 10
-110.46449292729103
 20
-63.9396653284678
 30
0.0
 11
-107.58511943168955
 21
-51.46772849921678
 31
0.0
  0
LINE
  5
20171
330
1F
100
AcDbEntity
  8
0
 62
256
  6
ByLayer
370
-1
 67
0
100
AcDbLine
 10
-58.33569446128095
 20
-75.97454673586459
 30
0.0
 11
-55.456320965679474
 21
-63.502609906613586
 31
0.0
  0
LINE
  5
20172
330
1F
100
AcDbEntity
  8
0
 62
256
  6
ByLayer
370
-1
 67
0
100
AcDbLine
 10
-73.4384304654521
 20
-72.48780539353469
 30
0.0
 11
-58.33569446128095
 21
-75.97454673586459
 31
0.0
  0
LINE
  5
20173
330
1F
100
AcDbEntity
  8
0
 62
256
  6
ByLayer
370
-1
 67
0
100
AcDbLine
 10
-70.55905696985062
 20
-60.01586856428367
 30
0.0
 11
-55.456320965679474
 21
-63.502609906613586
 31
0.0
  0
LINE
  5
20174
330
1F
100
AcDbEntity
  8
0
 62
256
  6
ByLayer
370
-1
 67
0
100
AcDbLine
 10
-73.4384304654521
 20
-72.48780539353469
 30
0.0
 11
-70.55905696985062
 21
-60.01586856428367
 31
0.0
  0
LINE
  5
20175
330
1F
100
AcDbEntity
  8
0
 62
256
  6
ByLayer
370
-1
 67
0
100
AcDbLine
 10
-39.82266323036149
 20
-80.24861676839802
 30
0.0
 11
-36.943289734760015
 21
-67.77667993914702
 31
0.0
  0
LINE
  5
20176
330
1F
100
AcDbEntity
  8
0
 62
256
  6
ByLayer
370
-1
 67
0
100
AcDbLine
 10
-54.925399234532634
 20
-76.76187542606812
 30
0.0
 11
-39.82266323036149
 21
-80.24861676839802
 31
0.0
  0
LINE
  5
20177
330
1F
100
AcDbEntity
  8
0
 62
256
  6
ByLayer
370
-1
 67
0
100
AcDbLine
 10
-52.04602573893116
 20
-64.28993859681711
 30
0.0
 11
-36.943289734760015
 21
-67.77667993914702
 31
0.0
  0
LINE
  5
20178
330
1F
100
AcDbEntity
  8
0
 62
256
  6
ByLayer
370
-1
 67
0
100
AcDbLine
 10
-54.925399234532634
 20
-76.76187542606812
 30
0.0
 11
-52.04602573893116
 21
-64.28993859681711
 31
0.0
  0
LINE
  5
20179
330
1F
100
AcDbEntity
  8
0
 62
256
  6
ByLayer
370
-1
 67
0
100
AcDbLine
 10
-23.446667015708748
 20
-93.7792024163912
 30
0.0
 11
-20.56729352010727
 21
-81.3072655871402
 31
0.0
  0
LINE
  5
2017A
330
1F
100
AcDbEntity
  8
0
 62
256
  6
ByLayer
370
-1
 67
0
100
AcDbLine
 10
-38.54940301987989
 20
-90.2924610740613
 30
0.0
 11
-23.446667015708748
 21
-93.7792024163912
 31
0.0
  0
LINE
  5
2017B
330
1F
100
AcDbEntity
  8
0
 62
256
  6
ByLayer
370
-1
 67
0
100
AcDbLine
 10
-35.67002952427841
 20
-77.82052424481029
 30
0.0
 11
-20.56729352010727
 21
-81.3072655871402
 31
0.0
  0
LINE
  5
2017C
330
1F
100
AcDbEntity
  8
0
 62
256
  6
ByLayer
370
-1
 67
0
100
AcDbLine
 10
-38.54940301987989
 20
-90.2924610740613
 30
0.0
 11
-35.67002952427841
 21
-77.82052424481029
 31
0.0
  0
LINE
  5
2017D
330
1F
100
AcDbEntity
  8
0
 62
256
  6
ByLayer
370
-1
 67
0
100
AcDbLine
 10
-27.720737048242185
 20
-112.29223364731067
 30
0.0
 11
-24.841363552640708
 21
-99.82029681805966
 31
0.0
  0
LINE
  5
2017E
330
1F
100
AcDbEntity
  8
0
 62
256
  6
ByLayer
370
-1
 67
0
100
AcDbLine
 10
-42.82347305241333
 20
-108.80549230498076
 30
0.0
 11
-27.720737048242185
 21
-112.29223364731067
 31
0.0
  0
LINE
  5
2017F
330
1F
100
AcDbEntity
  8
0
 62
256
  6
ByLayer
370
-1
 67
0
100
AcDbLine
 10
-39.94409955681185
 20
-96.33355547572975
 30
0.0
 11
-24.841363552640708
 21
-99.82029681805966
 31
0.0
  0
LINE
  5
20180
330
1F
100
AcDbEntity
  8
0
 62
256
  6
ByLayer
370
-1
 67
0
100
AcDbLine
 10
-42.82347305241333
 20
-108.80549230498076
 30
0.0
 11
-39.94409955681185
 21
-96.33355547572975
 31
0.0
  0
LINE
  5
20181
330
1F
100
AcDbEntity
  8
0
 62
256
  6
ByLayer
370
-1
 67
0
100
AcDbLine
 10
-57.62731891088811
 20
-115.13764421397023
 30
0.0
 11
-54.74794541528663
 21
-102.66570738471923
 31
0.0
  0
LINE
  5
20182
330
1F
100
AcDbEntity
  8
0
 62
256
  6
ByLayer
370
-1
 67
0
100
AcDbLine
 10
-72.73005491505926
 20
-111.65090287164033
 30
0.0
 11
-57.62731891088811
 21
-115.13764421397023
 31
0.0
  0
LINE
  5
20183
330
1F
100
AcDbEntity
  8
0
 62
256
  6
ByLayer
370
-1
 67
0
100
AcDbLine
 10
-69.85068141945777
 20
-99.17896604238932
 30
0.0
 11
-54.74794541528663
 21
-102.66570738471923
 31
0.0
  0
LINE
  5
20184
330
1F
100
AcDbEntity
  8
0
 62
256
  6
ByLayer
370
-1
 67
0
100
AcDbLine
 10
-72.73005491505926
 20
-111.65090287164033
 30
0.0
 11
-69.85068141945777
 21
-99.17896604238932
 31
0.0
  0
LINE
  5
20185
330
1F
100
AcDbEntity
  8
0
 62
256
  6
ByLayer
370
-1
 67
0
100
AcDbLine
 10
-20.75
 20
41.1
 30
0.0
 11
-20.75
 21
53.9
 31
0.0
  0
LINE
  5
20186
330
1F
100
AcDbEntity
  8
0
 62
256
  6
ByLayer
370
-1
 67
0
100
AcDbLine
 10
-36.25
 20
41.1
 30
0.0
 11
-20.75
 21
41.1
 31
0.0
  0
LINE
  5
20187
330
1F
100
AcDbEntity
  8
0
 62
256
  6
ByLayer
370
-1
 67
0
100
AcDbLine
 10
-36.25
 20
53.9
 30
0.0
 11
-20.75
 21
53.9
 31
0.0
  0
LINE
  5
20188
330
1F
100
AcDbEntity
  8
0
 62
256
  6
ByLayer
370
-1
 67
0
100
AcDbLine
 10
-36.25
 20
41.1
 30
0.0
 11
-36.25
 21
53.9
 31
0.0
  0
LINE
  5
20189
330
1F
100
AcDbEntity
  8
0
 62
256
  6
ByLayer
370
-1
 67
0
100
AcDbLine
 10
-1.7500000000000009
 20
41.1
 30
0.0
 11
-1.75
 21
53.9
 31
0.0
  0
LINE
  5
2018A
330
1F
100
AcDbEntity
  8
0
 62
256
  6
ByLayer
370
-1
 67
0
100
AcDbLine
 10
-17.25
 20
41.1
 30
0.0
 11
-1.7500000000000009
 21
41.1
 31
0.0
  0
LINE
  5
2018B
330
1F
100
AcDbEntity
  8
0
 62
256
  6
ByLayer
370
-1
 67
0
100
AcDbLine
 10
-17.25
 20
53.9
 30
0.0
 11
-1.75
 21
53.9
 31
0.0
  0
LINE
  5
2018C
330
1F
100
AcDbEntity
  8
0
 62
256
  6
ByLayer
370
-1
 67
0
100
AcDbLine
 10
-17.25
 20
41.1
 30
0.0
 11
-17.25
 21
53.9
 31
0.0
  0
LINE
  5
2018D
330
1F
100
AcDbEntity
  8
0
 62
256
  6
ByLayer
370
-1
 67
0
100
AcDbLine
 10
17.25
 20
41.1
 30
0.0
 11
17.25
 21
53.9
 31
0.0
  0
LINE
  5
2018E
330
1F
100
AcDbEntity
  8
0
 62
256
  6
ByLayer
370
-1
 67
0
100
AcDbLine
 10
1.75
 20
41.1
 30
0.0
 11
17.25
 21
41.1
 31
0.0
  0
LINE
  5
2018F
330
1F
100
AcDbEntity
  8
0
 62
256
  6
ByLayer
370
-1
 67
0
100
AcDbLine
 10
1.7500000000000009
 20
53.9
 30
0.0
 11
17.25
 21
53.9
 31
0.0
  0
LINE
  5
20190
330
1F
100
AcDbEntity
  8
0
 62
256
  6
ByLayer
370
-1
 67
0
100
AcDbLine
 10
1.75
 20
41.1
 30
0.0
 11
1.7500000000000009
 21
53.9
 31
0.0
  0
LINE
  5
20191
330
1F
100
AcDbEntity
  8
0
 62
256
  6
ByLayer
370
-1
 67
0
100
AcDbLine
 10
36.25
 20
41.1
 30
0.0
 11
36.25
 21
53.9
 31
0.0
  0
LINE
  5
20192
330
1F
100
AcDbEntity
  8
0
 62
256
  6
ByLayer
370
-1
 67
0
100
AcDbLine
 10
20.75
 20
41.1
 30
0.0
 11
36.25
 21
41.1
 31
0.0
  0
LINE
  5
20193
330
1F
100
AcDbEntity
  8
0
 62
256
  6
ByLayer
370
-1
 67
0
100
AcDbLine
 10
20.75
 20
53.9
 30
0.0
 11
36.25
 21
53.9
 31
0.0
  0
LINE
  5
20194
330
1F
100
AcDbEntity
  8
0
 62
256
  6
ByLayer
370
-1
 67
0
100
AcDbLine
 10
20.75
 20
41.1
 30
0.0
 11
20.75
 21
53.9
 31
0.0
  0
LINE
  5
20195
330
1F
100
AcDbEntity
  8
0
 62
256
  6
ByLayer
370
-1
 67
0
100
AcDbLine
 10
60.0
 20
41.1
 30
0.0
 11
60.0
 21
53.9
 31
0.0
  0
LINE
  5
20196
330
1F
100
AcDbEntity
  8
0
 62
256
  6
ByLayer
370
-1
 67
0
100
AcDbLine
 10
44.5
 20
41.1
 30
0.0
 11
60.0
 21
41.1
 31
0.0
  0
LINE
  5
20197
330
1F
100
AcDbEntity
  8
0
 62
256
  6
ByLayer
370
-1
 67
0
100
AcDbLine
 10
44.5
 20
53.9
 30
0.0
 11
60.0
 21
53.9
 31
0.0
  0
LINE
  5
20198
330
1F
100
AcDbEntity
  8
0
 62
256
  6
ByLayer
370
-1
 67
0
100
AcDbLine
 10
44.5
 20
41.1
 30
0.0
 11
44.5
 21
53.9
 31
0.0
  0
LINE
  5
20199
330
1F
100
AcDbEntity
  8
0
 62
256
  6
ByLayer
370
-1
 67
0
100
AcDbLine
 10
79.0
 20
41.1
 30
0.0
 11
79.0
 21
53.9
 31
0.0
  0
LINE
  5
2019A
330
1F
100
AcDbEntity
  8
0
 62
256
  6
ByLayer
370
-1
 67
0
100
AcDbLine
 10
63.5
 20
41.1
 30
0.0
 11
79.0
 21
41.1
 31
0.0
  0
LINE
  5
2019B
330
1F
100
AcDbEntity
  8
0
 62
256
  6
ByLayer
370
-1
 67
0
100
AcDbLine
 10
63.5
 20
53.9
 30
0.0
 11
79.0
 21
53.9
 31
0.0
  0
LINE
  5
2019C
330
1F
100
AcDbEntity
  8
0
 62
256
  6
ByLayer
370
-1
 67
0
100
AcDbLine
 10
63.5
 20
41.1
 30
0.0
 11
63.5
 21
53.9
 31
0.0
  0
LINE
  5
2019D
330
1F
100
AcDbEntity
  8
0
 62
256
  6
ByLayer
370
-1
 67
0
100
AcDbLine
 10
98.0
 20
41.1
 30
0.0
 11
98.0
 21
53.9
 31
0.0
  0
LINE
  5
2019E
330
1F
100
AcDbEntity
  8
0
 62
256
  6
ByLayer
370
-1
 67
0
100
AcDbLine
 10
82.5
 20
41.1
 30
0.0
 11
98.0
 21
41.1
 31
0.0
  0
LINE
  5
2019F
330
1F
100
AcDbEntity
  8
0
 62
256
  6
ByLayer
370
-1
 67
0
100
AcDbLine
 10
82.5
 20
53.9
 30
0.0
 11
98.0
 21
53.9
 31
0.0
  0
LINE
  5
201A0
330
1F
100
AcDbEntity
  8
0
 62
256
  6
ByLayer
370
-1
 67
0
100
AcDbLine
 10
82.5
 20
41.1
 30
0.0
 11
82.5
 21
53.9
 31
0.0
  0
LINE
  5
201A1
330
1F
100
AcDbEntity
  8
0
 62
256
  6
ByLayer
370
-1
 67
0
100
AcDbLine
 10
117.0
 20
41.1
 30
0.0
 11
117.0
 21
53.9
 31
0.0
  0
LINE
  5
201A2
330
1F
100
AcDbEntity
  8
0
 62
256
  6
ByLayer
370
-1
 67
0
100
AcDbLine
 10
101.5
 20
41.1
 30
0.0
 11
117.0
 21
41.1
 31
0.0
  0
LINE
  5
201A3
330
1F
100
AcDbEntity
  8
0
 62
256
  6
ByLayer
370
-1
 67
0
100
AcDbLine
 10
101.5
 20
53.9
 30
0.0
 11
117.0
 21
53.9
 31
0.0
  0
LINE
  5
201A4
330
1F
100
AcDbEntity
  8
0
 62
256
  6
ByLayer
370
-1
 67
0
100
AcDbLine
 10
101.5
 20
41.1
 30
0.0
 11
101.5
 21
53.9
 31
0.0
  0
LINE
  5
201A5
330
1F
100
AcDbEntity
  8
0
 62
256
  6
ByLayer
370
-1
 67
0
100
AcDbLine
 10
-101.5
 20
41.1
 30
0.0
 11
-101.5
 21
53.9
 31
0.0
  0
LINE
  5
201A6
330
1F
100
AcDbEntity
  8
0
 62
256
  6
ByLayer
370
-1
 67
0
100
AcDbLine
 10
-117.0
 20
41.1
 30
0.0
 11
-101.5
 21
41.1
 31
0.0
  0
LINE
  5
201A7
330
1F
100
AcDbEntity
  8
0
 62
256
  6
ByLayer
370
-1
 67
0
100
AcDbLine
 10
-117.0
 20
53.9
 30
0.0
 11
-101.5
 21
53.9
 31
0.0
  0
LINE
  5
201A8
330
1F
100
AcDbEntity
  8
0
 62
256
  6
ByLayer
370
-1
 67
0
100
AcDbLine
 10
-117.0
 20
41.1
 30
0.0
 11
-117.0
 21
53.9
 31
0.0
  0
LINE
  5
201A9
330
1F
100
AcDbEntity
  8
0
 62
256
  6
ByLayer
370
-1
 67
0
100
AcDbLine
 10
-82.5
 20
41.1
 30
0.0
 11
-82.5
 21
53.9
 31
0.0
  0
LINE
  5
201AA
330
1F
100
AcDbEntity
  8
0
 62
256
  6
ByLayer
370
-1
 67
0
100
AcDbLine
 10
-98.0
 20
41.1
 30
0.0
 11
-82.5
 21
41.1
 31
0.0
  0
LINE
  5
201AB
330
1F
100
AcDbEntity
  8
0
 62
256
  6
ByLayer
370
-1
 67
0
100
AcDbLine
 10
-98.0
 20
53.9
 30
0.0
 11
-82.5
 21
53.9
 31
0.0
  0
LINE
  5
201AC
330
1F
100
AcDbEntity
  8
0
 62
256
  6
ByLayer
370
-1
 67
0
100
AcDbLine
 10
-98.0
 20
41.1
 30
0.0
 11
-98.0
 21
53.9
 31
0.0
  0
LINE
  5
201AD
330
1F
100
AcDbEntity
  8
0
 62
256
  6
ByLayer
370
-1
 67
0
100
AcDbLine
 10
-63.5
 20
41.1
 30
0.0
 11
-63.5
 21
53.9
 31
0.0
  0
LINE
  5
201AE
330
1F
100
AcDbEntity
  8
0
 62
256
  6
ByLayer
370
-1
 67
0
100
AcDbLine
 10
-79.0
 20
41.1
 30
0.0
 11
-63.5
 21
41.1
 31
0.0
  0
LINE
  5
201AF
330
1F
100
AcDbEntity
  8
0
 62
256
  6
ByLayer
370
-1
 67
0
100
AcDbLine
 10
-79.0
 20
53.9
 30
0.0
 11
-63.5
 21
53.9
 31
0.0
  0
LINE
  5
201B0
330
1F
100
AcDbEntity
  8
0
 62
256
  6
ByLayer
370
-1
 67
0
100
AcDbLine
 10
-79.0
 20
41.1
 30
0.0
 11
-79.0
 21
53.9
 31
0.0
  0
LINE
  5
201B1
330
1F
100
AcDbEntity
  8
0
 62
256
  6
ByLayer
370
-1
 67
0
100
AcDbLine
 10
-44.5
 20
41.1
 30
0.0
 11
-44.5
 21
53.9
 31
0.0
  0
LINE
  5
201B2
330
1F
100
AcDbEntity
  8
0
 62
256
  6
ByLayer
370
-1
 67
0
100
AcDbLine
 10
-60.0
 20
41.1
 30
0.0
 11
-44.5
 21
41.1
 31
0.0
  0
LINE
  5
201B3
330
1F
100
AcDbEntity
  8
0
 62
256
  6
ByLayer
370
-1
 67
0
100
AcDbLine
 10
-60.0
 20
53.9
 30
0.0
 11
-44.5
 21
53.9
 31
0.0
  0
LINE
  5
201B4
330
1F
100
AcDbEntity
  8
0
 62
256
  6
ByLayer
370
-1
 67
0
100
AcDbLine
 10
-60.0
 20
41.1
 30
0.0
 11
-60.0
 21
53.9
 31
0.0
  0
LINE
  5
201F5
330
1F
100
AcDbEntity
  8
0
 62
256
  6
ByLayer
370
-1
 67
0
100
AcDbLine
 10
74.7116906759337
 20
-62.44396108787143
 30
0.0
 11
71.83231718033221
 21
-49.972024258620415
 31
0.0
  0
LINE
  5
201F6
330
1F
100
AcDbEntity
  8
0
 62
256
  6
ByLayer
370
-1
 67
0
100
AcDbLine
 10
89.81442668010484
 20
-58.957219745541515
 30
0.0
 11
74.7116906759337
 21
-62.44396108787143
 31
0.0
  0
LINE
  5
201F7
330
1F
100
AcDbEntity
  8
0
 62
256
  6
ByLayer
370
-1
 67
0
100
AcDbLine
 10
86.93505318450336
 20
-46.4852829162905
 30
0.0
 11
71.83231718033221
 21
-49.972024258620415
 31
0.0
  0
LINE
  5
201F8
330
1F
100
AcDbEntity
  8
0
 62
256
  6
ByLayer
370
-1
 67
0
100
AcDbLine
 10
89.81442668010484
 20
-58.957219745541515
 30
0.0
 11
86.93505318450336
 21
-46.4852829162905
 31
0.0
  0
LINE
  5
201F9
330
1F
100
AcDbEntity
  8
0
 62
256
  6
ByLayer
370
-1
 67
0
100
AcDbLine
 10
78.98576070846714
 20
-80.9569923187909
 30
0.0
 11
76.10638721286566
 21
-68.48505548953989
 31
0.0
  0
LINE
  5
201FA
330
1F
100
AcDbEntity
  8
0
 62
256
  6
ByLayer
370
-1
 67
0
100
AcDbLine
 10
94.08849671263829
 20
-77.47025097646099
 30
0.0
 11
78.98576070846714
 21
-80.9569923187909
 31
0.0
  0
LINE
  5
201FB
330
1F
100
AcDbEntity
  8
0
 62
256
  6
ByLayer
370
-1
 67
0
100
AcDbLine
 10
91.2091232170368
 20
-64.99831414720998
 30
0.0
 11
76.10638721286566
 21
-68.48505548953989
 31
0.0
  0
LINE
  5
201FC
330
1F
100
AcDbEntity
  8
0
 62
256
  6
ByLayer
370
-1
 67
0
100
AcDbLine
 10
94.08849671263829
 20
-77.47025097646099
 30
0.0
 11
91.2091232170368
 21
-64.99831414720998
 31
0.0
  0
LINE
  5
201FD
330
1F
100
AcDbEntity
  8
0
 62
256
  6
ByLayer
370
-1
 67
0
100
AcDbLine
 10
95.36175692311988
 20
-67.42640667079772
 30
0.0
 11
92.48238342751841
 21
-54.95446984154671
 31
0.0
  0
LINE
  5
201FE
330
1F
100
AcDbEntity
  8
0
 62
256
  6
ByLayer
370
-1
 67
0
100
AcDbLine
 10
110.46449292729102
 20
-63.93966532846781
 30
0.0
 11
95.36175692311988
 21
-67.42640667079772
 31
0.0
  0
LINE
  5
201FF
330
1F
100
AcDbEntity
  8
0
 62
256
  6
ByLayer
370
-1
 67
0
100
AcDbLine
 10
107.58511943168955
 20
-51.467728499216804
 30
0.0
 11
92.48238342751841
 21
-54.95446984154671
 31
0.0
  0
LINE
  5
20200
330
1F
100
AcDbEntity
  8
0
 62
256
  6
ByLayer
370
-1
 67
0
100
AcDbLine
 10
110.46449292729102
 20
-63.93966532846781
 30
0.0
 11
107.58511943168955
 21
-51.467728499216804
 31
0.0
  0
LINE
  5
20201
330
1F
100
AcDbEntity
  8
0
 62
256
  6
ByLayer
370
-1
 67
0
100
AcDbLine
 10
58.33569446128095
 20
-75.97454673586459
 30
0.0
 11
55.456320965679474
 21
-63.502609906613586
 31
0.0
  0
LINE
  5
20202
330
1F
100
AcDbEntity
  8
0
 62
256
  6
ByLayer
370
-1
 67
0
100
AcDbLine
 10
73.43843046545209
 20
-72.48780539353469
 30
0.0
 11
58.33569446128095
 21
-75.97454673586459
 31
0.0
  0
LINE
  5
20203
330
1F
100
AcDbEntity
  8
0
 62
256
  6
ByLayer
370
-1
 67
0
100
AcDbLine
 10
70.55905696985062
 20
-60.01586856428368
 30
0.0
 11
55.456320965679474
 21
-63.502609906613586
 31
0.0
  0
LINE
  5
20204
330
1F
100
AcDbEntity
  8
0
 62
256
  6
ByLayer
370
-1
 67
0
100
AcDbLine
 10
73.43843046545209
 20
-72.48780539353469
 30
0.0
 11
70.55905696985062
 21
-60.01586856428368
 31
0.0
  0
LINE
  5
20205
330
1F
100
AcDbEntity
  8
0
 62
256
  6
ByLayer
370
-1
 67
0
100
AcDbLine
 10
39.822663230361485
 20
-80.24861676839804
 30
0.0
 11
36.94328973476001
 21
-67.77667993914703
 31
0.0
  0
LINE
  5
20206
330
1F
100
AcDbEntity
  8
0
 62
256
  6
ByLayer
370
-1
 67
0
100
AcDbLine
 10
54.92539923453263
 20
-76.76187542606813
 30
0.0
 11
39.822663230361485
 21
-80.24861676839804
 31
0.0
  0
LINE
  5
20207
330
1F
100
AcDbEntity
  8
0
 62
256
  6
ByLayer
370
-1
 67
0
100
AcDbLine
 10
52.04602573893115
 20
-64.28993859681712
 30
0.0
 11
36.94328973476001
 21
-67.77667993914703
 31
0.0
  0
LINE
  5
20208
330
1F
100
AcDbEntity
  8
0
 62
256
  6
ByLayer
370
-1
 67
0
100
AcDbLine
 10
54.92539923453263
 20
-76.76187542606813
 30
0.0
 11
52.04602573893115
 21
-64.28993859681712
 31
0.0
  0
LINE
  5
20209
330
1F
100
AcDbEntity
  8
0
 62
256
  6
ByLayer
370
-1
 67
0
100
AcDbLine
 10
23.44666701570873
 20
-93.7792024163912
 30
0.0
 11
20.567293520107256
 21
-81.3072655871402
 31
0.0
  0
LINE
  5
2020A
330
1F
100
AcDbEntity
  8
0
 62
256
  6
ByLayer
370
-1
 67
0
100
AcDbLine
 10
38.549403019879875
 20
-90.2924610740613
 30
0.0
 11
23.44666701570873
 21
-93.7792024163912
 31
0.0
  0
LINE
  5
2020B
330
1F
100
AcDbEntity
  8
0
 62
256
  6
ByLayer
370
-1
 67
0
100
AcDbLine
 10
35.6700295242784
 20
-77.82052424481029
 30
0.0
 11
20.567293520107256
 21
-81.3072655871402
 31
0.0
  0
LINE
  5
2020C
330
1F
100
AcDbEntity
  8
0
 62
256
  6
ByLayer
370
-1
 67
0
100
AcDbLine
 10
38.549403019879875
 20
-90.2924610740613
 30
0.0
 11
35.6700295242784
 21
-77.82052424481029
 31
0.0
  0
LINE
  5
2020D
330
1F
100
AcDbEntity
  8
0
 62
256
  6
ByLayer
370
-1
 67
0
100
AcDbLine
 10
27.720737048242167
 20
-112.29223364731067
 30
0.0
 11
24.841363552640694
 21
-99.82029681805966
 31
0.0
  0
LINE
  5
2020E
330
1F
100
AcDbEntity
  8
0
 62
256
  6
ByLayer
370
-1
 67
0
100
AcDbLine
 10
42.82347305241331
 20
-108.80549230498076
 30
0.0
 11
27.720737048242167
 21
-112.29223364731067
 31
0.0
  0
LINE
  5
2020F
330
1F
100
AcDbEntity
  8
0
 62
256
  6
ByLayer
370
-1
 67
0
100
AcDbLine
 10
39.944099556811835
 20
-96.33355547572975
 30
0.0
 11
24.841363552640694
 21
-99.82029681805966
 31
0.0
  0
LINE
  5
20210
330
1F
100
AcDbEntity
  8
0
 62
256
  6
ByLayer
370
-1
 67
0
100
AcDbLine
 10
42.82347305241331
 20
-108.80549230498076
 30
0.0
 11
39.944099556811835
 21
-96.33355547572975
 31
0.0
  0
LINE
  5
20211
330
1F
100
AcDbEntity
  8
0
 62
256
  6
ByLayer
370
-1
 67
0
100
AcDbLine
 10
57.62731891088809
 20
-115.13764421397025
 30
0.0
 11
54.747945415286615
 21
-102.66570738471924
 31
0.0
  0
LINE
  5
20212
330
1F
100
AcDbEntity
  8
0
 62
256
  6
ByLayer
370
-1
 67
0
100
AcDbLine
 10
72.73005491505924
 20
-111.65090287164034
 30
0.0
 11
57.62731891088809
 21
-115.13764421397025
 31
0.0
  0
LINE
  5
20213
330
1F
100
AcDbEntity
  8
0
 62
256
  6
ByLayer
370
-1
 67
0
100
AcDbLine
 10
69.85068141945776
 20
-99.17896604238933
 30
0.0
 11
54.747945415286615
 21
-102.66570738471924
 31
0.0
  0
LINE
  5
20214
330
1F
100
AcDbEntity
  8
0
 62
256
  6
ByLayer
370
-1
 67
0
100
AcDbLine
 10
72.73005491505924
 20
-111.65090287164034
 30
0.0
 11
69.85068141945776
 21
-99.17896604238933
 31
0.0
  0
LINE
  5
20215
330
1F
100
AcDbEntity
  8
0
 62
256
  6
ByLayer
370
-1
 67
0
100
AcDbLine
 10
-57.61541054579994
 20
11.608163835806451
 30
0.0
 11
-54.73603705019846
 21
24.08010066505746
 31
0.0
  0
LINE
  5
20216
330
1F
100
AcDbEntity
  8
0
 62
256
  6
ByLayer
370
-1
 67
0
100
AcDbLine
 10
-72.71814654997108
 20
15.094905178136361
 30
0.0
 11
-57.61541054579994
 21
11.608163835806451
 31
0.0
  0
LINE
  5
20217
330
1F
100
AcDbEntity
  8
0
 62
256
  6
ByLayer
370
-1
 67
0
100
AcDbLine
 10
-69.83877305436961
 20
27.566842007387372
 30
0.0
 11
-54.73603705019846
 21
24.08010066505746
 31
0.0
  0
LINE
  5
20218
330
1F
100
AcDbEntity
  8
0
 62
256
  6
ByLayer
370
-1
 67
0
100
AcDbLine
 10
-72.71814654997108
 20
15.094905178136361
 30
0.0
 11
-69.83877305436961
 21
27.566842007387372
 31
0.0
  0
LINE
  5
20219
330
1F
100
AcDbEntity
  8
0
 62
256
  6
ByLayer
370
-1
 67
0
100
AcDbLine
 10
-61.88948057833338
 20
-6.904867395113016
 30
0.0
 11
-59.0101070827319
 21
5.567069434137994
 31
0.0
  0
LINE
  5
2021A
330
1F
100
AcDbEntity
  8
0
 62
256
  6
ByLayer
370
-1
 67
0
100
AcDbLine
 10
-76.99221658250453
 20
-3.418126052783104
 30
0.0
 11
-61.88948057833338
 21
-6.904867395113016
 31
0.0
  0
LINE
  5
2021B
330
1F
100
AcDbEntity
  8
0
 62
256
  6
ByLayer
370
-1
 67
0
100
AcDbLine
 10
-74.11284308690304
 20
9.053810776467905
 30
0.0
 11
-59.0101070827319
 21
5.567069434137994
 31
0.0
  0
LINE
  5
2021C
330
1F
100
AcDbEntity
  8
0
 62
256
  6
ByLayer
370
-1
 67
0
100
AcDbLine
 10
-76.99221658250453
 20
-3.418126052783104
 30
0.0
 11
-74.11284308690304
 21
9.053810776467905
 31
0.0
  0
LINE
  5
2021D
330
1F
100
AcDbEntity
  8
0
 62
256
  6
ByLayer
370
-1
 67
0
100
AcDbLine
 10
-66.16355061086682
 20
-25.417898626032482
 30
0.0
 11
-63.284177115265344
 21
-12.945961796781472
 31
0.0
  0
LINE
  5
2021E
330
1F
100
AcDbEntity
  8
0
 62
256
  6
ByLayer
370
-1
 67
0
100
AcDbLine
 10
-81.26628661503797
 20
-21.93115728370257
 30
0.0
 11
-66.16355061086682
 21
-25.417898626032482
 31
0.0
  0
LINE
  5
2021F
330
1F
100
AcDbEntity
  8
0
 62
256
  6
ByLayer
370
-1
 67
0
100
AcDbLine
 10
-78.38691311943649
 20
-9.459220454451561
 30
0.0
 11
-63.284177115265344
 21
-12.945961796781472
 31
0.0
  0
LINE
  5
20220
330
1F
100
AcDbEntity
  8
0
 62
256
  6
ByLayer
370
-1
 67
0
100
AcDbLine
 10
-81.26628661503797
 20
-21.93115728370257
 30
0.0
 11
-78.38691311943649
 21
-9.459220454451561
 31
0.0
  0
LINE
  5
20221
330
1F
100
AcDbEntity
  8
0
 62
256
  6
ByLayer
370
-1
 67
0
100
AcDbLine
 10
-70.43762064340027
 20
-43.930929856951956
 30
0.0
 11
-67.55824714779878
 21
-31.45899302770094
 31
0.0
  0
LINE
  5
20222
330
1F
100
AcDbEntity
  8
0
 62
256
  6
ByLayer
370
-1
 67
0
100
AcDbLine
 10
-85.54035664757141
 20
-40.44418851462204
 30
0.0
 11
-70.43762064340027
 21
-43.930929856951956
 31
0.0
  0
LINE
  5
20223
330
1F
100
AcDbEntity
  8
0
 62
256
  6
ByLayer
370
-1
 67
0
100
AcDbLine
 10
-82.66098315196993
 20
-27.97225168537103
 30
0.0
 11
-67.55824714779878
 21
-31.45899302770094
 31
0.0
  0
LINE
  5
20224
330
1F
100
AcDbEntity
  8
0
 62
256
  6
ByLayer
370
-1
 67
0
100
AcDbLine
 10
-85.54035664757141
 20
-40.44418851462204
 30
0.0
 11
-82.66098315196993
 21
-27.97225168537103
 31
0.0
  0
LINE
  5
20225
330
1F
100
AcDbEntity
  8
0
 62
256
  6
ByLayer
370
-1
 67
0
100
AcDbLine
 10
-40.170896823013834
 20
2.7058359955431426
 30
0.0
 11
-37.29152332741236
 21
15.177772824794154
 31
0.0
  0
LINE
  5
20226
330
1F
100
AcDbEntity
  8
0
 62
256
  6
ByLayer
370
-1
 67
0
100
AcDbLine
 10
-55.273632827184976
 20
6.192577337873055
 30
0.0
 11
-40.170896823013834
 21
2.7058359955431426
 31
0.0
  0
LINE
  5
20227
330
1F
100
AcDbEntity
  8
0
 62
256
  6
ByLayer
370
-1
 67
0
100
AcDbLine
 10
-52.3942593315835
 20
18.664514167124064
 30
0.0
 11
-37.29152332741236
 21
15.177772824794154
 31
0.0
  0
LINE
  5
20228
330
1F
100
AcDbEntity
  8
0
 62
256
  6
ByLayer
370
-1
 67
0
100
AcDbLine
 10
-55.273632827184976
 20
6.192577337873055
 30
0.0
 11
-52.3942593315835
 21
18.664514167124064
 31
0.0
  0
LINE
  5
20229
330
1F
100
AcDbEntity
  8
0
 62
256
  6
ByLayer
370
-1
 67
0
100
AcDbLine
 10
-44.44496685554728
 20
-15.807195235376323
 30
0.0
 11
-41.5655933599458
 21
-3.3352584061253134
 31
0.0
  0
LINE
  5
2022A
330
1F
100
AcDbEntity
  8
0
 62
256
  6
ByLayer
370
-1
 67
0
100
AcDbLine
 10
-59.54770285971842
 20
-12.320453893046412
 30
0.0
 11
-44.44496685554728
 21
-15.807195235376323
 31
0.0
  0
LINE
  5
2022B
330
1F
100
AcDbEntity
  8
0
 62
256
  6
ByLayer
370
-1
 67
0
100
AcDbLine
 10
-56.66832936411694
 20
0.15148293620459885
 30
0.0
 11
-41.5655933599458
 21
-3.3352584061253134
 31
0.0
  0
LINE
  5
2022C
330
1F
100
AcDbEntity
  8
0
 62
256
  6
ByLayer
370
-1
 67
0
100
AcDbLine
 10
-59.54770285971842
 20
-12.320453893046412
 30
0.0
 11
-56.66832936411694
 21
0.15148293620459885
 31
0.0
  0
LINE
  5
2022D
330
1F
100
AcDbEntity
  8
0
 62
256
  6
ByLayer
370
-1
 67
0
100
AcDbLine
 10
-48.719036888080716
 20
-34.32022646629579
 30
0.0
 11
-45.83966339247924
 21
-21.84828963704478
 31
0.0
  0
LINE
  5
2022E
330
1F
100
AcDbEntity
  8
0
 62
256
  6
ByLayer
370
-1
 67
0
100
AcDbLine
 10
-63.82177289225186
 20
-30.83348512396588
 30
0.0
 11
-48.719036888080716
 21
-34.32022646629579
 31
0.0
  0
LINE
  5
2022F
330
1F
100
AcDbEntity
  8
0
 62
256
  6
ByLayer
370
-1
 67
0
100
AcDbLine
 10
-60.94239939665038
 20
-18.36154829471487
 30
0.0
 11
-45.83966339247924
 21
-21.84828963704478
 31
0.0
  0
LINE
  5
20230
330
1F
100
AcDbEntity
  8
0
 62
256
  6
ByLayer
370
-1
 67
0
100
AcDbLine
 10
-63.82177289225186
 20
-30.83348512396588
 30
0.0
 11
-60.94239939665038
 21
-18.36154829471487
 31
0.0
  0
LINE
  5
20231
330
1F
100
AcDbEntity
  8
0
 62
256
  6
ByLayer
370
-1
 67
0
100
AcDbLine
 10
-52.99310692061416
 20
-52.83325769721526
 30
0.0
 11
-50.11373342501268
 21
-40.361320867964245
 31
0.0
  0
LINE
  5
20232
330
1F
100
AcDbEntity
  8
0
 62
256
  6
ByLayer
370
-1
 67
0
100
AcDbLine
 10
-68.0958429247853
 20
-49.346516354885345
 30
0.0
 11
-52.99310692061416
 21
-52.83325769721526
 31
0.0
  0
LINE
  5
20233
330
1F
100
AcDbEntity
  8
0
 62
256
  6
ByLayer
370
-1
 67
0
100
AcDbLine
 10
-65.21646942918383
 20
-36.87457952563433
 30
0.0
 11
-50.11373342501268
 21
-40.361320867964245
 31
0.0
  0
LINE
  5
20234
330
1F
100
AcDbEntity
  8
0
 62
256
  6
ByLayer
370
-1
 67
0
100
AcDbLine
 10
-68.0958429247853
 20
-49.346516354885345
 30
0.0
 11
-65.21646942918383
 21
-36.87457952563433
 31
0.0
  0
LINE
  5
20235
330
1F
100
AcDbEntity
  8
0
 62
256
  6
ByLayer
370
-1
 67
0
100
AcDbLine
 10
-77.19695928485277
 20
11.253976060610025
 30
0.0
 11
-74.31758578925128
 21
23.725912889861036
 31
0.0
  0
LINE
  5
20236
330
1F
100
AcDbEntity
  8
0
 62
256
  6
ByLayer
370
-1
 67
0
100
AcDbLine
 10
-92.29969528902392
 20
14.740717402939936
 30
0.0
 11
-77.19695928485277
 21
11.253976060610025
 31
0.0
  0
LINE
  5
20237
330
1F
100
AcDbEntity
  8
0
 62
256
  6
ByLayer
370
-1
 67
0
100
AcDbLine
 10
-89.42032179342243
 20
27.212654232190946
 30
0.0
 11
-74.31758578925128
 21
23.725912889861036
 31
0.0
  0
LINE
  5
20238
330
1F
100
AcDbEntity
  8
0
 62
256
  6
ByLayer
370
-1
 67
0
100
AcDbLine
 10
-92.29969528902392
 20
14.740717402939936
 30
0.0
 11
-89.42032179342243
 21
27.212654232190946
 31
0.0
  0
LINE
  5
20239
330
1F
100
AcDbEntity
  8
0
 62
256
  6
ByLayer
370
-1
 67
0
100
AcDbLine
 10
-81.47102931738621
 20
-7.259055170309442
 30
0.0
 11
-78.59165582178473
 21
5.212881658941568
 31
0.0
  0
LINE
  5
2023A
330
1F
100
AcDbEntity
  8
0
 62
256
  6
ByLayer
370
-1
 67
0
100
AcDbLine
 10
-96.57376532155736
 20
-3.77231382797953
 30
0.0
 11
-81.47102931738621
 21
-7.259055170309442
 31
0.0
  0
LINE
  5
2023B
330
1F
100
AcDbEntity
  8
0
 62
256
  6
ByLayer
370
-1
 67
0
100
AcDbLine
 10
-93.69439182595588
 20
8.69962300127148
 30
0.0
 11
-78.59165582178473
 21
5.212881658941568
 31
0.0
  0
LINE
  5
2023C
330
1F
100
AcDbEntity
  8
0
 62
256
  6
ByLayer
370
-1
 67
0
100
AcDbLine
 10
-96.57376532155736
 20
-3.77231382797953
 30
0.0
 11
-93.69439182595588
 21
8.69962300127148
 31
0.0
  0
LINE
  5
2023D
330
1F
100
AcDbEntity
  8
0
 62
256
  6
ByLayer
370
-1
 67
0
100
AcDbLine
 10
-85.74509934991966
 20
-25.772086401228908
 30
0.0
 11
-82.86572585431817
 21
-13.300149571977897
 31
0.0
  0
LINE
  5
2023E
330
1F
100
AcDbEntity
  8
0
 62
256
  6
ByLayer
370
-1
 67
0
100
AcDbLine
 10
-100.8478353540908
 20
-22.285345058898997
 30
0.0
 11
-85.74509934991966
 21
-25.772086401228908
 31
0.0
  0
LINE
  5
2023F
330
1F
100
AcDbEntity
  8
0
 62
256
  6
ByLayer
370
-1
 67
0
100
AcDbLine
 10
-97.96846185848932
 20
-9.813408229647987
 30
0.0
 11
-82.86572585431817
 21
-13.300149571977897
 31
0.0
  0
LINE
  5
20240
330
1F
100
AcDbEntity
  8
0
 62
256
  6
ByLayer
370
-1
 67
0
100
AcDbLine
 10
-100.8478353540908
 20
-22.285345058898997
 30
0.0
 11
-97.96846185848932
 21
-9.813408229647987
 31
0.0
  0
LINE
  5
20241
330
1F
100
AcDbEntity
  8
0
 62
256
  6
ByLayer
370
-1
 67
0
100
AcDbLine
 10
-90.01916938245309
 20
-44.28511763214838
 30
0.0
 11
-87.1397958868516
 21
-31.813180802897364
 31
0.0
  0
LINE
  5
20242
330
1F
100
AcDbEntity
  8
0
 62
256
  6
ByLayer
370
-1
 67
0
100
AcDbLine
 10
-105.12190538662423
 20
-40.798376289818464
 30
0.0
 11
-90.01916938245309
 21
-44.28511763214838
 31
0.0
  0
LINE
  5
20243
330
1F
100
AcDbEntity
  8
0
 62
256
  6
ByLayer
370
-1
 67
0
100
AcDbLine
 10
-102.24253189102275
 20
-28.326439460567453
 30
0.0
 11
-87.1397958868516
 21
-31.813180802897364
 31
0.0
  0
LINE
  5
20244
330
1F
100
AcDbEntity
  8
0
 62
256
  6
ByLayer
370
-1
 67
0
100
AcDbLine
 10
-105.12190538662423
 20
-40.798376289818464
 30
0.0
 11
-102.24253189102275
 21
-28.326439460567453
 31
0.0
  0
LINE
  5
20245
330
1F
100
AcDbEntity
  8
0
 62
256
  6
ByLayer
370
-1
 67
0
100
AcDbLine
 10
-98.91554304017231
 20
1.6432726699538653
 30
0.0
 11
-96.03616954457082
 21
14.115209499204877
 31
0.0
  0
LINE
  5
20246
330
1F
100
AcDbEntity
  8
0
 62
256
  6
ByLayer
370
-1
 67
0
100
AcDbLine
 10
-114.01827904434346
 20
5.130014012283778
 30
0.0
 11
-98.91554304017231
 21
1.6432726699538653
 31
0.0
  0
LINE
  5
20247
330
1F
100
AcDbEntity
  8
0
 62
256
  6
ByLayer
370
-1
 67
0
100
AcDbLine
 10
-111.13890554874197
 20
17.601950841534787
 30
0.0
 11
-96.03616954457082
 21
14.115209499204877
 31
0.0
  0
LINE
  5
20248
330
1F
100
AcDbEntity
  8
0
 62
256
  6
ByLayer
370
-1
 67
0
100
AcDbLine
 10
-114.01827904434346
 20
5.130014012283778
 30
0.0
 11
-111.13890554874197
 21
17.601950841534787
 31
0.0
  0
LINE
  5
20249
330
1F
100
AcDbEntity
  8
0
 62
256
  6
ByLayer
370
-1
 67
0
100
AcDbLine
 10
-103.18961307270575
 20
-16.8697585609656
 30
0.0
 11
-100.31023957710427
 21
-4.397821731714591
 31
0.0
  0
LINE
  5
2024A
330
1F
100
AcDbEntity
  8
0
 62
256
  6
ByLayer
370
-1
 67
0
100
AcDbLine
 10
-118.2923490768769
 20
-13.38301721863569
 30
0.0
 11
-103.18961307270575
 21
-16.8697585609656
 31
0.0
  0
LINE
  5
2024B
330
1F
100
AcDbEntity
  8
0
 62
256
  6
ByLayer
370
-1
 67
0
100
AcDbLine
 10
-115.41297558127542
 20
-0.9110803893846784
 30
0.0
 11
-100.31023957710427
 21
-4.397821731714591
 31
0.0
  0
LINE
  5
2024C
330
1F
100
AcDbEntity
  8
0
 62
256
  6
ByLayer
370
-1
 67
0
100
AcDbLine
 10
-118.2923490768769
 20
-13.38301721863569
 30
0.0
 11
-115.41297558127542
 21
-0.9110803893846784
 31
0.0
  0
LINE
  5
2024D
330
1F
100
AcDbEntity
  8
0
 62
256
  6
ByLayer
370
-1
 67
0
100
AcDbLine
 10
-107.4636831052392
 20
-35.38278979188507
 30
0.0
 11
-104.58430960963771
 21
-22.910852962634056
 31
0.0
  0
LINE
  5
2024E
330
1F
100
AcDbEntity
  8
0
 62
256
  6
ByLayer
370
-1
 67
0
100
AcDbLine
 10
-122.56641910941035
 20
-31.896048449555156
 30
0.0
 11
-107.4636831052392
 21
-35.38278979188507
 31
0.0
  0
LINE
  5
2024F
330
1F
100
AcDbEntity
  8
0
 62
256
  6
ByLayer
370
-1
 67
0
100
AcDbLine
 10
-119.68704561380886
 20
-19.424111620304146
 30
0.0
 11
-104.58430960963771
 21
-22.910852962634056
 31
0.0
  0
LINE
  5
20250
330
1F
100
AcDbEntity
  8
0
 62
256
  6
ByLayer
370
-1
 67
0
100
AcDbLine
 10
-122.56641910941035
 20
-31.896048449555156
 30
0.0
 11
-119.68704561380886
 21
-19.424111620304146
 31
0.0
  0
LINE
  5
20251
330
1F
100
AcDbEntity
  8
0
 62
256
  6
ByLayer
370
-1
 67
0
100
AcDbLine
 10
-111.73775313777263
 20
-53.89582102280453
 30
0.0
 11
-108.85837964217114
 21
-41.42388419355352
 31
0.0
  0
LINE
  5
20252
330
1F
100
AcDbEntity
  8
0
 62
256
  6
ByLayer
370
-1
 67
0
100
AcDbLine
 10
-126.84048914194378
 20
-50.40907968047462
 30
0.0
 11
-111.73775313777263
 21
-53.89582102280453
 31
0.0
  0
LINE
  5
20253
330
1F
100
AcDbEntity
  8
0
 62
256
  6
ByLayer
370
-1
 67
0
100
AcDbLine
 10
-123.9611156463423
 20
-37.937142851223605
 30
0.0
 11
-108.85837964217114
 21
-41.42388419355352
 31
0.0
  0
LINE
  5
20254
330
1F
100
AcDbEntity
  8
0
 62
256
  6
ByLayer
370
-1
 67
0
100
AcDbLine
 10
-126.84048914194378
 20
-50.40907968047462
 30
0.0
 11
-123.9611156463423
 21
-37.937142851223605
 31
0.0
  0
LINE
  5
20255
330
1F
100
AcDbEntity
  8
0
 62
256
  6
ByLayer
370
-1
 67
0
100
AcDbLine
 10
-117.42857427109179
 20
5.917342702487306
 30
0.0
 11
-114.5492007754903
 21
18.389279531738318
 31
0.0
  0
LINE
  5
20256
330
1F
100
AcDbEntity
  8
0
 62
256
  6
ByLayer
370
-1
 67
0
100
AcDbLine
 10
-132.53131027526294
 20
9.404084044817218
 30
0.0
 11
-117.42857427109179
 21
5.917342702487306
 31
0.0
  0
LINE
  5
20257
330
1F
100
AcDbEntity
  8
0
 62
256
  6
ByLayer
370
-1
 67
0
100
AcDbLine
 10
-129.65193677966147
 20
21.876020874068228
 30
0.0
 11
-114.5492007754903
 21
18.389279531738318
 31
0.0
  0
LINE
  5
20258
330
1F
100
AcDbEntity
  8
0
 62
256
  6
ByLayer
370
-1
 67
0
100
AcDbLine
 10
-132.53131027526294
 20
9.404084044817218
 30
0.0
 11
-129.65193677966147
 21
21.876020874068228
 31
0.0
  0
LINE
  5
20259
330
1F
100
AcDbEntity
  8
0
 62
256
  6
ByLayer
370
-1
 67
0
100
AcDbLine
 10
-121.70264430362523
 20
-12.59568852843216
 30
0.0
 11
-118.82327080802375
 21
-0.12375169918114981
 31
0.0
  0
LINE
  5
2025A
330
1F
100
AcDbEntity
  8
0
 62
256
  6
ByLayer
370
-1
 67
0
100
AcDbLine
 10
-136.80538030779638
 20
-9.108947186102249
 30
0.0
 11
-121.70264430362523
 21
-12.59568852843216
 31
0.0
  0
LINE
  5
2025B
330
1F
100
AcDbEntity
  8
0
 62
256
  6
ByLayer
370
-1
 67
0
100
AcDbLine
 10
-133.9260068121949
 20
3.3629896431487625
 30
0.0
 11
-118.82327080802375
 21
-0.12375169918114981
 31
0.0
  0
LINE
  5
2025C
330
1F
100
AcDbEntity
  8
0
 62
256
  6
ByLayer
370
-1
 67
0
100
AcDbLine
 10
-136.80538030779638
 20
-9.108947186102249
 30
0.0
 11
-133.9260068121949
 21
3.3629896431487625
 31
0.0
  0
LINE
  5
2025D
330
1F
100
AcDbEntity
  8
0
 62
256
  6
ByLayer
370
-1
 67
0
100
AcDbLine
 10
-125.97671433615866
 20
-31.108719759351626
 30
0.0
 11
-123.09734084055718
 21
-18.636782930100615
 31
0.0
  0
LINE
  5
2025E
330
1F
100
AcDbEntity
  8
0
 62
256
  6
ByLayer
370
-1
 67
0
100
AcDbLine
 10
-141.0794503403298
 20
-27.621978417021715
 30
0.0
 11
-125.97671433615866
 21
-31.108719759351626
 31
0.0
  0
LINE
  5
2025F
330
1F
100
AcDbEntity
  8
0
 62
256
  6
ByLayer
370
-1
 67
0
100
AcDbLine
 10
-138.20007684472833
 20
-15.150041587770705
 30
0.0
 11
-123.09734084055718
 21
-18.636782930100615
 31
0.0
  0
LINE
  5
20260
330
1F
100
AcDbEntity
  8
0
 62
256
  6
ByLayer
370
-1
 67
0
100
AcDbLine
 10
-141.0794503403298
 20
-27.621978417021715
 30
0.0
 11
-138.20007684472833
 21
-15.150041587770705
 31
0.0
  0
LINE
  5
20261
330
1F
100
AcDbEntity
  8
0
 62
256
  6
ByLayer
370
-1
 67
0
100
AcDbLine
 10
-130.2507843686921
 20
-49.621750990271096
 30
0.0
 11
-127.37141087309062
 21
-37.14981416102008
 31
0.0
  0
LINE
  5
20262
330
1F
100
AcDbEntity
  8
0
 62
256
  6
ByLayer
370
-1
 67
0
100
AcDbLine
 10
-145.35352037286324
 20
-46.13500964794118
 30
0.0
 11
-130.2507843686921
 21
-49.621750990271096
 31
0.0
  0
LINE
  5
20263
330
1F
100
AcDbEntity
  8
0
 62
256
  6
ByLayer
370
-1
 67
0
100
AcDbLine
 10
-142.47414687726177
 20
-33.66307281869017
 30
0.0
 11
-127.37141087309062
 21
-37.14981416102008
 31
0.0
  0
LINE
  5
20264
330
1F
100
AcDbEntity
  8
0
 62
256
  6
ByLayer
370
-1
 67
0
100
AcDbLine
 10
-145.35352037286324
 20
-46.13500964794118
 30
0.0
 11
-142.47414687726177
 21
-33.66307281869017
 31
0.0
  0
LINE
  5
20265
330
1F
100
AcDbEntity
  8
0
 62
256
  6
ByLayer
370
-1
 67
0
100
AcDbLine
 10
-137.0101230101446
 20
5.563154927290884
 30
0.0
 11
-134.13074951454314
 21
18.035091756541895
 31
0.0
  0
LINE
  5
20266
330
1F
100
AcDbEntity
  8
0
 62
256
  6
ByLayer
370
-1
 67
0
100
AcDbLine
 10
-152.11285901431575
 20
9.049896269620795
 30
0.0
 11
-137.0101230101446
 21
5.563154927290884
 31
0.0
  0
LINE
  5
20267
330
1F
100
AcDbEntity
  8
0
 62
256
  6
ByLayer
370
-1
 67
0
100
AcDbLine
 10
-149.23348551871428
 20
21.521833098871806
 30
0.0
 11
-134.13074951454314
 21
18.035091756541895
 31
0.0
  0
LINE
  5
20268
330
1F
100
AcDbEntity
  8
0
 62
256
  6
ByLayer
370
-1
 67
0
100
AcDbLine
 10
-152.11285901431575
 20
9.049896269620795
 30
0.0
 11
-149.23348551871428
 21
21.521833098871806
 31
0.0
  0
LINE
  5
20269
330
1F
100
AcDbEntity
  8
0
 62
256
  6
ByLayer
370
-1
 67
0
100
AcDbLine
 10
-141.28419304267806
 20
-12.949876303628582
 30
0.0
 11
-138.40481954707658
 21
-0.477939474377572
 31
0.0
  0
LINE
  5
2026A
330
1F
100
AcDbEntity
  8
0
 62
256
  6
ByLayer
370
-1
 67
0
100
AcDbLine
 10
-156.3869290468492
 20
-9.463134961298671
 30
0.0
 11
-141.28419304267806
 21
-12.949876303628582
 31
0.0
  0
LINE
  5
2026B
330
1F
100
AcDbEntity
  8
0
 62
256
  6
ByLayer
370
-1
 67
0
100
AcDbLine
 10
-153.50755555124772
 20
3.0088018679523403
 30
0.0
 11
-138.40481954707658
 21
-0.477939474377572
 31
0.0
  0
LINE
  5
2026C
330
1F
100
AcDbEntity
  8
0
 62
256
  6
ByLayer
370
-1
 67
0
100
AcDbLine
 10
-156.3869290468492
 20
-9.463134961298671
 30
0.0
 11
-153.50755555124772
 21
3.0088018679523403
 31
0.0
  0
LINE
  5
2026D
330
1F
100
AcDbEntity
  8
0
 62
256
  6
ByLayer
370
-1
 67
0
100
AcDbLine
 10
-145.5582630752115
 20
-31.462907534548048
 30
0.0
 11
-142.67888957961003
 21
-18.990970705297038
 31
0.0
  0
LINE
  5
2026E
330
1F
100
AcDbEntity
  8
0
 62
256
  6
ByLayer
370
-1
 67
0
100
AcDbLine
 10
-160.66099907938263
 20
-27.976166192218137
 30
0.0
 11
-145.5582630752115
 21
-31.462907534548048
 31
0.0
  0
LINE
  5
2026F
330
1F
100
AcDbEntity
  8
0
 62
256
  6
ByLayer
370
-1
 67
0
100
AcDbLine
 10
-157.78162558378116
 20
-15.504229362967127
 30
0.0
 11
-142.67888957961003
 21
-18.990970705297038
 31
0.0
  0
LINE
  5
20270
330
1F
100
AcDbEntity
  8
0
 62
256
  6
ByLayer
370
-1
 67
0
100
AcDbLine
 10
-160.66099907938263
 20
-27.976166192218137
 30
0.0
 11
-157.78162558378116
 21
-15.504229362967127
 31
0.0
  0
LINE
  5
20271
330
1F
100
AcDbEntity
  8
0
 62
256
  6
ByLayer
370
-1
 67
0
100
AcDbLine
 10
-149.83233310774494
 20
-49.97593876546752
 30
0.0
 11
-146.95295961214347
 21
-37.504001936216504
 31
0.0
  0
LINE
  5
20272
330
1F
100
AcDbEntity
  8
0
 62
256
  6
ByLayer
370
-1
 67
0
100
AcDbLine
 10
-164.93506911191608
 20
-46.489197423137604
 30
0.0
 11
-149.83233310774494
 21
-49.97593876546752
 31
0.0
  0
LINE
  5
20273
330
1F
100
AcDbEntity
  8
0
 62
256
  6
ByLayer
370
-1
 67
0
100
AcDbLine
 10
-162.0556956163146
 20
-34.01726059388659
 30
0.0
 11
-146.95295961214347
 21
-37.504001936216504
 31
0.0
  0
LINE
  5
20274
330
1F
100
AcDbEntity
  8
0
 62
256
  6
ByLayer
370
-1
 67
0
100
AcDbLine
 10
-164.93506911191608
 20
-46.489197423137604
 30
0.0
 11
-162.0556956163146
 21
-34.01726059388659
 31
0.0
  0
LINE
  5
20275
330
1F
100
AcDbEntity
  8
0
 62
256
  6
ByLayer
370
-1
 67
0
100
AcDbLine
 10
-22.72638310022773
 20
-6.196491844720166
 30
0.0
 11
-19.84700960462625
 21
6.275444984530845
 31
0.0
  0
LINE
  5
20276
330
1F
100
AcDbEntity
  8
0
 62
256
  6
ByLayer
370
-1
 67
0
100
AcDbLine
 10
-37.82911910439887
 20
-2.7097505023902535
 30
0.0
 11
-22.72638310022773
 21
-6.196491844720166
 31
0.0
  0
LINE
  5
20277
330
1F
100
AcDbEntity
  8
0
 62
256
  6
ByLayer
370
-1
 67
0
100
AcDbLine
 10
-34.94974560879739
 20
9.762186326860757
 30
0.0
 11
-19.84700960462625
 21
6.275444984530845
 31
0.0
  0
LINE
  5
20278
330
1F
100
AcDbEntity
  8
0
 62
256
  6
ByLayer
370
-1
 67
0
100
AcDbLine
 10
-37.82911910439887
 20
-2.7097505023902535
 30
0.0
 11
-34.94974560879739
 21
9.762186326860757
 31
0.0
  0
LINE
  5
20279
330
1F
100
AcDbEntity
  8
0
 62
256
  6
ByLayer
370
-1
 67
0
100
AcDbLine
 10
-27.000453132761173
 20
-24.70952307563963
 30
0.0
 11
-24.121079637159696
 21
-12.23758624638862
 31
0.0
  0
LINE
  5
2027A
330
1F
100
AcDbEntity
  8
0
 62
256
  6
ByLayer
370
-1
 67
0
100
AcDbLine
 10
-42.103189136932315
 20
-21.22278173330972
 30
0.0
 11
-27.000453132761173
 21
-24.70952307563963
 31
0.0
  0
LINE
  5
2027B
330
1F
100
AcDbEntity
  8
0
 62
256
  6
ByLayer
370
-1
 67
0
100
AcDbLine
 10
-39.22381564133084
 20
-8.75084490405871
 30
0.0
 11
-24.121079637159696
 21
-12.23758624638862
 31
0.0
  0
LINE
  5
2027C
330
1F
100
AcDbEntity
  8
0
 62
256
  6
ByLayer
370
-1
 67
0
100
AcDbLine
 10
-42.103189136932315
 20
-21.22278173330972
 30
0.0
 11
-39.22381564133084
 21
-8.75084490405871
 31
0.0
  0
LINE
  5
2027D
330
1F
100
AcDbEntity
  8
0
 62
256
  6
ByLayer
370
-1
 67
0
100
AcDbLine
 10
-31.27452316529461
 20
-43.222554306559104
 30
0.0
 11
-28.395149669693133
 21
-30.75061747730809
 31
0.0
  0
LINE
  5
2027E
330
1F
100
AcDbEntity
  8
0
 62
256
  6
ByLayer
370
-1
 67
0
100
AcDbLine
 10
-46.37725916946575
 20
-39.73581296422919
 30
0.0
 11
-31.27452316529461
 21
-43.222554306559104
 31
0.0
  0
LINE
  5
2027F
330
1F
100
AcDbEntity
  8
0
 62
256
  6
ByLayer
370
-1
 67
0
100
AcDbLine
 10
-43.497885673864275
 20
-27.26387613497818
 30
0.0
 11
-28.395149669693133
 21
-30.75061747730809
 31
0.0
  0
LINE
  5
20280
330
1F
100
AcDbEntity
  8
0
 62
256
  6
ByLayer
370
-1
 67
0
100
AcDbLine
 10
-46.37725916946575
 20
-39.73581296422919
 30
0.0
 11
-43.497885673864275
 21
-27.26387613497818
 31
0.0
  0
LINE
  5
20281
330
1F
100
AcDbEntity
  8
0
 62
256
  6
ByLayer
370
-1
 67
0
100
AcDbLine
 10
-35.548593197828055
 20
-61.73558553747857
 30
0.0
 11
-32.66921970222658
 21
-49.26364870822756
 31
0.0
  0
LINE
  5
20282
330
1F
100
AcDbEntity
  8
0
 62
256
  6
ByLayer
370
-1
 67
0
100
AcDbLine
 10
-50.6513292019992
 20
-58.248844195148656
 30
0.0
 11
-35.548593197828055
 21
-61.73558553747857
 31
0.0
  0
LINE
  5
20283
330
1F
100
AcDbEntity
  8
0
 62
256
  6
ByLayer
370
-1
 67
0
100
AcDbLine
 10
-47.77195570639772
 20
-45.77690736589764
 30
0.0
 11
-32.66921970222658
 21
-49.26364870822756
 31
0.0
  0
LINE
  5
20284
330
1F
100
AcDbEntity
  8
0
 62
256
  6
ByLayer
370
-1
 67
0
100
AcDbLine
 10
-50.6513292019992
 20
-58.248844195148656
 30
0.0
 11
-47.77195570639772
 21
-45.77690736589764
 31
0.0
  0
LINE
  5
20285
330
1F
100
AcDbEntity
  8
0
 62
256
  6
ByLayer
370
-1
 67
0
100
AcDbLine
 10
-5.28186937744162
 20
-15.098819684983475
 30
0.0
 11
-2.4024958818401423
 21
-2.6268828557324637
 31
0.0
  0
LINE
  5
20286
330
1F
100
AcDbEntity
  8
0
 62
256
  6
ByLayer
370
-1
 67
0
100
AcDbLine
 10
-20.384605381612765
 20
-11.612078342653561
 30
0.0
 11
-5.28186937744162
 21
-15.098819684983475
 31
0.0
  0
LINE
  5
20287
330
1F
100
AcDbEntity
  8
0
 62
256
  6
ByLayer
370
-1
 67
0
100
AcDbLine
 10
-17.505231886011288
 20
0.8598584865974486
 30
0.0
 11
-2.4024958818401423
 21
-2.6268828557324637
 31
0.0
  0
LINE
  5
20288
330
1F
100
AcDbEntity
  8
0
 62
256
  6
ByLayer
370
-1
 67
0
100
AcDbLine
 10
-20.384605381612765
 20
-11.612078342653561
 30
0.0
 11
-17.505231886011288
 21
0.8598584865974486
 31
0.0
  0
LINE
  5
20289
330
1F
100
AcDbEntity
  8
0
 62
256
  6
ByLayer
370
-1
 67
0
100
AcDbLine
 10
-9.555939409975062
 20
-33.61185091590294
 30
0.0
 11
-6.676565914373585
 21
-21.139914086651928
 31
0.0
  0
LINE
  5
2028A
330
1F
100
AcDbEntity
  8
0
 62
256
  6
ByLayer
370
-1
 67
0
100
AcDbLine
 10
-24.65867541414621
 20
-30.125109573573027
 30
0.0
 11
-9.555939409975062
 21
-33.61185091590294
 31
0.0
  0
LINE
  5
2028B
330
1F
100
AcDbEntity
  8
0
 62
256
  6
ByLayer
370
-1
 67
0
100
AcDbLine
 10
-21.779301918544732
 20
-17.653172744322017
 30
0.0
 11
-6.676565914373585
 21
-21.139914086651928
 31
0.0
  0
LINE
  5
2028C
330
1F
100
AcDbEntity
  8
0
 62
256
  6
ByLayer
370
-1
 67
0
100
AcDbLine
 10
-24.65867541414621
 20
-30.125109573573027
 30
0.0
 11
-21.779301918544732
 21
-17.653172744322017
 31
0.0
  0
LINE
  5
2028D
330
1F
100
AcDbEntity
  8
0
 62
256
  6
ByLayer
370
-1
 67
0
100
AcDbLine
 10
-13.830009442508503
 20
-52.12488214682241
 30
0.0
 11
-10.950635946907026
 21
-39.652945317571394
 31
0.0
  0
LINE
  5
2028E
330
1F
100
AcDbEntity
  8
0
 62
256
  6
ByLayer
370
-1
 67
0
100
AcDbLine
 10
-28.932745446679647
 20
-48.638140804492494
 30
0.0
 11
-13.830009442508503
 21
-52.12488214682241
 31
0.0
  0
LINE
  5
2028F
330
1F
100
AcDbEntity
  8
0
 62
256
  6
ByLayer
370
-1
 67
0
100
AcDbLine
 10
-26.05337195107817
 20
-36.16620397524148
 30
0.0
 11
-10.950635946907026
 21
-39.652945317571394
 31
0.0
  0
LINE
  5
20290
330
1F
100
AcDbEntity
  8
0
 62
256
  6
ByLayer
370
-1
 67
0
100
AcDbLine
 10
-28.932745446679647
 20
-48.638140804492494
 30
0.0
 11
-26.05337195107817
 21
-36.16620397524148
 31
0.0
  0
LINE
  5
20291
330
1F
100
AcDbEntity
  8
0
 62
256
  6
ByLayer
370
-1
 67
0
100
AcDbLine
 10
-18.104079475041942
 20
-70.63791337774187
 30
0.0
 11
-15.224705979440467
 21
-58.16597654849086
 31
0.0
  0
LINE
  5
20292
330
1F
100
AcDbEntity
  8
0
 62
256
  6
ByLayer
370
-1
 67
0
100
AcDbLine
 10
-33.20681547921309
 20
-67.15117203541196
 30
0.0
 11
-18.104079475041942
 21
-70.63791337774187
 31
0.0
  0
LINE
  5
20293
330
1F
100
AcDbEntity
  8
0
 62
256
  6
ByLayer
370
-1
 67
0
100
AcDbLine
 10
-30.327441983611614
 20
-54.679235206160946
 30
0.0
 11
-15.224705979440467
 21
-58.16597654849086
 31
0.0
  0
LINE
  5
20294
330
1F
100
AcDbEntity
  8
0
 62
256
  6
ByLayer
370
-1
 67
0
100
AcDbLine
 10
-33.20681547921309
 20
-67.15117203541196
 30
0.0
 11
-30.327441983611614
 21
-54.679235206160946
 31
0.0
  0
LINE
  5
20295
330
1F
100
AcDbEntity
  8
0
 62
256
  6
ByLayer
370
-1
 67
0
100
AcDbLine
 10
57.61541054579994
 20
11.60816383580644
 30
0.0
 11
54.73603705019846
 21
24.08010066505745
 31
0.0
  0
LINE
  5
20296
330
1F
100
AcDbEntity
  8
0
 62
256
  6
ByLayer
370
-1
 67
0
100
AcDbLine
 10
72.71814654997108
 20
15.09490517813635
 30
0.0
 11
57.61541054579994
 21
11.60816383580644
 31
0.0
  0
LINE
  5
20297
330
1F
100
AcDbEntity
  8
0
 62
256
  6
ByLayer
370
-1
 67
0
100
AcDbLine
 10
69.83877305436961
 20
27.56684200738736
 30
0.0
 11
54.73603705019846
 21
24.08010066505745
 31
0.0
  0
LINE
  5
20298
330
1F
100
AcDbEntity
  8
0
 62
256
  6
ByLayer
370
-1
 67
0
100
AcDbLine
 10
72.71814654997108
 20
15.09490517813635
 30
0.0
 11
69.83877305436961
 21
27.56684200738736
 31
0.0
  0
LINE
  5
20299
330
1F
100
AcDbEntity
  8
0
 62
256
  6
ByLayer
370
-1
 67
0
100
AcDbLine
 10
61.88948057833338
 20
-6.904867395113026
 30
0.0
 11
59.0101070827319
 21
5.567069434137984
 31
0.0
  0
LINE
  5
2029A
330
1F
100
AcDbEntity
  8
0
 62
256
  6
ByLayer
370
-1
 67
0
100
AcDbLine
 10
76.99221658250451
 20
-3.4181260527831157
 30
0.0
 11
61.88948057833338
 21
-6.904867395113026
 31
0.0
  0
LINE
  5
2029B
330
1F
100
AcDbEntity
  8
0
 62
256
  6
ByLayer
370
-1
 67
0
100
AcDbLine
 10
74.11284308690304
 20
9.053810776467895
 30
0.0
 11
59.0101070827319
 21
5.567069434137984
 31
0.0
  0
LINE
  5
2029C
330
1F
100
AcDbEntity
  8
0
 62
256
  6
ByLayer
370
-1
 67
0
100
AcDbLine
 10
76.99221658250451
 20
-3.4181260527831157
 30
0.0
 11
74.11284308690304
 21
9.053810776467895
 31
0.0
  0
LINE
  5
2029D
330
1F
100
AcDbEntity
  8
0
 62
256
  6
ByLayer
370
-1
 67
0
100
AcDbLine
 10
66.16355061086682
 20
-25.417898626032493
 30
0.0
 11
63.284177115265344
 21
-12.945961796781482
 31
0.0
  0
LINE
  5
2029E
330
1F
100
AcDbEntity
  8
0
 62
256
  6
ByLayer
370
-1
 67
0
100
AcDbLine
 10
81.26628661503796
 20
-21.931157283702582
 30
0.0
 11
66.16355061086682
 21
-25.417898626032493
 31
0.0
  0
LINE
  5
2029F
330
1F
100
AcDbEntity
  8
0
 62
256
  6
ByLayer
370
-1
 67
0
100
AcDbLine
 10
78.38691311943649
 20
-9.459220454451572
 30
0.0
 11
63.284177115265344
 21
-12.945961796781482
 31
0.0
  0
LINE
  5
202A0
330
1F
100
AcDbEntity
  8
0
 62
256
  6
ByLayer
370
-1
 67
0
100
AcDbLine
 10
81.26628661503796
 20
-21.931157283702582
 30
0.0
 11
78.38691311943649
 21
-9.459220454451572
 31
0.0
  0
LINE
  5
202A1
330
1F
100
AcDbEntity
  8
0
 62
256
  6
ByLayer
370
-1
 67
0
100
AcDbLine
 10
70.43762064340025
 20
-43.93092985695196
 30
0.0
 11
67.55824714779877
 21
-31.45899302770095
 31
0.0
  0
LINE
  5
202A2
330
1F
100
AcDbEntity
  8
0
 62
256
  6
ByLayer
370
-1
 67
0
100
AcDbLine
 10
85.5403566475714
 20
-40.44418851462205
 30
0.0
 11
70.43762064340025
 21
-43.93092985695196
 31
0.0
  0
LINE
  5
202A3
330
1F
100
AcDbEntity
  8
0
 62
256
  6
ByLayer
370
-1
 67
0
100
AcDbLine
 10
82.66098315196992
 20
-27.972251685371038
 30
0.0
 11
67.55824714779877
 21
-31.45899302770095
 31
0.0
  0
LINE
  5
202A4
330
1F
100
AcDbEntity
  8
0
 62
256
  6
ByLayer
370
-1
 67
0
100
AcDbLine
 10
85.5403566475714
 20
-40.44418851462205
 30
0.0
 11
82.66098315196992
 21
-27.972251685371038
 31
0.0
  0
LINE
  5
202A5
330
1F
100
AcDbEntity
  8
0
 62
256
  6
ByLayer
370
-1
 67
0
100
AcDbLine
 10
40.170896823013834
 20
2.7058359955431346
 30
0.0
 11
37.29152332741236
 21
15.177772824794145
 31
0.0
  0
LINE
  5
202A6
330
1F
100
AcDbEntity
  8
0
 62
256
  6
ByLayer
370
-1
 67
0
100
AcDbLine
 10
55.273632827184976
 20
6.192577337873045
 30
0.0
 11
40.170896823013834
 21
2.7058359955431346
 31
0.0
  0
LINE
  5
202A7
330
1F
100
AcDbEntity
  8
0
 62
256
  6
ByLayer
370
-1
 67
0
100
AcDbLine
 10
52.3942593315835
 20
18.664514167124054
 30
0.0
 11
37.29152332741236
 21
15.177772824794145
 31
0.0
  0
LINE
  5
202A8
330
1F
100
AcDbEntity
  8
0
 62
256
  6
ByLayer
370
-1
 67
0
100
AcDbLine
 10
55.273632827184976
 20
6.192577337873045
 30
0.0
 11
52.3942593315835
 21
18.664514167124054
 31
0.0
  0
LINE
  5
202A9
330
1F
100
AcDbEntity
  8
0
 62
256
  6
ByLayer
370
-1
 67
0
100
AcDbLine
 10
44.44496685554727
 20
-15.807195235376332
 30
0.0
 11
41.565593359945794
 21
-3.3352584061253214
 31
0.0
  0
LINE
  5
202AA
330
1F
100
AcDbEntity
  8
0
 62
256
  6
ByLayer
370
-1
 67
0
100
AcDbLine
 10
59.54770285971841
 20
-12.320453893046421
 30
0.0
 11
44.44496685554727
 21
-15.807195235376332
 31
0.0
  0
LINE
  5
202AB
330
1F
100
AcDbEntity
  8
0
 62
256
  6
ByLayer
370
-1
 67
0
100
AcDbLine
 10
56.668329364116936
 20
0.15148293620458908
 30
0.0
 11
41.565593359945794
 21
-3.3352584061253214
 31
0.0
  0
LINE
  5
202AC
330
1F
100
AcDbEntity
  8
0
 62
256
  6
ByLayer
370
-1
 67
0
100
AcDbLine
 10
59.54770285971841
 20
-12.320453893046421
 30
0.0
 11
56.668329364116936
 21
0.15148293620458908
 31
0.0
  0
LINE
  5
202AD
330
1F
100
AcDbEntity
  8
0
 62
256
  6
ByLayer
370
-1
 67
0
100
AcDbLine
 10
48.71903688808071
 20
-34.32022646629579
 30
0.0
 11
45.83966339247923
 21
-21.848289637044786
 31
0.0
  0
LINE
  5
202AE
330
1F
100
AcDbEntity
  8
0
 62
256
  6
ByLayer
370
-1
 67
0
100
AcDbLine
 10
63.82177289225185
 20
-30.833485123965886
 30
0.0
 11
48.71903688808071
 21
-34.32022646629579
 31
0.0
  0
LINE
  5
202AF
330
1F
100
AcDbEntity
  8
0
 62
256
  6
ByLayer
370
-1
 67
0
100
AcDbLine
 10
60.94239939665037
 20
-18.361548294714876
 30
0.0
 11
45.83966339247923
 21
-21.848289637044786
 31
0.0
  0
LINE
  5
202B0
330
1F
100
AcDbEntity
  8
0
 62
256
  6
ByLayer
370
-1
 67
0
100
AcDbLine
 10
63.82177289225185
 20
-30.833485123965886
 30
0.0
 11
60.94239939665037
 21
-18.361548294714876
 31
0.0
  0
LINE
  5
202B1
330
1F
100
AcDbEntity
  8
0
 62
256
  6
ByLayer
370
-1
 67
0
100
AcDbLine
 10
52.99310692061415
 20
-52.83325769721526
 30
0.0
 11
50.113733425012676
 21
-40.36132086796425
 31
0.0
  0
LINE
  5
202B2
330
1F
100
AcDbEntity
  8
0
 62
256
  6
ByLayer
370
-1
 67
0
100
AcDbLine
 10
68.0958429247853
 20
-49.34651635488535
 30
0.0
 11
52.99310692061415
 21
-52.83325769721526
 31
0.0
  0
LINE
  5
202B3
330
1F
100
AcDbEntity
  8
0
 62
256
  6
ByLayer
370
-1
 67
0
100
AcDbLine
 10
65.21646942918382
 20
-36.874579525634346
 30
0.0
 11
50.113733425012676
 21
-40.36132086796425
 31
0.0
  0
LINE
  5
202B4
330
1F
100
AcDbEntity
  8
0
 62
256
  6
ByLayer
370
-1
 67
0
100
AcDbLine
 10
68.0958429247853
 20
-49.34651635488535
 30
0.0
 11
65.21646942918382
 21
-36.874579525634346
 31
0.0
  0
LINE
  5
202B5
330
1F
100
AcDbEntity
  8
0
 62
256
  6
ByLayer
370
-1
 67
0
100
AcDbLine
 10
77.19695928485277
 20
11.253976060610011
 30
0.0
 11
74.3175857892513
 21
23.72591288986102
 31
0.0
  0
LINE
  5
202B6
330
1F
100
AcDbEntity
  8
0
 62
256
  6
ByLayer
370
-1
 67
0
100
AcDbLine
 10
92.2996952890239
 20
14.740717402939921
 30
0.0
 11
77.19695928485277
 21
11.253976060610011
 31
0.0
  0
LINE
  5
202B7
330
1F
100
AcDbEntity
  8
0
 62
256
  6
ByLayer
370
-1
 67
0
100
AcDbLine
 10
89.42032179342243
 20
27.212654232190932
 30
0.0
 11
74.3175857892513
 21
23.72591288986102
 31
0.0
  0
LINE
  5
202B8
330
1F
100
AcDbEntity
  8
0
 62
256
  6
ByLayer
370
-1
 67
0
100
AcDbLine
 10
92.2996952890239
 20
14.740717402939921
 30
0.0
 11
89.42032179342243
 21
27.212654232190932
 31
0.0
  0
LINE
  5
202B9
330
1F
100
AcDbEntity
  8
0
 62
256
  6
ByLayer
370
-1
 67
0
100
AcDbLine
 10
81.47102931738621
 20
-7.2590551703094555
 30
0.0
 11
78.59165582178474
 21
5.212881658941555
 31
0.0
  0
LINE
  5
202BA
330
1F
100
AcDbEntity
  8
0
 62
256
  6
ByLayer
370
-1
 67
0
100
AcDbLine
 10
96.57376532155735
 20
-3.772313827979545
 30
0.0
 11
81.47102931738621
 21
-7.2590551703094555
 31
0.0
  0
LINE
  5
202BB
330
1F
100
AcDbEntity
  8
0
 62
256
  6
ByLayer
370
-1
 67
0
100
AcDbLine
 10
93.69439182595588
 20
8.699623001271465
 30
0.0
 11
78.59165582178474
 21
5.212881658941555
 31
0.0
  0
LINE
  5
202BC
330
1F
100
AcDbEntity
  8
0
 62
256
  6
ByLayer
370
-1
 67
0
100
AcDbLine
 10
96.57376532155735
 20
-3.772313827979545
 30
0.0
 11
93.69439182595588
 21
8.699623001271465
 31
0.0
  0
LINE
  5
202BD
330
1F
100
AcDbEntity
  8
0
 62
256
  6
ByLayer
370
-1
 67
0
100
AcDbLine
 10
85.74509934991964
 20
-25.772086401228922
 30
0.0
 11
82.86572585431816
 21
-13.300149571977911
 31
0.0
  0
LINE
  5
202BE
330
1F
100
AcDbEntity
  8
0
 62
256
  6
ByLayer
370
-1
 67
0
100
AcDbLine
 10
100.84783535409079
 20
-22.28534505889901
 30
0.0
 11
85.74509934991964
 21
-25.772086401228922
 31
0.0
  0
LINE
  5
202BF
330
1F
100
AcDbEntity
  8
0
 62
256
  6
ByLayer
370
-1
 67
0
100
AcDbLine
 10
97.9684618584893
 20
-9.813408229648001
 30
0.0
 11
82.86572585431816
 21
-13.300149571977911
 31
0.0
  0
LINE
  5
202C0
330
1F
100
AcDbEntity
  8
0
 62
256
  6
ByLayer
370
-1
 67
0
100
AcDbLine
 10
100.84783535409079
 20
-22.28534505889901
 30
0.0
 11
97.9684618584893
 21
-9.813408229648001
 31
0.0
  0
LINE
  5
202C1
330
1F
100
AcDbEntity
  8
0
 62
256
  6
ByLayer
370
-1
 67
0
100
AcDbLine
 10
90.01916938245309
 20
-44.285117632148385
 30
0.0
 11
87.1397958868516
 21
-31.813180802897378
 31
0.0
  0
LINE
  5
202C2
330
1F
100
AcDbEntity
  8
0
 62
256
  6
ByLayer
370
-1
 67
0
100
AcDbLine
 10
105.12190538662423
 20
-40.79837628981848
 30
0.0
 11
90.01916938245309
 21
-44.285117632148385
 31
0.0
  0
LINE
  5
202C3
330
1F
100
AcDbEntity
  8
0
 62
256
  6
ByLayer
370
-1
 67
0
100
AcDbLine
 10
102.24253189102275
 20
-28.326439460567467
 30
0.0
 11
87.1397958868516
 21
-31.813180802897378
 31
0.0
  0
LINE
  5
202C4
330
1F
100
AcDbEntity
  8
0
 62
256
  6
ByLayer
370
-1
 67
0
100
AcDbLine
 10
105.12190538662423
 20
-40.79837628981848
 30
0.0
 11
102.24253189102275
 21
-28.326439460567467
 31
0.0
  0
LINE
  5
202C5
330
1F
100
AcDbEntity
  8
0
 62
256
  6
ByLayer
370
-1
 67
0
100
AcDbLine
 10
98.91554304017231
 20
1.6432726699538485
 30
0.0
 11
96.03616954457084
 21
14.115209499204859
 31
0.0
  0
LINE
  5
202C6
330
1F
100
AcDbEntity
  8
0
 62
256
  6
ByLayer
370
-1
 67
0
100
AcDbLine
 10
114.01827904434344
 20
5.130014012283759
 30
0.0
 11
98.91554304017231
 21
1.6432726699538485
 31
0.0
  0
LINE
  5
202C7
330
1F
100
AcDbEntity
  8
0
 62
256
  6
ByLayer
370
-1
 67
0
100
AcDbLine
 10
111.13890554874197
 20
17.60195084153477
 30
0.0
 11
96.03616954457084
 21
14.115209499204859
 31
0.0
  0
LINE
  5
202C8
330
1F
100
AcDbEntity
  8
0
 62
256
  6
ByLayer
370
-1
 67
0
100
AcDbLine
 10
114.01827904434344
 20
5.130014012283759
 30
0.0
 11
111.13890554874197
 21
17.60195084153477
 31
0.0
  0
LINE
  5
202C9
330
1F
100
AcDbEntity
  8
0
 62
256
  6
ByLayer
370
-1
 67
0
100
AcDbLine
 10
103.18961307270575
 20
-16.869758560965618
 30
0.0
 11
100.31023957710428
 21
-4.3978217317146076
 31
0.0
  0
LINE
  5
202CA
330
1F
100
AcDbEntity
  8
0
 62
256
  6
ByLayer
370
-1
 67
0
100
AcDbLine
 10
118.29234907687689
 20
-13.383017218635707
 30
0.0
 11
103.18961307270575
 21
-16.869758560965618
 31
0.0
  0
LINE
  5
202CB
330
1F
100
AcDbEntity
  8
0
 62
256
  6
ByLayer
370
-1
 67
0
100
AcDbLine
 10
115.41297558127542
 20
-0.911080389384697
 30
0.0
 11
100.31023957710428
 21
-4.3978217317146076
 31
0.0
  0
LINE
  5
202CC
330
1F
100
AcDbEntity
  8
0
 62
256
  6
ByLayer
370
-1
 67
0
100
AcDbLine
 10
118.29234907687689
 20
-13.383017218635707
 30
0.0
 11
115.41297558127542
 21
-0.911080389384697
 31
0.0
  0
LINE
  5
202CD
330
1F
100
AcDbEntity
  8
0
 62
256
  6
ByLayer
370
-1
 67
0
100
AcDbLine
 10
107.46368310523918
 20
-35.38278979188509
 30
0.0
 11
104.5843096096377
 21
-22.910852962634074
 31
0.0
  0
LINE
  5
202CE
330
1F
100
AcDbEntity
  8
0
 62
256
  6
ByLayer
370
-1
 67
0
100
AcDbLine
 10
122.56641910941033
 20
-31.896048449555174
 30
0.0
 11
107.46368310523918
 21
-35.38278979188509
 31
0.0
  0
LINE
  5
202CF
330
1F
100
AcDbEntity
  8
0
 62
256
  6
ByLayer
370
-1
 67
0
100
AcDbLine
 10
119.68704561380885
 20
-19.424111620304163
 30
0.0
 11
104.5843096096377
 21
-22.910852962634074
 31
0.0
  0
LINE
  5
202D0
330
1F
100
AcDbEntity
  8
0
 62
256
  6
ByLayer
370
-1
 67
0
100
AcDbLine
 10
122.56641910941033
 20
-31.896048449555174
 30
0.0
 11
119.68704561380885
 21
-19.424111620304163
 31
0.0
  0
LINE
  5
202D1
330
1F
100
AcDbEntity
  8
0
 62
256
  6
ByLayer
370
-1
 67
0
100
AcDbLine
 10
111.73775313777263
 20
-53.895821022804554
 30
0.0
 11
108.85837964217114
 21
-41.42388419355354
 31
0.0
  0
LINE
  5
202D2
330
1F
100
AcDbEntity
  8
0
 62
256
  6
ByLayer
370
-1
 67
0
100
AcDbLine
 10
126.84048914194378
 20
-50.40907968047464
 30
0.0
 11
111.73775313777263
 21
-53.895821022804554
 31
0.0
  0
LINE
  5
202D3
330
1F
100
AcDbEntity
  8
0
 62
256
  6
ByLayer
370
-1
 67
0
100
AcDbLine
 10
123.9611156463423
 20
-37.937142851223626
 30
0.0
 11
108.85837964217114
 21
-41.42388419355354
 31
0.0
  0
LINE
  5
202D4
330
1F
100
AcDbEntity
  8
0
 62
256
  6
ByLayer
370
-1
 67
0
100
AcDbLine
 10
126.84048914194378
 20
-50.40907968047464
 30
0.0
 11
123.9611156463423
 21
-37.937142851223626
 31
0.0
  0
LINE
  5
202D5
330
1F
100
AcDbEntity
  8
0
 62
256
  6
ByLayer
370
-1
 67
0
100
AcDbLine
 10
117.42857427109179
 20
5.917342702487289
 30
0.0
 11
114.5492007754903
 21
18.3892795317383
 31
0.0
  0
LINE
  5
202D6
330
1F
100
AcDbEntity
  8
0
 62
256
  6
ByLayer
370
-1
 67
0
100
AcDbLine
 10
132.53131027526294
 20
9.4040840448172
 30
0.0
 11
117.42857427109179
 21
5.917342702487289
 31
0.0
  0
LINE
  5
202D7
330
1F
100
AcDbEntity
  8
0
 62
256
  6
ByLayer
370
-1
 67
0
100
AcDbLine
 10
129.65193677966147
 20
21.87602087406821
 30
0.0
 11
114.5492007754903
 21
18.3892795317383
 31
0.0
  0
LINE
  5
202D8
330
1F
100
AcDbEntity
  8
0
 62
256
  6
ByLayer
370
-1
 67
0
100
AcDbLine
 10
132.53131027526294
 20
9.4040840448172
 30
0.0
 11
129.65193677966147
 21
21.87602087406821
 31
0.0
  0
LINE
  5
202D9
330
1F
100
AcDbEntity
  8
0
 62
256
  6
ByLayer
370
-1
 67
0
100
AcDbLine
 10
121.70264430362523
 20
-12.595688528432177
 30
0.0
 11
118.82327080802375
 21
-0.12375169918116669
 31
0.0
  0
LINE
  5
202DA
330
1F
100
AcDbEntity
  8
0
 62
256
  6
ByLayer
370
-1
 67
0
100
AcDbLine
 10
136.80538030779638
 20
-9.108947186102267
 30
0.0
 11
121.70264430362523
 21
-12.595688528432177
 31
0.0
  0
LINE
  5
202DB
330
1F
100
AcDbEntity
  8
0
 62
256
  6
ByLayer
370
-1
 67
0
100
AcDbLine
 10
133.9260068121949
 20
3.362989643148744
 30
0.0
 11
118.82327080802375
 21
-0.12375169918116669
 31
0.0
  0
LINE
  5
202DC
330
1F
100
AcDbEntity
  8
0
 62
256
  6
ByLayer
370
-1
 67
0
100
AcDbLine
 10
136.80538030779638
 20
-9.108947186102267
 30
0.0
 11
133.9260068121949
 21
3.362989643148744
 31
0.0
  0
LINE
  5
202DD
330
1F
100
AcDbEntity
  8
0
 62
256
  6
ByLayer
370
-1
 67
0
100
AcDbLine
 10
125.97671433615866
 20
-31.108719759351644
 30
0.0
 11
123.0973408405572
 21
-18.636782930100633
 31
0.0
  0
LINE
  5
202DE
330
1F
100
AcDbEntity
  8
0
 62
256
  6
ByLayer
370
-1
 67
0
100
AcDbLine
 10
141.0794503403298
 20
-27.621978417021733
 30
0.0
 11
125.97671433615866
 21
-31.108719759351644
 31
0.0
  0
LINE
  5
202DF
330
1F
100
AcDbEntity
  8
0
 62
256
  6
ByLayer
370
-1
 67
0
100
AcDbLine
 10
138.20007684472833
 20
-15.150041587770723
 30
0.0
 11
123.0973408405572
 21
-18.636782930100633
 31
0.0
  0
LINE
  5
202E0
330
1F
100
AcDbEntity
  8
0
 62
256
  6
ByLayer
370
-1
 67
0
100
AcDbLine
 10
141.0794503403298
 20
-27.621978417021733
 30
0.0
 11
138.20007684472833
 21
-15.150041587770723
 31
0.0
  0
LINE
  5
202E1
330
1F
100
AcDbEntity
  8
0
 62
256
  6
ByLayer
370
-1
 67
0
100
AcDbLine
 10
130.2507843686921
 20
-49.62175099027111
 30
0.0
 11
127.37141087309064
 21
-37.1498141610201
 31
0.0
  0
LINE
  5
202E2
330
1F
100
AcDbEntity
  8
0
 62
256
  6
ByLayer
370
-1
 67
0
100
AcDbLine
 10
145.35352037286324
 20
-46.1350096479412
 30
0.0
 11
130.2507843686921
 21
-49.62175099027111
 31
0.0
  0
LINE
  5
202E3
330
1F
100
AcDbEntity
  8
0
 62
256
  6
ByLayer
370
-1
 67
0
100
AcDbLine
 10
142.47414687726177
 20
-33.663072818690196
 30
0.0
 11
127.37141087309064
 21
-37.1498141610201
 31
0.0
  0
LINE
  5
202E4
330
1F
100
AcDbEntity
  8
0
 62
256
  6
ByLayer
370
-1
 67
0
100
AcDbLine
 10
145.35352037286324
 20
-46.1350096479412
 30
0.0
 11
142.47414687726177
 21
-33.663072818690196
 31
0.0
  0
LINE
  5
202E5
330
1F
100
AcDbEntity
  8
0
 62
256
  6
ByLayer
370
-1
 67
0
100
AcDbLine
 10
137.0101230101446
 20
5.5631549272908565
 30
0.0
 11
134.13074951454314
 21
18.035091756541867
 31
0.0
  0
LINE
  5
202E6
330
1F
100
AcDbEntity
  8
0
 62
256
  6
ByLayer
370
-1
 67
0
100
AcDbLine
 10
152.11285901431575
 20
9.049896269620767
 30
0.0
 11
137.0101230101446
 21
5.5631549272908565
 31
0.0
  0
LINE
  5
202E7
330
1F
100
AcDbEntity
  8
0
 62
256
  6
ByLayer
370
-1
 67
0
100
AcDbLine
 10
149.23348551871428
 20
21.521833098871777
 30
0.0
 11
134.13074951454314
 21
18.035091756541867
 31
0.0
  0
LINE
  5
202E8
330
1F
100
AcDbEntity
  8
0
 62
256
  6
ByLayer
370
-1
 67
0
100
AcDbLine
 10
152.11285901431575
 20
9.049896269620767
 30
0.0
 11
149.23348551871428
 21
21.521833098871777
 31
0.0
  0
LINE
  5
202E9
330
1F
100
AcDbEntity
  8
0
 62
256
  6
ByLayer
370
-1
 67
0
100
AcDbLine
 10
141.28419304267806
 20
-12.94987630362861
 30
0.0
 11
138.40481954707658
 21
-0.47793947437759954
 31
0.0
  0
LINE
  5
202EA
330
1F
100
AcDbEntity
  8
0
 62
256
  6
ByLayer
370
-1
 67
0
100
AcDbLine
 10
156.3869290468492
 20
-9.4631349612987
 30
0.0
 11
141.28419304267806
 21
-12.94987630362861
 31
0.0
  0
LINE
  5
202EB
330
1F
100
AcDbEntity
  8
0
 62
256
  6
ByLayer
370
-1
 67
0
100
AcDbLine
 10
153.50755555124772
 20
3.008801867952311
 30
0.0
 11
138.40481954707658
 21
-0.47793947437759954
 31
0.0
  0
LINE
  5
202EC
330
1F
100
AcDbEntity
  8
0
 62
256
  6
ByLayer
370
-1
 67
0
100
AcDbLine
 10
156.3869290468492
 20
-9.4631349612987
 30
0.0
 11
153.50755555124772
 21
3.008801867952311
 31
0.0
  0
LINE
  5
202ED
330
1F
100
AcDbEntity
  8
0
 62
256
  6
ByLayer
370
-1
 67
0
100
AcDbLine
 10
145.5582630752115
 20
-31.462907534548076
 30
0.0
 11
142.67888957961003
 21
-18.990970705297066
 31
0.0
  0
LINE
  5
202EE
330
1F
100
AcDbEntity
  8
0
 62
256
  6
ByLayer
370
-1
 67
0
100
AcDbLine
 10
160.66099907938263
 20
-27.976166192218166
 30
0.0
 11
145.5582630752115
 21
-31.462907534548076
 31
0.0
  0
LINE
  5
202EF
330
1F
100
AcDbEntity
  8
0
 62
256
  6
ByLayer
370
-1
 67
0
100
AcDbLine
 10
157.78162558378116
 20
-15.504229362967155
 30
0.0
 11
142.67888957961003
 21
-18.990970705297066
 31
0.0
  0
LINE
  5
202F0
330
1F
100
AcDbEntity
  8
0
 62
256
  6
ByLayer
370
-1
 67
0
100
AcDbLine
 10
160.66099907938263
 20
-27.976166192218166
 30
0.0
 11
157.78162558378116
 21
-15.504229362967155
 31
0.0
  0
LINE
  5
202F1
330
1F
100
AcDbEntity
  8
0
 62
256
  6
ByLayer
370
-1
 67
0
100
AcDbLine
 10
149.83233310774492
 20
-49.975938765467546
 30
0.0
 11
146.95295961214345
 21
-37.50400193621653
 31
0.0
  0
LINE
  5
202F2
330
1F
100
AcDbEntity
  8
0
 62
256
  6
ByLayer
370
-1
 67
0
100
AcDbLine
 10
164.93506911191605
 20
-46.48919742313763
 30
0.0
 11
149.83233310774492
 21
-49.975938765467546
 31
0.0
  0
LINE
  5
202F3
330
1F
100
AcDbEntity
  8
0
 62
256
  6
ByLayer
370
-1
 67
0
100
AcDbLine
 10
162.05569561631458
 20
-34.01726059388662
 30
0.0
 11
146.95295961214345
 21
-37.50400193621653
 31
0.0
  0
LINE
  5
202F4
330
1F
100
AcDbEntity
  8
0
 62
256
  6
ByLayer
370
-1
 67
0
100
AcDbLine
 10
164.93506911191605
 20
-46.48919742313763
 30
0.0
 11
162.05569561631458
 21
-34.01726059388662
 31
0.0
  0
LINE
  5
202F5
330
1F
100
AcDbEntity
  8
0
 62
256
  6
ByLayer
370
-1
 67
0
100
AcDbLine
 10
22.726383100227725
 20
-6.196491844720169
 30
0.0
 11
19.84700960462625
 21
6.275444984530841
 31
0.0
  0
LINE
  5
202F6
330
1F
100
AcDbEntity
  8
0
 62
256
  6
ByLayer
370
-1
 67
0
100
AcDbLine
 10
37.82911910439887
 20
-2.709750502390259
 30
0.0
 11
22.726383100227725
 21
-6.196491844720169
 31
0.0
  0
LINE
  5
202F7
330
1F
100
AcDbEntity
  8
0
 62
256
  6
ByLayer
370
-1
 67
0
100
AcDbLine
 10
34.94974560879739
 20
9.762186326860752
 30
0.0
 11
19.84700960462625
 21
6.275444984530841
 31
0.0
  0
LINE
  5
202F8
330
1F
100
AcDbEntity
  8
0
 62
256
  6
ByLayer
370
-1
 67
0
100
AcDbLine
 10
37.82911910439887
 20
-2.709750502390259
 30
0.0
 11
34.94974560879739
 21
9.762186326860752
 31
0.0
  0
LINE
  5
202F9
330
1F
100
AcDbEntity
  8
0
 62
256
  6
ByLayer
370
-1
 67
0
100
AcDbLine
 10
27.000453132761162
 20
-24.709523075639634
 30
0.0
 11
24.12107963715969
 21
-12.237586246388624
 31
0.0
  0
LINE
  5
202FA
330
1F
100
AcDbEntity
  8
0
 62
256
  6
ByLayer
370
-1
 67
0
100
AcDbLine
 10
42.10318913693231
 20
-21.222781733309724
 30
0.0
 11
27.000453132761162
 21
-24.709523075639634
 31
0.0
  0
LINE
  5
202FB
330
1F
100
AcDbEntity
  8
0
 62
256
  6
ByLayer
370
-1
 67
0
100
AcDbLine
 10
39.22381564133083
 20
-8.750844904058713
 30
0.0
 11
24.12107963715969
 21
-12.237586246388624
 31
0.0
  0
LINE
  5
202FC
330
1F
100
AcDbEntity
  8
0
 62
256
  6
ByLayer
370
-1
 67
0
100
AcDbLine
 10
42.10318913693231
 20
-21.222781733309724
 30
0.0
 11
39.22381564133083
 21
-8.750844904058713
 31
0.0
  0
LINE
  5
202FD
330
1F
100
AcDbEntity
  8
0
 62
256
  6
ByLayer
370
-1
 67
0
100
AcDbLine
 10
31.2745231652946
 20
-43.222554306559104
 30
0.0
 11
28.395149669693126
 21
-30.75061747730809
 31
0.0
  0
LINE
  5
202FE
330
1F
100
AcDbEntity
  8
0
 62
256
  6
ByLayer
370
-1
 67
0
100
AcDbLine
 10
46.377259169465745
 20
-39.73581296422919
 30
0.0
 11
31.2745231652946
 21
-43.222554306559104
 31
0.0
  0
LINE
  5
202FF
330
1F
100
AcDbEntity
  8
0
 62
256
  6
ByLayer
370
-1
 67
0
100
AcDbLine
 10
43.49788567386427
 20
-27.26387613497818
 30
0.0
 11
28.395149669693126
 21
-30.75061747730809
 31
0.0
  0
LINE
  5
20300
330
1F
100
AcDbEntity
  8
0
 62
256
  6
ByLayer
370
-1
 67
0
100
AcDbLine
 10
46.377259169465745
 20
-39.73581296422919
 30
0.0
 11
43.49788567386427
 21
-27.26387613497818
 31
0.0
  0
LINE
  5
20301
330
1F
100
AcDbEntity
  8
0
 62
256
  6
ByLayer
370
-1
 67
0
100
AcDbLine
 10
35.54859319782804
 20
-61.73558553747857
 30
0.0
 11
32.66921970222656
 21
-49.26364870822756
 31
0.0
  0
LINE
  5
20302
330
1F
100
AcDbEntity
  8
0
 62
256
  6
ByLayer
370
-1
 67
0
100
AcDbLine
 10
50.65132920199918
 20
-58.248844195148656
 30
0.0
 11
35.54859319782804
 21
-61.73558553747857
 31
0.0
  0
LINE
  5
20303
330
1F
100
AcDbEntity
  8
0
 62
256
  6
ByLayer
370
-1
 67
0
100
AcDbLine
 10
47.771955706397705
 20
-45.77690736589764
 30
0.0
 11
32.66921970222656
 21
-49.26364870822756
 31
0.0
  0
LINE
  5
20304
330
1F
100
AcDbEntity
  8
0
 62
256
  6
ByLayer
370
-1
 67
0
100
AcDbLine
 10
50.65132920199918
 20
-58.248844195148656
 30
0.0
 11
47.771955706397705
 21
-45.77690736589764
 31
0.0
  0
LINE
  5
20305
330
1F
100
AcDbEntity
  8
0
 62
256
  6
ByLayer
370
-1
 67
0
100
AcDbLine
 10
5.281869377441617
 20
-15.098819684983475
 30
0.0
 11
2.4024958818401423
 21
-2.6268828557324646
 31
0.0
  0
LINE
  5
20306
330
1F
100
AcDbEntity
  8
0
 62
256
  6
ByLayer
370
-1
 67
0
100
AcDbLine
 10
20.38460538161276
 20
-11.612078342653565
 30
0.0
 11
5.281869377441617
 21
-15.098819684983475
 31
0.0
  0
LINE
  5
20307
330
1F
100
AcDbEntity
  8
0
 62
256
  6
ByLayer
370
-1
 67
0
100
AcDbLine
 10
17.505231886011288
 20
0.8598584865974459
 30
0.0
 11
2.4024958818401423
 21
-2.6268828557324646
 31
0.0
  0
LINE
  5
20308
330
1F
100
AcDbEntity
  8
0
 62
256
  6
ByLayer
370
-1
 67
0
100
AcDbLine
 10
20.38460538161276
 20
-11.612078342653565
 30
0.0
 11
17.505231886011288
 21
0.8598584865974459
 31
0.0
  0
LINE
  5
20309
330
1F
100
AcDbEntity
  8
0
 62
256
  6
ByLayer
370
-1
 67
0
100
AcDbLine
 10
9.555939409975053
 20
-33.61185091590294
 30
0.0
 11
6.67656591437358
 21
-21.13991408665193
 31
0.0
  0
LINE
  5
2030A
330
1F
100
AcDbEntity
  8
0
 62
256
  6
ByLayer
370
-1
 67
0
100
AcDbLine
 10
24.6586754141462
 20
-30.12510957357303
 30
0.0
 11
9.555939409975053
 21
-33.61185091590294
 31
0.0
  0
LINE
  5
2030B
330
1F
100
AcDbEntity
  8
0
 62
256
  6
ByLayer
370
-1
 67
0
100
AcDbLine
 10
21.779301918544725
 20
-17.65317274432202
 30
0.0
 11
6.67656591437358
 21
-21.13991408665193
 31
0.0
  0
LINE
  5
2030C
330
1F
100
AcDbEntity
  8
0
 62
256
  6
ByLayer
370
-1
 67
0
100
AcDbLine
 10
24.6586754141462
 20
-30.12510957357303
 30
0.0
 11
21.779301918544725
 21
-17.65317274432202
 31
0.0
  0
LINE
  5
2030D
330
1F
100
AcDbEntity
  8
0
 62
256
  6
ByLayer
370
-1
 67
0
100
AcDbLine
 10
13.830009442508494
 20
-52.1248821468224
 30
0.0
 11
10.95063594690702
 21
-39.652945317571394
 31
0.0
  0
LINE
  5
2030E
330
1F
100
AcDbEntity
  8
0
 62
256
  6
ByLayer
370
-1
 67
0
100
AcDbLine
 10
28.93274544667964
 20
-48.638140804492494
 30
0.0
 11
13.830009442508494
 21
-52.1248821468224
 31
0.0
  0
LINE
  5
2030F
330
1F
100
AcDbEntity
  8
0
 62
256
  6
ByLayer
370
-1
 67
0
100
AcDbLine
 10
26.053371951078166
 20
-36.16620397524149
 30
0.0
 11
10.95063594690702
 21
-39.652945317571394
 31
0.0
  0
LINE
  5
20310
330
1F
100
AcDbEntity
  8
0
 62
256
  6
ByLayer
370
-1
 67
0
100
AcDbLine
 10
28.93274544667964
 20
-48.638140804492494
 30
0.0
 11
26.053371951078166
 21
-36.16620397524149
 31
0.0
  0
LINE
  5
20311
330
1F
100
AcDbEntity
  8
0
 62
256
  6
ByLayer
370
-1
 67
0
100
AcDbLine
 10
18.10407947504193
 20
-70.63791337774187
 30
0.0
 11
15.224705979440458
 21
-58.16597654849086
 31
0.0
  0
LINE
  5
20312
330
1F
100
AcDbEntity
  8
0
 62
256
  6
ByLayer
370
-1
 67
0
100
AcDbLine
 10
33.20681547921308
 20
-67.15117203541196
 30
0.0
 11
18.10407947504193
 21
-70.63791337774187
 31
0.0
  0
LINE
  5
20313
330
1F
100
AcDbEntity
  8
0
 62
256
  6
ByLayer
370
-1
 67
0
100
AcDbLine
 10
30.327441983611603
 20
-54.67923520616095
 30
0.0
 11
15.224705979440458
 21
-58.16597654849086
 31
0.0
  0
LINE
  5
20314
330
1F
100
AcDbEntity
  8
0
 62
256
  6
ByLayer
370
-1
 67
0
100
AcDbLine
 10
33.20681547921308
 20
-67.15117203541196
 30
0.0
 11
30.327441983611603
 21
-54.67923520616095
 31
0.0
  0
ENDSEC
  0
SECTION
  2
OBJECTS
  0
DICTIONARY
  5
C
330
0
100
AcDbDictionary
281
1
  3
ACAD_GROUP
350
D
  3
ACAD_COLOR
350
20000
  3
ACAD_LAYOUT
350
20001
  3
ACAD_MATERIAL
350
20002
  3
ACAD_MLEADERSTYLE
350
20003
  3
ACAD_MLINESTYLE
350
20004
  3
ACAD_PLOTSETTINGS
350
20005
  3
ACAD_PLOTSTYLENAME
350
20006
  3
ACAD_SCALELIST
350
20008
  3
ACAD_TABLESTYLE
350
20009
  3
ACAD_VISUALSTYLE
350
2000A
  0
DICTIONARY
  5
D
330
C
100
AcDbDictionary
281
1
  0
DICTIONARY
  5
20000
330
C
100
AcDbDictionary
281
1
  0
DICTIONARY
  5
20001
330
C
100
AcDbDictionary
281
1
  3
Model
350
2000B
  3
Layout1
350
2000C
  0
DICTIONARY
  5
20002
330
C
100
AcDbDictionary
281
1
  0
DICTIONARY
  5
20003
330
C
100
AcDbDictionary
281
1
  0
DICTIONARY
  5
20004
330
C
100
AcDbDictionary
281
1
  0
DICTIONARY
  5
20005
330
C
100
AcDbDictionary
281
1
  0
ACDBDICTIONARYWDFLT
  5
20006
330
C
100
AcDbDictionary
281
1
  3
Normal
350
20007
100
AcDbDictionaryWithDefault
340
20007
  0
ACDBPLACEHOLDER
  5
20007
330
20006
  0
DICTIONARY
  5
20008
330
C
100
AcDbDictionary
281
1
  0
DICTIONARY
  5
20009
330
C
100
AcDbDictionary
281
1
  0
DICTIONARY
  5
2000A
330
C
100
AcDbDictionary
281
1
  0
LAYOUT
  5
2000B
330
20001
100
AcDbPlotSettings
  1

  2
DWFx ePlot (XPS Compatible).pc3
  4
ANSI_A_(8.50_x_11.00_Inches)
  6

 40
5.8
 41
17.8
 42
5.8
 43
17.8
 44
215.9
 45
279.4
 46
0.0
 47
0.0
 48
0.0
 49
0.0
140
0.0
141
0.0
142
1.0
143
14.53
 70
11952
 72
0
 73
1
 74
0
  7

 75
0
147
0.069
148
114.98
149
300.29
100
AcDbLayout
  1
Model
 70
1
 71
0
 10
0.0
 20
0.0
 11
12.0
 21
9.0
 12
0.0
 22
0.0
 32
0.0
 14
0.0
 24
0.0
 34
0.0
 15
0.0
 25
0.0
 35
0.0
146
0.0
 13
0.0
 23
0.0
 33
0.0
 16
1.0
 26
0.0
 36
0.0
 17
0.0
 27
1.0
 37
0.0
 76
0
330
1F
  0
LAYOUT
  5
2000C
330
20001
100
AcDbPlotSettings
  1

  2
DWFx ePlot (XPS Compatible).pc3
  4
ANSI_A_(8.50_x_11.00_Inches)
  6

 40
5.8
 41
17.8
 42
5.8
 43
17.8
 44
215.9
 45
279.4
 46
0.0
 47
0.0
 48
0.0
 49
0.0
140
0.0
141
0.0
142
1.0
143
1.0
 70
688
 72
0
 73
1
 74
5
  7
acad.ctb
 75
16
147
1.0
148
0.0
149
0.0
100
AcDbLayout
  1
Layout1
 70
1
 71
1
 10
-0.7
 20
-0.23
 11
10.3
 21
8.27
 12
0.0
 22
0.0
 32
0.0
 14
0.63
 24
0.8
 34
0.0
 15
9.0
 25
7.2
 35
0.0
146
0.0
 13
0.0
 23
0.0
 33
0.0
 16
1.0
 26
0.0
 36
0.0
 17
0.0
 27
1.0
 37
0.0
 76
0
330
1E
  0
ENDSEC
  0
EOF
