<?xml version="1.0" encoding="utf-8" ?>
<svg baseProfile="full" height="100%" version="1.1" viewBox="-198.722061 -77.500000 397.444122 234.524750" width="100%" xmlns="http://www.w3.org/2000/svg" xmlns:ev="http://www.w3.org/2001/xml-events" xmlns:xlink="http://www.w3.org/1999/xlink"><defs /><style type="text/css"><![CDATA[svg {
  stroke: black;  stroke-width: 0.25;  fill: none;}]]></style><path d="M -94.1581416188282 -18.91578353885167 L -91.40249120311583 -30.8518168324708 A 0.9999999999999967 0.9999999999999967 0 0,1 -90.20317008398675 -31.60123584291217 L -73.63887898263775 -27.77706791906645 A 1.0000000000000113 1.0000000000000113 0 0,0 -72.43955786350864 -28.52648692950784 L -71.82094246406305 -31.20600460766721 A 0.9999999999999976 0.9999999999999976 0 0,1 -70.62162134493396 -31.9554236181086 L -52.10859011401446 -27.68135358557516 A 0.9999999999999986 0.9999999999999986 0 0,1 -51.35917110357309 -26.48203246644606 L -51.97778650301872 -23.80251478828666 A 0.9999999999999987 0.9999999999999987 0 0,0 -51.22836749257736 -22.60319366915756 L -34.66407639122835 -18.77902574531185 A 0.9999999999999986 0.9999999999999986 0 0,1 -33.91465738078698 -17.57970462618275 L -34.53327278023261 -14.90018694802335 A 0.9999999999999942 0.9999999999999942 0 0,0 -33.78385376979124 -13.70086582889425 L -17.21956266844224 -9.876697905048546 A 0.999999999999998 0.999999999999998 0 0,1 -16.47014365800088 -8.677376785919446 L -17.0887590574465 -5.997859107760045 A 0.9999999999999989 0.9999999999999989 0 0,0 -16.33934004700513 -4.798537988630945 L -0.2249510543438654 -1.078238150801549 A 1.0000000000000009 1.0000000000000009 0 0,0 0.2249510543438685 -1.078238150801549 L 16.33934004700513 -4.79853798863094 A 0.9999999999999988 0.9999999999999988 0 0,0 17.0887590574465 -5.997859107760041 L 16.47014365800086 -8.677376785919437 A 0.9999999999999998 0.9999999999999998 0 0,1 17.21956266844223 -9.87669790504854 L 33.78385376979125 -13.70086582889425 A 0.9999999999999929 0.9999999999999929 0 0,0 34.53327278023261 -14.90018694802335 L 33.91465738078699 -17.57970462618274 A 0.9999999999999988 0.9999999999999988 0 0,1 34.66407639122836 -18.77902574531184 L 51.22836749257733 -22.60319366915754 A 1.0000000000000018 1.0000000000000018 0 0,0 51.97778650301871 -23.80251478828664 L 51.35917110357308 -26.48203246644605 A 0.999999999999991 0.999999999999991 0 0,1 52.10859011401445 -27.68135358557514 L 70.62162134493396 -31.95542361810859 A 0.9999999999999953 0.9999999999999953 0 0,1 71.82094246406304 -31.20600460766721 L 72.43955786350868 -28.52648692950781 A 0.9999999999999962 0.9999999999999962 0 0,0 73.63887898263778 -27.77706791906645 L 90.20317008398676 -31.60123584291216 A 0.9999999999999938 0.9999999999999938 0 0,1 91.40249120311584 -30.85181683247079 L 94.1581416188282 -18.91578353885165 A 0.9999999999999954 0.9999999999999954 0 0,0 95.35746273795729 -18.16636452841028 L 130.4347850702257 -26.26460248478942 A 1.000000000000014 1.000000000000014 0 0,1 131.6341061893548 -25.51518347434804 L 132.2527215888005 -22.83566579618865 A 0.9999999999999886 0.9999999999999886 0 0,0 133.4520427079296 -22.08624678574727 L 150.0163338092786 -25.91041470959299 A 1.0000000000000178 1.0000000000000178 0 0,1 151.2156549284077 -25.1609956991516 L 168.3119350585414 48.89112922452626 A 1.000000000000003 1.000000000000003 0 0,1 167.5625160481 50.09045034365537 L 149.0494848171806 54.36452037618881 A 1.0000000000000167 1.0000000000000167 0 0,1 147.8501636980515 53.61510136574742 L 147.231548298606 50.935583687588 A 0.9999999999999875 0.9999999999999875 0 0,0 146.0322271794769 50.18616467714663 L 112.9036449767788 57.83450052483806 A 1.0000000000000129 1.0000000000000129 0 0,0 112.1542259663374 59.03382164396717 L 113.8413588739164 66.34159712985644 A 0.9999999999999984 0.9999999999999984 0 0,1 113.091939863475 67.5409182489855 L 96.52764876212602 71.36508617283123 A 0.9999999999999909 0.9999999999999909 0 0,0 95.77822975168466 72.56440729196032 L 97.46536265926365 79.87218277784959 A 0.9999999999999981 0.9999999999999981 0 0,1 96.71594364882229 81.07150389697867 L 78.20291241790284 85.3455739295121 A 0.9999999999999973 0.9999999999999973 0 0,1 77.00359129877376 84.59615491907074 L 75.31645839119474 77.28837943318149 A 1.0000000000000049 1.0000000000000049 0 0,0 74.11713727206565 76.5389604227401 L 40.98855506936763 84.18729627043153 A 0.9999999999999943 0.9999999999999943 0 0,0 40.23913605892626 85.38661738956063 L 46.20033899903871 111.2074241063693 A 1.0000000000000075 1.0000000000000075 0 0,1 45.45091998859734 112.4067452254984 L 26.93788875767786 116.6808152580319 A 0.9999999999999774 0.9999999999999774 0 0,1 25.73856763854876 115.9313962475906 L 17.19042757348188 78.90533378575162 A 0.9999999999999977 0.9999999999999977 0 0,1 17.93984658392325 77.70601266662251 L 34.50413768527221 73.88184474277679 A 1.0000000000000195 1.0000000000000195 0 0,0 35.25355669571361 72.68252362364768 L 35.08484340495576 71.95174607505876 A 0.9999999999999953 0.9999999999999953 0 0,0 33.88552228582666 71.20232706461738 L 17.32123118447761 75.02649498846311 A 0.9999999999999984 0.9999999999999984 0 0,1 16.12191006534851 74.27707597802174 L 0.974370064785232 8.665871910827747 A 0.9999999999999997 0.9999999999999997 0 0,0 -0.9743700647852387 8.665871910827743 L -16.12191006534852 74.27707597802174 A 1.0 1.0 0 0,1 -17.32123118447763 75.02649498846313 L -33.8855222858266 71.2023270646174 A 1.0000000000000138 1.0000000000000138 0 0,0 -35.08484340495573 71.95174607505876 L -35.25355669571362 72.6825236236477 A 0.9999999999999988 0.9999999999999988 0 0,0 -34.50413768527225 73.88184474277679 L -17.93984658392325 77.70601266662247 A 0.9999999999999959 0.9999999999999959 0 0,1 -17.19042757348188 78.90533378575157 L -25.73856763854878 115.9313962475905 A 1.0000000000000087 1.0000000000000087 0 0,1 -26.93788875767788 116.6808152580319 L -45.45091998859733 112.4067452254985 A 1.0000000000000004 1.0000000000000004 0 0,1 -46.20033899903871 111.2074241063694 L -40.23913605892626 85.38661738956063 A 0.9999999999999947 0.9999999999999947 0 0,0 -40.98855506936763 84.18729627043153 L -74.11713727206565 76.5389604227401 A 0.9999999999999961 0.9999999999999961 0 0,0 -75.31645839119473 77.28837943318148 L -77.00359129877371 84.5961549190707 A 1.0000000000000127 1.0000000000000127 0 0,1 -78.20291241790282 85.34557392951208 L -96.71594364882229 81.07150389697867 A 0.9999999999999979 0.9999999999999979 0 0,1 -97.46536265926365 79.87218277784959 L -95.77822975168465 72.5644072919603 A 0.9999999999999927 0.9999999999999927 0 0,0 -96.52764876212603 71.36508617283121 L -113.091939863475 67.54091824898549 A 1.0000000000000167 1.0000000000000167 0 0,1 -113.8413588739164 66.3415971298564 L -112.1542259663374 59.03382164396712 A 1.0000000000000087 1.0000000000000087 0 0,0 -112.9036449767788 57.83450052483803 L -146.0322271794768 50.18616467714661 A 0.9999999999999807 0.9999999999999807 0 0,0 -147.2315482986059 50.93558368758795 L -147.8501636980515 53.61510136574735 A 1.0000000000000153 1.0000000000000153 0 0,1 -149.0494848171806 54.36452037618874 L -167.5625160481001 50.0904503436553 A 1.0000000000000182 1.0000000000000182 0 0,1 -168.3119350585415 48.8911292245262 L -151.2156549284078 -25.16099569915167 A 0.9999999999999853 0.9999999999999853 0 0,1 -150.0163338092787 -25.91041470959306 L -133.4520427079296 -22.08624678574732 A 0.9999999999999749 0.9999999999999749 0 0,0 -132.2527215888005 -22.83566579618869 L -131.6341061893549 -25.51518347434809 A 0.9999999999999803 0.9999999999999803 0 0,1 -130.4347850702258 -26.26460248478944 L -95.35746273795729 -18.1663645284103 A 0.9999999999999933 0.9999999999999933 0 0,0 -94.1581416188282 -18.91578353885167" /><path d="M -143.6341734071064 -67.5 A 9.5 9.5 0 0,0 -152.89068902256614 -60.13703501626672" /><line x1="-143.6341734071064" x2="143.6341734071063" y1="-67.5" y2="-67.5" /><path d="M 152.89068902256602 -60.13703501626671 A 9.5 9.5 0 0,0 143.63417340710632 -67.5" /><line x1="-188.3661012825067" x2="-152.8906890225661" y1="93.52385731795094" y2="-60.13703501626672" /><line x1="152.890689022566" x2="188.3661012825067" y1="-60.13703501626671" y2="93.52385731795106" /><line x1="181.3590962104855" x2="2.13703501626668" y1="105.4045929820701" y2="146.7812660597741" /><path d="M -2.1370350162667036 146.78126605977403 A 9.5 9.5 0 0,0 2.1370350162666836 146.78126605977403" /><line x1="-2.137035016266711" x2="-181.3590962104856" y1="146.7812660597741" y2="105.40459298207" /><path d="M -188.47857680967863 94.01104235034354 A 9.5 9.5 0 0,0 -181.3590962104856 105.40459298206997" /><path d="M 181.35909621048552 105.40459298207013 A 9.5 9.5 0 0,0 188.47857680967854 94.0110423503437" /><line x1="-188.4785768096786" x2="-188.3661012825067" y1="94.01104235034353" y2="93.52385731795094" /><line x1="188.3661012825067" x2="188.4785768096786" y1="93.52385731795106" y2="94.0110423503437" /><circle cx="182.6693259666435" cy="89.96411701835456" r="1.6" /><circle cx="1.13686837721616e-13" cy="132.136653878399" r="1.6" /><circle cx="-182.6693259666435" cy="89.96411701835456" r="1.6" /><circle cx="146.5911179311346" cy="-61.71738874504855" r="1.6" /><circle cx="49.13749800375967" cy="-62.75" r="1.6" /><circle cx="-49.13749800375908" cy="-62.75" r="1.6" /><circle cx="-146.5911179311346" cy="-61.71738874504855" r="1.6" /><path d="M -52.21621248663766 120.5947434080777 A 1.0000000842937276 1.0000000842937276 0 0,0 -51.01689167450287 119.8453242402502 L -46.74282155366647 101.3322926268481 A 0.9999999999999989 0.9999999999999989 0 0,0 -47.492240671372755 100.13297197233489 L -75.26178758888145 93.7218669071132 A 1.0000002230202107 1.0000002230202107 0 0,0 -76.46110868704967 94.47128615128027 L -80.73517877667942 112.98431762951145 A 1.0000000000000016 1.0000000000000016 0 0,0 -79.98575965897312 114.18363828402467 L -52.21621248663766 120.5947434080777" /><path d="M -118.75 -37.0 A 1.0000000000000002 1.0000000000000002 0 0,1 -119.75 -38.0 L -119.75 -57.0 A 1.0000000000000002 1.0000000000000002 0 0,1 -118.75 -58.0 L -42.75 -58.0 A 1.0000000000000002 1.0000000000000002 0 0,1 -41.75 -57.0 L -41.75 -38.0 A 1.0000000000000002 1.0000000000000002 0 0,1 -42.75 -37.0 L -118.75 -37.0" /><path d="M -38.0 -37.0 A 1.0000000000000002 1.0000000000000002 0 0,1 -39.0 -38.0 L -39.0 -57.0 A 1.0000000000000002 1.0000000000000002 0 0,1 -38.0 -58.0 L 38.0 -58.0 A 1.0000000000000002 1.0000000000000002 0 0,1 39.0 -57.0 L 39.0 -38.0 A 1.0000000000000002 1.0000000000000002 0 0,1 38.0 -37.0 L -38.0 -37.0" /><path d="M 42.75 -37.0 A 1.0000000000000002 1.0000000000000002 0 0,1 41.75 -38.0 L 41.75 -57.0 A 1.0000000000000002 1.0000000000000002 0 0,1 42.75 -58.0 L 118.75 -58.0 A 1.0000000000000002 1.0000000000000002 0 0,1 119.75 -57.0 L 119.75 -38.0 A 1.0000000000000002 1.0000000000000002 0 0,1 118.75 -37.0 L 42.75 -37.0" /><path d="M 122.5 -38.0 L 122.5 -57.0 A 1.0000000000000002 1.0000000000000002 0 0,1 123.5 -58.0 L 142.5 -58.0 A 1.0000000000000002 1.0000000000000002 0 0,1 143.5 -57.0 L 143.5 -38.0 A 1.0000000000000002 1.0000000000000002 0 0,1 142.5 -37.0 L 123.5 -37.0 A 1.0000000000000002 1.0000000000000002 0 0,1 122.5 -38.0" /><path d="M -143.5 -38.0 L -143.5 -57.0 A 1.0000000000000002 1.0000000000000002 0 0,1 -142.5 -58.0 L -123.5 -58.0 A 1.0000000000000002 1.0000000000000002 0 0,1 -122.5 -57.0 L -122.5 -38.0 A 1.0000000000000002 1.0000000000000002 0 0,1 -123.5 -37.0 L -142.5 -37.0 A 1.0000000000000002 1.0000000000000002 0 0,1 -143.5 -38.0" /><path d="M 52.216212486637644 120.5947434080777 A 1.0000000842937264 1.0000000842937264 0 0,1 51.01689167450285 119.84532424025022 L 46.74282155366646 101.33229262684812 A 0.9999999999999962 0.9999999999999962 0 0,1 47.49224067137274 100.1329719723349 L 75.26178758888143 93.72186690711321 A 1.0000002230202107 1.0000002230202107 0 0,1 76.46110868704966 94.47128615128028 L 80.73517877667939 112.98431762951147 A 0.9999999999999962 0.9999999999999962 0 0,1 79.98575965897311 114.18363828402468 L 52.216212486637644 120.5947434080777" /></svg>